<svg xmlns="http://www.w3.org/2000/svg" width="22" height="22" class="instagram"><path fill-rule="evenodd" fill="#b6b3bd" d="M15.281 21.499H7.219A6.719 6.719 0 01.5 14.781V6.717A6.719 6.719 0 017.219-.001h8.062A6.72 6.72 0 0122 6.717v8.064a6.72 6.72 0 01-6.719 6.718zm4.703-14.782a4.71 4.71 0 00-4.703-4.703H7.219a4.71 4.71 0 00-4.704 4.703v8.064a4.71 4.71 0 004.704 4.703h8.062a4.71 4.71 0 004.703-4.703V6.717zm-2.956-1.03a.715.715 0 11-.002-1.43.715.715 0 01.002 1.43zM11.25 16.124a5.375 5.375 0 110-10.75 5.375 5.375 0 010 10.75zm0-8.733a3.362 3.362 0 00-3.359 3.359 3.364 3.364 0 003.359 3.359 3.364 3.364 0 003.359-3.359 3.362 3.362 0 00-3.359-3.359z"/></svg>