<svg width="137" height="32" fill="none" xmlns="http://www.w3.org/2000/svg"><path d="M100.903 29.115c-.04 0-.079 0-.097.022a.374.374 0 01-.06.132.496.496 0 01-.431.241c-.411 0-.784-.615-1.059-1.781l-1.098-4.456c-.489-2.021-1.803-3.034-3.901-3.034a4.844 4.844 0 00-2.842.82v1.196c.374-.094.88-.294 1.44-.294.862 0 1.41.527 1.667 1.692l.304 1.27a3.598 3.598 0 00-1.529-.287c-2.666 0-4.372 1.364-4.372 3.453 0 2.045 1.706 3.517 4.077 3.517 1.04 0 2.276-.372 2.862-.857.159-.109.237-.195.276-.22a.31.31 0 01.097-.043c.06 0 .079.022.118.066l.196.218c.51.552 1.176.814 2.039.814 1.493 0 2.568-.835 2.568-2 0-.332-.078-.469-.255-.469zm-6.626.78c-1.02 0-1.785-.881-1.785-2.046 0-1.076.687-1.869 1.608-1.869.386-.004.764.12 1.079.352l.44 1.934c.04.159.06.322.06.485-.01.654-.6 1.143-1.402 1.143zM71.11 15.795l-3.97 11.412c-.058.177-.157.286-.254.286s-.187-.087-.235-.22l-3.908-11.478h-4.835l5.9 15.48c.078.265.156.33.43.33h3.191c.293 0 .314-.022.411-.308l5.65-15.502h-2.38zM87.218 20.256c.117 0 .196.067.196.133-.01.074-.022.147-.04.22l-.343.99a.404.404 0 01-.156.218.376.376 0 01-.254.065h-1.774c-.196 0-.256.09-.256.331v6.384c0 .901.295 1.275.962 1.275a2.04 2.04 0 001.254-.506c.275-.22.47-.352.588-.352a.502.502 0 01.355.17.547.547 0 01.136.402c0 1.032-2.053 2.022-4.174 2.022-1.882 0-2.864-.606-2.864-1.662v-7.733c0-.22-.099-.33-.274-.33h-.883a.397.397 0 01-.335-.109.432.432 0 01-.134-.338c0-.11.026-.42.56-.779 1.559-.924 2.776-2.294 3.698-3.659.236-.329.411-.461.628-.461a.523.523 0 01.359.188c.091.109.138.251.13.396v3.116l2.62.02zM112.25 20.876c-.039-.244-.097-.331-.274-.331a.327.327 0 00-.196.044l-2.789 1.126a.748.748 0 00-.344.286.798.798 0 00-.13.439v9.152h3.743v-2.41c0-.121-.01-.258-.01-.407v-7.9zM111.561 16.068c-1.1-.226-2.582.779-3.118 2.115a2.375 2.375 0 00-.101.352c-.145.78.2 1.352.911 1.498.646.133 1.584-.21 2.263-.872.451-.418.771-.968.917-1.578.157-.796-.198-1.375-.872-1.515zM77.9 20.876c-.04-.243-.097-.33-.275-.33a.329.329 0 00-.186.044l-2.8 1.126a.753.753 0 00-.345.286.802.802 0 00-.13.438v9.153h3.734v-10.71l.002-.007zM77.21 16.068c-1.1-.226-2.58.779-3.118 2.115a2.293 2.293 0 00-.1.352c-.145.78.199 1.352.91 1.498.646.133 1.583-.21 2.263-.872.451-.418.77-.968.916-1.578.16-.796-.196-1.375-.871-1.515zM106.614 29.222V15.785c-.039-.262-.078-.329-.255-.329a.667.667 0 00-.215.022l-2.8 1.15a.754.754 0 00-.342.287.8.8 0 00-.129.436v14.243h3.734l.007-2.372zM123.592 24.972a7.304 7.304 0 00-2.179-.998l-2.377-.66c-.998-.284-1.245-.477-1.273-.973-.032-.53.435-.955 1.139-1 1.253-.08 2.903.602 4.107 1.708.25.263.452.343.609.334a.4.4 0 00.285-.144.44.44 0 00.103-.312v-.033a1.121 1.121 0 00-.226-.495c-1.23-1.797-4.225-2.63-6.099-2.51-2.27.144-3.816 1.589-3.706 3.46.062 1.04.624 1.909 1.639 2.493.592.39 1.135.6 2.181.997l1.404.49c1.443.511 1.897.877 1.938 1.57.041.694-.48 1.214-1.32 1.268-.84.055-2.427-.46-3.71-1.392a6.242 6.242 0 01-.92-.865c-.34-.419-.525-.545-.747-.531-.254.015-.416.28-.398.584.016.208.08.408.187.584l.144.241c1.282 1.882 3.806 2.499 3.806 2.499.992.22 2.004.319 3.017.294 2.328-.148 3.958-1.852 3.831-4.002a3.423 3.423 0 00-.417-1.483 3.268 3.268 0 00-1.018-1.124zM135.551 24.972a7.298 7.298 0 00-2.178-.998l-2.377-.66c-.999-.284-1.245-.477-1.273-.973-.032-.53.435-.955 1.139-1 1.252-.08 2.903.602 4.107 1.708.25.263.452.343.608.334a.399.399 0 00.285-.144.442.442 0 00.104-.312v-.033a1.12 1.12 0 00-.226-.495c-1.23-1.797-4.225-2.63-6.099-2.51-2.27.144-3.814 1.589-3.706 3.46.062 1.04.624 1.909 1.639 2.493.592.39 1.135.6 2.181.997l1.404.49c1.443.511 1.896.877 1.937 1.57.041.694-.479 1.214-1.32 1.268-.84.055-2.426-.46-3.709-1.392a6.24 6.24 0 01-.92-.865c-.34-.419-.525-.545-.747-.532-.254.016-.415.281-.398.585.017.207.081.408.187.584l.144.241c1.282 1.882 3.806 2.499 3.806 2.499.993.22 2.008.319 3.023.294 2.328-.148 3.957-1.852 3.831-4.002a3.416 3.416 0 00-.421-1.484c-.25-.454-.6-.838-1.021-1.123z" fill="#FEFEFE"/><path fill-rule="evenodd" clip-rule="evenodd" d="M37.72 10.246a8.795 8.795 0 003.878-1.613 9.335 9.335 0 002.913-3.578 9.774 9.774 0 00.897-4.6h1.007A10.862 10.862 0 0145.4 5.526a10.374 10.374 0 01-3.219 3.945 9.754 9.754 0 01-4.31 1.786v.03l-.542.038-.467.042v-.017c-1.886.057-2.947-.367-4.14-.844l-.065-.026-.033-.012c-.444-.18-.946-.383-1.555-.595a10.997 10.997 0 00-7.079-.024c.315-.473.64-.924.977-1.353a11.914 11.914 0 016.42.378c.598.205 1.091.404 1.526.58l.073.03.035.014c1.17.475 2.096.85 3.806.797h.582l.31-.05zm2.626 12.295a9.706 9.706 0 01.058-6.993l.098-.244.035-.073v-.041l.033-.076.156-.3c.81-1.574 1.584-2.22 2.57-3.038l.087-.073c.366-.309.78-.656 1.25-1.092a12.983 12.983 0 003.144-4.545A13.478 13.478 0 0048.793.562a46.65 46.65 0 00-1.01-.051 12.392 12.392 0 01-.911 5.102 11.94 11.94 0 01-2.901 4.216c-.486.45-.913.809-1.296 1.128-1.021.853-1.911 1.601-2.818 3.358l-.025-.012-.197.463-.175.373h.019a10.883 10.883 0 00-.508 6.284 10.567 10.567 0 003.047 5.446c.287-.202.568-.412.836-.628a9.35 9.35 0 01-2.508-3.7zM.398 10.933l-.138.14a3.067 3.067 0 00.019-.14h.119zm5.232 8.843a2.806 2.806 0 01-.35 0A8.47 8.47 0 00.947 21.74c-.06-.192-.119-.39-.172-.587a8.982 8.982 0 014.438-1.97h.084c.097.008.193.008.29 0a2.543 2.543 0 001.547-.729c.422-.417.697-.97.781-1.571a2.8 2.8 0 00-.318-1.74 2.626 2.626 0 00-1.283-1.16 2.49 2.49 0 00-1.696-.082 2.597 2.597 0 00-1.38 1.03 2.787 2.787 0 00-.473 1.7c.03.607.254 1.185.638 1.641l.537.636-.773.293c-.222.088-.456.185-.69.29l-.399.188-.266-.364-.027-.037c-.024-.034-.05-.068-.071-.104a4.76 4.76 0 01-.81-2.445 4.791 4.791 0 01.573-2.518 4.53 4.53 0 011.78-1.802 4.284 4.284 0 012.428-.526c.7.202 1.376.446 2.023.69.505.333.939.77 1.275 1.284a4.787 4.787 0 01.75 3.454 4.658 4.658 0 01-1.808 2.996h-.014c-.796.553-1.22.622-1.99.746l-.13.021c-.237.039-.516.084-.835.154a7.19 7.19 0 00-3.504 1.896 7.985 7.985 0 01-.234-.568 7.729 7.729 0 013.614-1.89c.393-.086.713-.137.993-.181l.026-.004c.72-.117 1.05-.17 1.742-.652a4.04 4.04 0 001.386-1.86c.276-.75.332-1.567.162-2.35a4.106 4.106 0 00-1.117-2.048 3.834 3.834 0 00-2.018-1.056 3.745 3.745 0 00-2.242.291 3.945 3.945 0 00-1.709 1.54 4.192 4.192 0 00-.6 2.272c.02.803.266 1.58.71 2.237l.088.124c.239-.112.496-.214.73-.307a3.38 3.38 0 01-.777-2.297 3.36 3.36 0 01.727-1.964 3.124 3.124 0 011.724-1.097 3.024 3.024 0 012.008.224A3.204 3.204 0 018.13 14.99c.32.638.43 1.37.312 2.08a3.32 3.32 0 01-.965 1.85 3.082 3.082 0 01-1.846.855zm9.051.108h-.016l-.054.046-.065.06-.059.06-.02.021-.04.044v.015c-.04.046-.078.092-.115.143l-.054.078-.023.037a2.185 2.185 0 00-.273.626.098.098 0 01-.02.069c-.04.173-.06.352-.058.53v.057c.005.103.015.205.03.307a.09.09 0 000 .053c.013.04.021.08.027.12 0 .024.008.048.017.072.005.014.01.028.013.042.005.02.011.038.019.056l.025.066.021.056a1.721 1.721 0 00.11.232l.021.041.028.051.028.042a.313.313 0 00.03.046v.02a2.077 2.077 0 00.536.548 2 2 0 001.233.373c-.023-.193-.05-.386-.077-.576a1.5 1.5 0 01-.234-.02 1.545 1.545 0 01-.995-.67l-.02-.033-.027-.04-.046-.07a1.667 1.667 0 01-.182-.629 1.575 1.575 0 010-.363v-.078a.475.475 0 01.016-.082v-.052c.046-.173.12-.338.217-.487.023-.037.05-.07.075-.105a1.32 1.32 0 01.05-.057l.025-.028a.225.225 0 00.032-.034l.054-.051.037-.034.08-.064c.056-.04.115-.078.175-.112a18.467 18.467 0 00-.184-.546c-.11.054-.215.117-.314.19l-.023.03zm-4.17 2.56l-.013-.302-.01-.28a5.525 5.525 0 01.467-2.4v-.01c.096-.253.201-.54.313-.89a6.796 6.796 0 00.012-4.047c.234.18.467.368.701.56a7.417 7.417 0 01-.192 3.698c-.116.36-.224.655-.322.913v.02a4.96 4.96 0 00-.425 2.156v.329l.026.178a5.207 5.207 0 001.757 3.229 4.806 4.806 0 003.382 1.157v.575a5.344 5.344 0 01-3.742-1.302 5.79 5.79 0 01-1.94-3.583h-.013zm2.052-6.852a7.885 7.885 0 01-.313 3.316c-.12.383-.234.688-.336.958-.283.758-.437 1.177-.377 2.174v.017a4.698 4.698 0 001.526 3.079c.871.782 2 1.18 3.147 1.112 0-.146-.008-.29-.016-.435l-.008-.14a3.785 3.785 0 01-2.757-.973 4.112 4.112 0 01-1.335-2.697c-.056-.87.067-1.201.338-1.927l.055-.142c.093-.24.198-.512.293-.833a8.53 8.53 0 00.386-2.873c-.187-.212-.39-.422-.603-.636zM8.5 21.185a4.896 4.896 0 01-2.425.926c-.266.031-.563.09-.906.175a6.203 6.203 0 00-3.22 1.85 12.37 12.37 0 01-.268-.531 6.727 6.727 0 013.38-1.887c.348-.074.641-.122.902-.165l.033-.005c.79-.073 1.549-.36 2.2-.833a5.184 5.184 0 002.012-3.331 5.33 5.33 0 00-.83-3.841c-.063-.098-.134-.19-.204-.28l-.03-.037c.358.178.7.366 1.029.56a5.948 5.948 0 01.515 4.028 5.745 5.745 0 01-2.174 3.37H8.5zm-7.864-.556c.166-.132.337-.258.51-.375l.467-.325-.325-.487a5.334 5.334 0 01-.807-3.83 5.186 5.186 0 012.008-3.314 4.762 4.762 0 011.691-.795 23.39 23.39 0 00-1.093-.22c-.322.15-.629.332-.916.544A5.705 5.705 0 000 15.19c0 1.152.079 2.303.234 3.443.153.402.35.784.588 1.138a7.766 7.766 0 00-.156.112 5.73 5.73 0 01-.187.132l.108.422.048.192zm1.108-9.44a6.336 6.336 0 00-1.675 1.847c.028-.366.058-.734.09-1.102.276-.341.582-.654.914-.935.271.029.54.058.808.095l-.137.095zm7.996 18.074l-.629-.541-.26.802a.45.45 0 01-.018.05c.173.066.346.13.521.19l.021-.055c.027.024.055.045.083.067l.053.042c.36.125.726.244 1.1.344l.058-.149-.352-.268a14.804 14.804 0 01-.577-.482zm-1.344-1.211c.125.437.116.903-.025 1.335l-.09-.039a8.688 8.688 0 01-.386-.173c.104-.327.108-.68.01-1.008a1.638 1.638 0 00-.56-.823 1.529 1.529 0 00-.914-.326 1.525 1.525 0 00-1.265.641 11.8 11.8 0 01-.43-.314c.047-.066.097-.13.15-.19l.035-.04.033-.031A.923.923 0 015.035 27c.04-.037.081-.07.123-.105l.035-.027.045-.031a2.037 2.037 0 012.436.111c.344.28.596.666.721 1.103zm7.616 2.505a8.38 8.38 0 01-3.81-.916 8.757 8.757 0 01-3.037-2.569 3.182 3.182 0 00-1.282-1.324 3.026 3.026 0 00-2.842-.052 3.167 3.167 0 00-1.13.97c.091.084.185.165.28.247.048.04.095.08.143.123.162-.23.36-.431.584-.595a2.511 2.511 0 011.933-.453 2.585 2.585 0 011.83 1.362l.022.039.025.034c1.27 1.691 3.043 2.892 5.041 3.412.713.11 1.437.192 2.177.243.022-.153.042-.321.062-.488l.004-.033zm-2.9-10.318c.049-.111.104-.22.165-.324a9.197 9.197 0 00.612-2.7c.17.257.326.523.468.797a9.751 9.751 0 01-.563 2.122l-.017.042-.02.039a2.84 2.84 0 00-.139.265 2.802 2.802 0 00.21 2.627c.247.383.584.693.979.902a2.5 2.5 0 001.276.287c.019.193.035.383.051.578a2.998 2.998 0 01-1.488-.295 3.226 3.226 0 01-1.627-1.839 3.405 3.405 0 01.092-2.5zm1.74-1.147l-.134-.302-.06.34.194-.038zm-5.395 7.131c-.464-.603-.678-.88-1.428-1.266a3.753 3.753 0 00-2.512-.239c-.84.213-1.588.711-2.127 1.416-.14-.136-.252-.274-.368-.417l-.008-.01a4.416 4.416 0 012.429-1.566 4.27 4.27 0 012.84.301c.651.319 1.21.811 1.617 1.428l.032.04c.167.217.355.46.597.745a7.332 7.332 0 002.536 1.912c.967.44 2.015.655 3.07.632-.011.184-.027.367-.042.551l-.002.024a7.591 7.591 0 01-3.277-.691 7.894 7.894 0 01-2.706-2.048c-.266-.32-.467-.563-.647-.806l-.004-.006zm-4.837-2.375a4.702 4.702 0 013.674.034l.129.053.04.022h.011l.04.017.159.09c.634.35 1.18.852 1.595 1.463l.097.126c.147.193.313.412.515.639a6.838 6.838 0 002.388 1.795c.912.41 1.899.607 2.892.578.012-.193.021-.386.028-.577a6.043 6.043 0 01-2.686-.518 6.286 6.286 0 01-2.22-1.66 34.67 34.67 0 01-.424-.522l-.17-.21a5.194 5.194 0 00-1.763-1.61v-.015l-.234-.112-.196-.08a5.29 5.29 0 00-3.3-.283c-1.102.261-2.1.87-2.858 1.744.108.164.218.325.332.488a4.917 4.917 0 011.95-1.462zm2.7-8.083a.38.38 0 01.038.117c.015.07.025.142.03.214a.835.835 0 01.028.212v.429a1.37 1.37 0 00-.019.142 2.423 2.423 0 01-.135.475l-.028.063-.028.064-.033.063-.033.06-.035.062c-.071.12-.154.231-.247.334l-.05.05a1.291 1.291 0 01-.097.098l-.017.015-.042.036-.056.047-.051.039-.077.053-.045.03-.046.026a2.053 2.053 0 01-1.169.278H5.12a2.052 2.052 0 01-.451-.102l-.159-.064a3.356 3.356 0 01-.206-.107l-.049-.031a.33.33 0 01-.046-.032l-.05-.032a1.3 1.3 0 01-.09-.07l-.03-.022-.036-.032-.051-.046-.05-.047a1.401 1.401 0 01-.128-.139l-.04-.046-.023-.032c-.022-.026-.042-.054-.062-.083l-.022-.031a2.268 2.268 0 01-.353-1.577.975.975 0 00.019-.12 2.1 2.1 0 01.152-.486 2.171 2.171 0 01.528-.741l.112-.086.056-.04a1.953 1.953 0 01.745-.347 1.705 1.705 0 01.55-.044c.136.006.272.026.406.061.49.128.919.435 1.21.865.093.132.171.274.233.424l.035.1zm-.43.86a.976.976 0 000-.117l-.011-.022v-.107a1.634 1.634 0 00-.276-.782 1.564 1.564 0 00-.614-.534 1.49 1.49 0 00-1.535.144 1.582 1.582 0 00-.51.64c-.035.08-.064.16-.086.245l-.014.048c-.038.17-.05.345-.037.52.02.295.117.58.28.823l.024.03.035.028.042.054.014.017.046.054.014.014.052.052h.011c.077.072.16.136.25.19h.021l.057.031h.02l.029.022.028.012h.011c.326.14.688.159 1.026.054.107-.03.211-.07.31-.122l.045-.024.056-.034.082-.054h.016c.193-.144.353-.331.467-.548l.045-.093c.005-.016.012-.03.018-.046l.019-.046a.25.25 0 00.03-.088v-.02l.021-.082v-.027l.014-.076v-.156zm25.183-13.2l-.068-.356c-.177.08-.352.161-.525.244l.593.112zm11.793 9.083c.397-.332.845-.71 1.37-1.197a13.91 13.91 0 003.35-4.83A14.438 14.438 0 0049.687.633l1.002.078c.032 2.145-.38 4.27-1.205 6.235a14.96 14.96 0 01-3.579 5.15c-.535.5-.995.892-1.401 1.23l-.032.027c-1.034.87-1.521 1.282-2.192 2.698a7.714 7.714 0 00-.44 4.8 7.463 7.463 0 002.481 4.067 12.79 12.79 0 01-.75.731 8.535 8.535 0 01-2.73-4.628 8.808 8.808 0 01.526-5.407v-.029c.775-1.637 1.387-2.149 2.495-3.076l.002-.001zm-3.15-9.487a4.811 4.811 0 01-2.657 2.558 4.549 4.549 0 01-4.08-.409l-.066-.041-.072-.032a16.055 16.055 0 00-3.705-1.075c-.486.278-.953.572-1.402.882a14.93 14.93 0 014.72 1.156 5.517 5.517 0 004.949.494c1.425-.548 2.584-1.665 3.222-3.104.39-.885.566-1.855.514-2.827-.337.03-.671.061-1.003.098.039.79-.105 1.58-.42 2.3zm-12.04 10.847a6.88 6.88 0 00-5.29 1.244l.005-.01-.178.132c-1.501 1.165-2.5 2.902-2.781 4.832a7.651 7.651 0 001.284 5.474c1.102 1.577 2.758 2.636 4.605 2.946a6.872 6.872 0 005.26-1.287c.072-.054.145-.108.217-.166a19.074 19.074 0 01-.537-1.389 5.562 5.562 0 01-4.097 1.476 5.61 5.61 0 01-3.48-1.492 6.049 6.049 0 01-1.843-3.42 6.207 6.207 0 01.584-3.875 5.833 5.833 0 012.762-2.663 5.513 5.513 0 013.75-.305 5.727 5.727 0 013.123 2.185 6.156 6.156 0 011.154 3.735 16.78 16.78 0 003.47 8.236c-.33.117-.681.229-1.032.334a17.88 17.88 0 01-3.436-8.431v-.159a5.035 5.035 0 00-1.252-3.452 4.676 4.676 0 00-2.67-1.515 4.558 4.558 0 00-3 .492 4.85 4.85 0 00-2.096 2.295 5.127 5.127 0 00-.323 3.152 4.97 4.97 0 001.582 2.706 4.619 4.619 0 002.835 1.142 4.59 4.59 0 003.31-1.218l1.112-1.019.5 1.462c.152.444.322.887.509 1.316l.327.758-.635.504a7.885 7.885 0 01-4.524 1.731 7.83 7.83 0 01-4.401-1.09 8.296 8.296 0 01-3.154-3.384 8.755 8.755 0 01-.921-4.62c.355-1.334.759-2.632 1.21-3.85a8.262 8.262 0 012.839-2.846 7.847 7.847 0 013.79-1.112 7.82 7.82 0 013.844.883 8.204 8.204 0 012.992 2.67l.018.024c.967 1.515 1.086 2.328 1.301 3.789v.003c.075.521.166 1.104.309 1.835a14.086 14.086 0 003.315 6.66 26.8 26.8 0 01-.988.428 15.195 15.195 0 01-3.313-6.876c-.14-.71-.227-1.297-.304-1.813l-.011-.076-.008-.053c-.207-1.367-.304-2.008-1.14-3.315-1.09-1.596-2.74-2.678-4.592-3.008zm17.293.026a5.49 5.49 0 00-.549.355c-1.241.916-2.083 2.308-2.34 3.87a6.183 6.183 0 00.967 4.464c.336.499.744.94 1.21 1.309.22-.261.437-.532.647-.81a4.87 4.87 0 01-1.419-1.766 5.09 5.09 0 01-.49-2.247c.008-.779.195-1.544.544-2.233a4.855 4.855 0 011.914-2.024l.068-.039.063-.05c2.954-2.397 5.057-5.752 5.978-9.536.196-1.372.345-2.775.446-4.2l-.935-.125a17.1 17.1 0 01-1.606 7.252 16.392 16.392 0 01-4.498 5.78zm3.834-1.097c.29-.358.57-.733.834-1.113l.467-.683.262.115c-.19.716-.39 1.42-.605 2.108l-.19.243.099.04c-.077.26-.168.52-.257.775l-.075.214-.089-.034-1.401-.488.955-1.177zM31.67 8.01c.668.244 1.2.448 1.677.641 1.325.538 2.054.833 3.799.716h.03a7.858 7.858 0 003.906-1.506 8.4 8.4 0 002.62-3.223 8.796 8.796 0 00.804-4.143c-.259 0-.516.015-.774.029l-.23.013a7.711 7.711 0 01-.7 3.64 7.366 7.366 0 01-2.3 2.834 6.903 6.903 0 01-3.422 1.316c-1.52.105-2.102-.132-3.367-.646h-.001a33.163 33.163 0 00-1.727-.66 13.705 13.705 0 00-4.973-.731c-.392.36-.766.742-1.121 1.143a12.726 12.726 0 015.779.577zm5.622 11.772c.072.5.156 1.065.29 1.74a12.077 12.077 0 003.24 6.135c-.312.18-.623.35-.935.512a13.168 13.168 0 01-3.291-6.433c-.138-.7-.225-1.28-.3-1.79-.212-1.444-.366-2.482-1.455-4.187l-.011-.017c-1.379-2.031-3.473-3.41-5.824-3.833a8.722 8.722 0 00-7.265 2.012c.31-.675.635-1.325.976-1.949a9.655 9.655 0 017.045-.974c2.383.583 4.479 2.057 5.892 4.142l.019.027c1.196 1.861 1.378 3.05 1.605 4.527l.014.088zM17.753 30.576c0 .075 0 .15-.018.226l.252.035a2 2 0 01-.233-.261zm.34-2.72a11.474 11.474 0 003.327 3.34 52.025 52.025 0 01-1.927-.174 12.531 12.531 0 01-1.635-1.738c.049-.516.102-1.028.166-1.537l.069.108zm15.95 1.287l-.57-.894-.85.617a8.773 8.773 0 01-4.04 1.62 8.644 8.644 0 01-4.296-.538 8.993 8.993 0 01-3.559-2.569 9.523 9.523 0 01-1.995-4.006c-.14.68-.267 1.37-.38 2.069.263.61.581 1.194.95 1.742 1.409 2.086 3.502 3.56 5.882 4.143a41.965 41.965 0 006.027-.488c.7-.294 1.367-.67 1.988-1.118.14.22.285.44.435.658.36-.083.715-.168 1.065-.26-.229-.313-.45-.637-.656-.976zm-3.327-10.115l.01.017.04.066c.017.031.037.06.06.088.363.675.532 1.445.486 2.217l-.008.063a4.27 4.27 0 01-.189.963c-.03.099-.053.156-.102.282l-.01.025a3.266 3.266 0 01-.186.388c-.017.031-.033.063-.052.095l-.056.09-.058.093c-.038.058-.08.116-.122.175l-.042.053-.015.02a.751.751 0 01-.036.049l-.08.097-.084.095a3.426 3.426 0 01-.233.244c-.026.024-.052.049-.08.07l-.054.05c-.065.053-.13.107-.2.155a3.657 3.657 0 01-2.965.646 3.678 3.678 0 01-.838-.287 2.11 2.11 0 01-.234-.117 4.34 4.34 0 01-.42-.276 4.75 4.75 0 01-.293-.244 4.1 4.1 0 01-.266-.272l-.019-.021a1.546 1.546 0 01-.065-.077c-.054-.066-.13-.168-.157-.202a4.022 4.022 0 01-.614-1.272 2.287 2.287 0 01-.063-.244 3.988 3.988 0 01-.091-1.045 4.31 4.31 0 01.105-.775 4.02 4.02 0 011.516-2.325c.23-.17.48-.314.74-.426l.176-.068c.058-.024.12-.044.182-.064l.021-.007c.129-.037.24-.068.362-.093.123-.03.248-.05.374-.056.126-.012.252-.017.378-.014a3.218 3.218 0 01.61.058 3.711 3.711 0 01.834.256l.114.051.113.056.11.061.107.064.105.065c.21.137.405.295.584.473a3.127 3.127 0 01.26.278l.027.032.063.082c.028.035.054.069.08.105l.07.098.012.018c.027.041.055.083.079.125l.014.022zm-.652 3.312a.042.042 0 010-.024l.007-.008c.255-.609.304-1.29.138-1.932a3.056 3.056 0 00-.215-.59l-.042-.085-.006-.012a5.386 5.386 0 00-.145-.248l-.02-.033a2.897 2.897 0 00-1.123-.967l-.159-.07h-.01a1.216 1.216 0 00-.156-.057h-.03l-.145-.041h-.049l-.13-.027h-.069l-.112-.017h-.563a2.75 2.75 0 00-1.372.526 2.918 2.918 0 00-.935 1.17 3.054 3.054 0 00.256 2.934c.285.421.67.757 1.12.975a2.522 2.522 0 00.527.19c.387.096.79.106 1.181.028a2.742 2.742 0 001.087-.482h.012l.054-.041.068-.056.093-.08.03-.027.023-.022.069-.068.025-.025c.03-.032.061-.063.089-.097l.019-.022c.126-.151.238-.314.334-.488l.02-.036.057-.112.018-.037.03-.066a.134.134 0 00.024-.053zm16.477-6.436a4.024 4.024 0 00-1.55 2.523 4.145 4.145 0 00.562 2.938l.056.085v.015l.049.068a3.12 3.12 0 00.325.402l.056.059.07.068c.104.102.215.197.331.285.187-.266.37-.539.55-.819a3 3 0 01-1.053-1.734 3.096 3.096 0 01.271-2.033 2.904 2.904 0 011.466-1.369 2.748 2.748 0 011.967-.056c.058-.144.114-.29.17-.435.061-.163.124-.327.192-.492a3.674 3.674 0 00-1.789-.19 3.732 3.732 0 00-1.673.685zM38.98 2.18a2.918 2.918 0 00.252-1.199c.332-.053.666-.102 1.004-.148A4.06 4.06 0 0139.2 3.7c-.172.19-.362.36-.567.511l-.026.02-.084.058-.073.051-.088.054-.07.042c-.029.017-.057.034-.087.048l-.056.032a3.748 3.748 0 01-.264.127l-.1.041a.324.324 0 01-.098.037l-.101.036-.2.061-.206.049-.099.02a3.591 3.591 0 01-.535.058h-.1a3.777 3.777 0 01-.934-.115l-.12-.031a3.78 3.78 0 01-1.095-.524l-.066-.044-.135-.103a4.417 4.417 0 01-.25-.216l-.026-.025-.02-.018a.712.712 0 01-.054-.055l-.04-.041-.105-.11-.105-.127-.014-.017-.08-.102-.02-.03a3.869 3.869 0 01-.425-.724c.151-.052.305-.11.46-.17.162-.062.327-.125.492-.182.058.116.124.229.196.336l.026.034.112.151.059.078.09.1.061.066.171.158c.048.042.1.081.15.12l.032.024h.014c.256.185.54.325.839.414l.086.025h.017l.142.031h.138a2.713 2.713 0 001.602-.258l.136-.07.02-.013.115-.07.068-.047.063-.044c.404-.297.727-.7.935-1.167z" fill="#FEFEFE"/></svg>