<svg width="88" height="77" fill="none" xmlns="http://www.w3.org/2000/svg"><path d="M46.38 74.07c-.042 0-.085 0-.105.023a.397.397 0 01-.064.143.56.56 0 01-.2.192.53.53 0 01-.265.069c-.443 0-.846-.664-1.142-1.923l-1.184-4.806c-.528-2.18-1.946-3.273-4.21-3.273a5.226 5.226 0 00-3.065.884v1.29c.403-.1.95-.317 1.553-.317.93 0 1.523.57 1.799 1.825l.328 1.37a3.88 3.88 0 00-1.65-.309c-2.875 0-4.716 1.47-4.716 3.725 0 2.206 1.84 3.794 4.398 3.794 1.122 0 2.455-.401 3.088-.924.17-.118.255-.21.298-.238a.335.335 0 01.104-.046c.065 0 .085.023.127.071l.212.236c.55.594 1.269.878 2.199.878 1.611 0 2.771-.901 2.771-2.158 0-.359-.084-.506-.276-.506zm-7.147.84c-1.1 0-1.925-.95-1.925-2.205 0-1.162.74-2.017 1.733-2.017a1.92 1.92 0 011.165.38l.475 2.086c.042.171.064.347.064.523-.01.706-.646 1.233-1.512 1.233z" fill="url(#paint0_linear_303_87)"/><path d="M14.242 59.7L9.96 72.012c-.063.192-.17.31-.274.31-.105 0-.202-.095-.254-.238L5.216 59.7H0L6.364 76.4c.084.285.17.355.465.355h3.442c.316 0 .338-.023.443-.332L16.808 59.7h-2.566z" fill="url(#paint1_linear_303_87)"/><path d="M31.618 64.514c.127 0 .212.071.212.142-.01.08-.024.16-.043.238l-.37 1.067a.436.436 0 01-.17.236.406.406 0 01-.273.07H29.06c-.212 0-.276.097-.276.358v6.886c0 .973.318 1.376 1.037 1.376a2.201 2.201 0 001.353-.546c.296-.237.508-.38.634-.38a.542.542 0 01.383.183.59.59 0 01.147.434c0 1.114-2.215 2.18-4.503 2.18-2.03 0-3.09-.652-3.09-1.791v-8.342c0-.237-.106-.357-.295-.357h-.953a.428.428 0 01-.36-.117.464.464 0 01-.145-.364c0-.12.028-.454.604-.84 1.681-.998 2.994-2.475 3.99-3.948.253-.355.442-.498.676-.498.15.012.289.085.387.203a.613.613 0 01.14.427v3.362l2.828.02z" fill="url(#paint2_linear_303_87)"/><path d="M58.621 65.182c-.042-.263-.104-.357-.296-.357a.354.354 0 00-.211.048l-3.009 1.214a.813.813 0 00-.371.309.866.866 0 00-.14.473v9.873h4.038v-2.6c0-.13-.01-.278-.01-.44v-8.52z" fill="url(#paint3_linear_303_87)"/><path d="M57.878 59.995c-1.186-.244-2.785.84-3.363 2.281a2.48 2.48 0 00-.108.38c-.158.841.215 1.459.982 1.616.697.143 1.708-.227 2.441-.941.487-.45.831-1.043.989-1.702.17-.859-.214-1.483-.94-1.634z" fill="url(#paint4_linear_303_87)"/><path d="M21.565 65.182c-.042-.263-.105-.357-.296-.357a.354.354 0 00-.201.048l-3.021 1.214a.813.813 0 00-.372.309.866.866 0 00-.14.473v9.873h4.028V65.188l.002-.006z" fill="url(#paint5_linear_303_87)"/><path d="M20.821 59.995c-1.186-.244-2.783.84-3.363 2.281a2.48 2.48 0 00-.109.38c-.155.841.216 1.459.983 1.616.697.143 1.708-.227 2.44-.941.488-.45.832-1.043.99-1.702.17-.859-.212-1.483-.94-1.634z" fill="url(#paint6_linear_303_87)"/><path d="M52.542 74.186V59.69c-.043-.283-.085-.355-.276-.355a.721.721 0 00-.232.023l-3.02 1.242a.813.813 0 00-.369.309.866.866 0 00-.14.47v15.365h4.029l.008-2.558z" fill="url(#paint7_linear_303_87)"/><path d="M70.856 69.6a7.87 7.87 0 00-2.35-1.076l-2.564-.712c-1.077-.307-1.343-.515-1.373-1.05-.035-.572.469-1.03 1.228-1.078 1.352-.086 3.132.65 4.43 1.842.27.284.488.37.657.36a.43.43 0 00.308-.155.469.469 0 00.111-.337v-.036a1.209 1.209 0 00-.243-.533c-1.328-1.94-4.558-2.838-6.58-2.708-2.449.155-4.116 1.714-3.998 3.733.067 1.122.673 2.059 1.769 2.689.638.42 1.224.647 2.352 1.075l1.514.53c1.557.55 2.046.945 2.09 1.693.045.748-.517 1.309-1.423 1.368-.906.058-2.618-.496-4.002-1.502a6.75 6.75 0 01-.992-.933c-.367-.452-.566-.588-.806-.574-.274.017-.45.303-.429.63.017.225.086.441.201.63l.155.261c1.384 2.03 4.107 2.695 4.107 2.695 1.07.238 2.161.344 3.254.318 2.512-.16 4.27-1.998 4.133-4.317a3.688 3.688 0 00-.45-1.6 3.514 3.514 0 00-1.099-1.213z" fill="url(#paint8_linear_303_87)"/><path d="M83.758 69.6a7.871 7.871 0 00-2.35-1.076l-2.564-.712c-1.077-.307-1.343-.515-1.373-1.05-.034-.572.47-1.03 1.228-1.078 1.352-.086 3.132.65 4.43 1.842.27.284.488.37.657.36a.431.431 0 00.308-.155.47.47 0 00.111-.337v-.036a1.209 1.209 0 00-.243-.533c-1.328-1.94-4.558-2.838-6.58-2.708-2.449.155-4.114 1.714-3.997 3.733.066 1.122.672 2.059 1.768 2.689.638.42 1.224.647 2.352 1.075l1.515.53c1.556.55 2.046.945 2.09 1.693.044.748-.518 1.309-1.424 1.368-.906.058-2.618-.496-4.002-1.502a6.754 6.754 0 01-.992-.933c-.367-.452-.566-.588-.806-.574-.274.017-.447.303-.429.63.018.224.087.44.202.63l.155.261c1.383 2.03 4.106 2.695 4.106 2.695a13.51 13.51 0 003.26.318c2.512-.16 4.27-1.998 4.133-4.317a3.684 3.684 0 00-.453-1.602 3.511 3.511 0 00-1.102-1.211z" fill="url(#paint9_linear_303_87)"/><path fill-rule="evenodd" clip-rule="evenodd" d="M64.194 14.921a13.403 13.403 0 005.91-2.458 14.228 14.228 0 004.438-5.453A14.898 14.898 0 0075.91 0h1.534a16.553 16.553 0 01-1.545 7.728 15.81 15.81 0 01-4.906 6.012 14.862 14.862 0 01-6.568 2.722v.045l-.826.06-.712.063v-.026c-2.874.087-4.491-.56-6.309-1.286l-.1-.04-.049-.019a47.36 47.36 0 00-2.371-.906 16.76 16.76 0 00-10.787-.037c.48-.72.975-1.408 1.488-2.061a18.156 18.156 0 019.783.575c.913.313 1.664.616 2.328.884l.11.045.054.022c1.784.724 3.194 1.296 5.8 1.214h.886l.474-.074zm4.001 18.739a14.792 14.792 0 01.09-10.658l.149-.371.053-.112v-.063l.05-.115.238-.457c1.236-2.399 2.414-3.383 3.916-4.63l.133-.112v-.001c.56-.47 1.189-1 1.904-1.663a19.787 19.787 0 004.792-6.926A20.538 20.538 0 0081.068.163 71.04 71.04 0 0079.53.085a18.886 18.886 0 01-1.39 7.775 18.197 18.197 0 01-4.42 6.426 46.95 46.95 0 01-1.975 1.72c-1.556 1.3-2.913 2.44-4.294 5.117l-.04-.019-.298.706-.267.568h.028a16.584 16.584 0 00-.774 9.577c.693 3.199 2.315 6.098 4.644 8.3.438-.308.865-.627 1.275-.958a14.252 14.252 0 01-3.824-5.637zM7.315 15.969l-.21.211.012-.092c.005-.042.01-.083.016-.12h.182zm7.974 13.476a4.248 4.248 0 01-.534 0 12.908 12.908 0 00-6.6 2.993 23.524 23.524 0 01-.264-.895 13.69 13.69 0 016.765-3h.128c.147.01.294.01.441 0a3.876 3.876 0 002.357-1.112 4.18 4.18 0 001.192-2.395 4.269 4.269 0 00-.486-2.65 4.003 4.003 0 00-1.954-1.769 3.796 3.796 0 00-2.585-.126 3.958 3.958 0 00-2.104 1.57 4.247 4.247 0 00-.72 2.592c.045.924.387 1.805.971 2.5l.82.97-1.179.446c-.338.133-.694.282-1.05.442l-.609.286-.406-.554-.04-.056a7.255 7.255 0 01-1.344-3.885c-.064-1.34.239-2.67.874-3.837a6.905 6.905 0 012.711-2.747 6.53 6.53 0 013.702-.801c1.068.308 2.097.68 3.083 1.05a6.803 6.803 0 011.944 1.958 7.296 7.296 0 011.143 5.263c-.302 1.843-1.294 3.486-2.756 4.567h-.022c-1.213.843-1.858.947-3.033 1.136l-.094.016-.102.016c-.363.06-.788.129-1.274.235-2 .433-3.849 1.432-5.34 2.89a12.169 12.169 0 01-.356-.866 11.779 11.779 0 015.507-2.882c.598-.13 1.086-.207 1.513-.274l.04-.007c1.097-.177 1.6-.258 2.655-.992a6.157 6.157 0 002.112-2.836 6.438 6.438 0 00.247-3.58 6.257 6.257 0 00-1.702-3.122 5.844 5.844 0 00-3.077-1.61 5.707 5.707 0 00-3.415.444 6.01 6.01 0 00-2.605 2.348 6.389 6.389 0 00-.915 3.462 6.367 6.367 0 001.082 3.408l.135.19c.363-.171.755-.327 1.11-.468a5.095 5.095 0 01-.316-.42 5.15 5.15 0 01-.867-3.08 5.12 5.12 0 011.11-2.994 4.76 4.76 0 012.627-1.672 4.607 4.607 0 013.06.341 4.882 4.882 0 012.228 2.214c.49.974.657 2.088.477 3.172a5.06 5.06 0 01-1.472 2.819 4.698 4.698 0 01-2.813 1.302zm13.795.163h-.025l-.082.071-.1.093-.089.089-.032.033-.06.067v.023a3.53 3.53 0 00-.175.219l-.081.119-.036.055a3.33 3.33 0 00-.417.955.146.146 0 01-.028.104 3.448 3.448 0 00-.09.81v.085c.008.156.023.313.047.467a.14.14 0 000 .082c.018.06.032.12.04.182 0 .038.012.074.025.11.008.022.015.043.02.065.008.029.018.057.03.085l.038.1.032.086c.032.078.064.156.104.23a.2.2 0 00.025.048c.01.026.023.051.039.075l.032.063.042.078.043.063a.474.474 0 00.046.07v.03c.12.179.258.344.41.494.128.123.263.237.406.342.146.1.298.189.455.267a3.05 3.05 0 001.424.3 34.62 34.62 0 00-.117-.876c-.12 0-.238-.01-.356-.03a2.355 2.355 0 01-1.517-1.02l-.032-.053-.039-.059-.071-.108a2.54 2.54 0 01-.278-.958 2.404 2.404 0 010-.553v-.119a.722.722 0 01.025-.126v-.078a2.56 2.56 0 01.445-.903c.024-.03.05-.058.076-.087l.038-.043a.345.345 0 00.05-.052l.082-.078.057-.052.12-.096c.086-.063.175-.12.268-.17-.09-.283-.185-.558-.281-.833a3.009 3.009 0 00-.478.29l-.035.044zm-6.354 3.903l-.022-.46-.014-.427a8.418 8.418 0 01.712-3.658v-.015c.146-.386.306-.824.477-1.355.632-2.003.639-4.163.018-6.169.356.275.712.561 1.068.855.38 1.871.28 3.815-.292 5.633-.178.55-.342.999-.491 1.393v.03a7.56 7.56 0 00-.648 3.286v.501l.039.271c.275 1.93 1.23 3.685 2.678 4.92a7.325 7.325 0 005.154 1.765v.876a8.145 8.145 0 01-5.703-1.984c-1.6-1.376-2.653-3.322-2.955-5.462h-.021zm3.125-10.442c.203 1.7.04 3.427-.477 5.054a23.955 23.955 0 01-.513 1.46c-.43 1.154-.665 1.793-.573 3.312v.026c.163 1.82.996 3.501 2.324 4.693a6.59 6.59 0 004.796 1.694c0-.221-.012-.443-.024-.663l-.011-.213a5.767 5.767 0 01-4.202-1.482 6.266 6.266 0 01-2.036-4.11c-.085-1.326.104-1.831.516-2.937v-.001l.083-.215c.143-.368.303-.782.448-1.27.444-1.412.642-2.895.587-4.379a22.94 22.94 0 00-.918-.97zm-6.194 8.523a7.46 7.46 0 01-3.696 1.41 11.36 11.36 0 00-1.38.268 9.452 9.452 0 00-4.907 2.819 18.798 18.798 0 01-.409-.81 10.252 10.252 0 015.151-2.874c.53-.114.977-.187 1.374-.252l.05-.008a6.766 6.766 0 003.354-1.27c1.625-1.202 2.728-3.028 3.066-5.076a8.122 8.122 0 00-1.265-5.853c-.097-.15-.205-.289-.311-.426l-.045-.057c.545.271 1.065.557 1.567.854a9.065 9.065 0 01.785 6.137c-.465 2.077-1.644 3.905-3.313 5.138h-.021zm-11.984-.847c.253-.2.513-.394.776-.572l.712-.494-.494-.743A8.128 8.128 0 017.44 23.1c.342-2.039 1.442-3.854 3.06-5.052a7.257 7.257 0 012.578-1.21 35.485 35.485 0 00-1.666-.335 7.98 7.98 0 00-1.396.828c-1.668 1.227-2.845 3.051-3.307 5.125a39.17 39.17 0 00.356 5.247c.234.613.535 1.195.897 1.735-.08.055-.16.113-.239.17-.097.07-.192.14-.284.201.058.22.112.436.164.643l.074.293zm1.688-14.387a9.657 9.657 0 00-2.553 2.815c.043-.557.09-1.117.14-1.678.419-.52.885-.998 1.391-1.426.413.044.822.089 1.232.145l-.21.144zM21.55 43.902l-.958-.824-.395 1.221a.672.672 0 01-.028.078c.263.1.526.197.793.29l.032-.085c.042.036.084.07.127.103l.08.064c.548.19 1.107.371 1.677.523l.089-.226-.538-.409a22.65 22.65 0 01-.88-.735zm-2.048-1.845a3.48 3.48 0 01-.038 2.035l-.136-.06a13.354 13.354 0 01-.59-.264c.16-.497.164-1.035.014-1.536-.15-.5-.448-.94-.85-1.253a2.33 2.33 0 00-1.394-.497 2.324 2.324 0 00-1.928.977 17.75 17.75 0 01-.655-.48c.07-.1.147-.197.227-.29l.054-.059.05-.048c.039-.045.08-.087.124-.126.06-.056.125-.108.189-.16l.053-.04.068-.049a3.106 3.106 0 011.882-.534c.665.03 1.305.277 1.83.704a3.35 3.35 0 011.1 1.68zm11.607 3.817a12.77 12.77 0 01-5.807-1.396 13.345 13.345 0 01-4.628-3.914 4.849 4.849 0 00-1.955-2.017 4.623 4.623 0 00-2.156-.582 4.614 4.614 0 00-2.175.502 4.826 4.826 0 00-1.72 1.476 13 13 0 00.427.378l.217.187c.247-.35.548-.657.89-.906a3.827 3.827 0 012.945-.69 3.94 3.94 0 012.79 2.075l.032.06.04.051c1.933 2.578 4.637 4.408 7.682 5.2 1.086.166 2.19.293 3.318.37.033-.233.063-.489.094-.744l.006-.05zm-4.422-15.723c.075-.17.16-.335.253-.494.516-1.312.83-2.7.933-4.115.258.391.496.797.712 1.214a14.852 14.852 0 01-.858 3.235l-.025.063-.032.06c-.077.13-.147.265-.21.404a4.272 4.272 0 00.319 4.004c.376.583.89 1.056 1.492 1.373a3.81 3.81 0 001.945.439c.028.293.053.583.078.88a4.569 4.569 0 01-2.268-.45 4.916 4.916 0 01-2.48-2.802 5.189 5.189 0 01.141-3.811zm2.652-1.75l-.203-.46-.092.52.295-.06zm-8.22 10.87c-.707-.92-1.032-1.342-2.175-1.93a5.72 5.72 0 00-3.83-.364 5.924 5.924 0 00-3.24 2.157 7.195 7.195 0 01-.562-.635l-.012-.015a6.729 6.729 0 013.702-2.387 6.508 6.508 0 014.33.46 6.26 6.26 0 012.463 2.176l.048.062c.255.33.541.7.91 1.134a11.174 11.174 0 003.865 2.914c1.475.67 3.071.998 4.679.963-.017.28-.04.559-.065.84l-.003.036a11.568 11.568 0 01-4.993-1.054 12.03 12.03 0 01-4.124-3.12 26.839 26.839 0 01-.986-1.23l-.006-.007zm-7.372-3.62a7.166 7.166 0 015.6.051l.195.082.06.034h.019l.06.026.242.137a7.082 7.082 0 012.432 2.228l.147.193c.224.295.478.628.785.973a10.42 10.42 0 003.64 2.736 10.02 10.02 0 004.406.881c.02-.294.034-.588.043-.88a9.209 9.209 0 01-4.093-.79 9.576 9.576 0 01-3.383-2.53c-.242-.29-.455-.555-.646-.794l-.258-.32a7.916 7.916 0 00-2.688-2.455v-.022l-.356-.17-.3-.123a8.061 8.061 0 00-5.028-.43 8.317 8.317 0 00-4.356 2.658c.164.249.332.494.506.743a7.495 7.495 0 012.973-2.228zm4.115-12.319a.578.578 0 01.057.179c.024.107.04.216.047.327.028.108.042.216.042.323v.653a2.058 2.058 0 00-.028.216 3.703 3.703 0 01-.207.724l-.042.096-.043.097-.05.096-.05.093-.053.093c-.11.182-.236.353-.378.509l-.074.078a1.921 1.921 0 01-.15.148l-.025.023-.064.055-.085.071-.079.06-.117.081-.068.045-.07.04a3.127 3.127 0 01-1.78.424h-.136a3.126 3.126 0 01-.687-.156l-.242-.097a5.09 5.09 0 01-.314-.163l-.074-.048a.487.487 0 01-.072-.049l-.074-.048a2.006 2.006 0 01-.14-.108l-.046-.033-.053-.048-.078-.07-.075-.071a2.159 2.159 0 01-.196-.212l-.06-.07-.036-.049a1.94 1.94 0 01-.094-.127l-.02-.028-.014-.02a3.457 3.457 0 01-.538-2.402c.014-.06.023-.12.029-.182.047-.257.124-.506.231-.743a3.356 3.356 0 01.51-.824 4.336 4.336 0 01.295-.305l.17-.13.086-.063c.283-.212.598-.371.933-.471.069-.023.136-.041.203-.056a2.593 2.593 0 01.836-.067c.21.008.417.04.62.093a3.205 3.205 0 011.844 1.318c.142.2.261.418.356.646l.053.152zm-.655 1.311c.004-.059.004-.119 0-.178l-.017-.033v-.164a2.49 2.49 0 00-.42-1.192 2.384 2.384 0 00-.936-.814 2.256 2.256 0 00-2.34.22 2.411 2.411 0 00-.776.977c-.054.12-.098.244-.132.371l-.021.074c-.058.26-.077.526-.057.791.032.451.18.885.427 1.256l.036.044.053.045.064.081.022.026.07.082.022.022.079.078h.017c.117.11.245.208.381.29h.032l.086.048h.032l.043.034.042.018h.018a2.265 2.265 0 001.563.082c.163-.045.322-.107.473-.186l.068-.037.085-.052.125-.081h.025c.295-.22.538-.505.712-.836l.068-.141.028-.07.029-.071a.381.381 0 00.046-.134v-.03l.032-.126v-.04l.021-.116v-.238zM55.585 4.527l-.103-.542c-.27.122-.538.245-.801.371l.904.17zm17.975 13.84a50.641 50.641 0 002.09-1.823 21.2 21.2 0 005.102-7.36A22.003 22.003 0 0082.435.27l1.527.119a23.66 23.66 0 01-1.837 9.502 22.797 22.797 0 01-5.454 7.848 48.575 48.575 0 01-2.136 1.875l-.048.04c-1.576 1.328-2.319 1.954-3.34 4.112a11.757 11.757 0 00-.67 7.314c.563 2.448 1.894 4.63 3.78 6.2-.372.393-.753.765-1.142 1.114-2.092-1.81-3.555-4.289-4.162-7.053a13.424 13.424 0 01.801-8.24v-.044c1.182-2.495 2.114-3.275 3.804-4.689l.002-.002zM68.757 3.91c-.8 1.808-2.257 3.21-4.049 3.9a6.932 6.932 0 01-6.218-.624l-.1-.063-.11-.049a24.467 24.467 0 00-5.646-1.637c-.74.423-1.453.871-2.136 1.344 2.47.189 4.898.783 7.191 1.76a8.408 8.408 0 007.541.753c2.174-.835 3.94-2.537 4.912-4.73a9.444 9.444 0 00.783-4.308c-.512.045-1.021.093-1.527.149a7.81 7.81 0 01-.64 3.505zM50.411 20.44c-2.822-.503-5.72.179-8.063 1.897l.007-.015-.27.2c-2.288 1.777-3.811 4.423-4.239 7.364-.427 2.941.276 5.94 1.957 8.343 1.68 2.403 4.203 4.017 7.018 4.49 2.816.474 5.697-.232 8.016-1.962.11-.082.22-.164.331-.253-.299-.69-.573-1.4-.819-2.117a8.476 8.476 0 01-6.244 2.25 8.55 8.55 0 01-5.302-2.273 9.218 9.218 0 01-2.81-5.212 9.458 9.458 0 01.891-5.906c.926-1.808 2.408-3.238 4.209-4.059a8.402 8.402 0 015.715-.465c1.9.52 3.578 1.694 4.76 3.33a9.38 9.38 0 011.758 5.692c.609 4.616 2.44 8.963 5.29 12.552-.506.178-1.04.349-1.574.508-2.81-3.72-4.617-8.156-5.237-12.849v-.241a9.335 9.335 0 00-.028-.847 7.673 7.673 0 00-1.88-4.414 7.126 7.126 0 00-4.067-2.309 6.946 6.946 0 00-4.575.75 7.39 7.39 0 00-3.193 3.498 7.813 7.813 0 00-.492 4.803 7.575 7.575 0 002.411 4.124 7.038 7.038 0 004.32 1.741 6.994 6.994 0 005.044-1.857l1.695-1.553.762 2.229c.231.675.491 1.351.776 2.005l.498 1.155-.968.769c-.125.1-.253.196-.377.29a12.015 12.015 0 01-6.517 2.348 11.935 11.935 0 01-6.707-1.663 12.643 12.643 0 01-4.806-5.157 13.342 13.342 0 01-1.405-7.04 65.831 65.831 0 011.844-5.868 12.592 12.592 0 014.327-4.336 11.96 11.96 0 015.776-1.695c2.029-.061 4.041.401 5.859 1.346A12.5 12.5 0 0158.66 24.1l.028.037c1.473 2.309 1.655 3.549 1.982 5.774l.001.005c.114.794.253 1.682.47 2.796.758 3.803 2.506 7.315 5.052 10.15a40.25 40.25 0 01-1.506.653c-2.531-2.974-4.272-6.587-5.048-10.48-.214-1.083-.347-1.977-.464-2.762l-.017-.116-.012-.08c-.316-2.084-.463-3.061-1.736-5.052-1.66-2.433-4.177-4.082-7-4.585zm26.353.04a8.362 8.362 0 00-.836.543c-1.892 1.395-3.176 3.516-3.568 5.898a9.424 9.424 0 001.474 6.802 8.836 8.836 0 001.844 1.994c.335-.397.666-.81.987-1.233a7.424 7.424 0 01-2.163-2.692 7.76 7.76 0 01-.748-3.424 7.749 7.749 0 01.83-3.403 7.4 7.4 0 012.917-3.084l.103-.06.097-.078c4.501-3.652 7.707-8.765 9.11-14.531.299-2.09.527-4.23.68-6.402L86.067.62a26.057 26.057 0 01-2.449 11.053 24.98 24.98 0 01-6.854 8.807zm5.843-1.67c.441-.546.868-1.118 1.27-1.698l.713-1.04.398.175a74.486 74.486 0 01-.922 3.212l-.288.372.15.059c-.117.397-.256.792-.392 1.181v.001l-.114.326-.135-.052-2.136-.743 1.456-1.794zm-27.634-7.298c1.018.371 1.83.683 2.556.977 2.018.82 3.13 1.27 5.788 1.092h.047c2.142-.208 4.195-1 5.952-2.295a12.801 12.801 0 003.994-4.913A13.403 13.403 0 0074.535.059c-.395 0-.787.022-1.18.044l-.35.02c.1 1.913-.267 3.822-1.067 5.548a11.225 11.225 0 01-3.505 4.319 10.52 10.52 0 01-5.215 2.005c-2.317.16-3.204-.2-5.133-.984-.738-.301-1.574-.639-2.632-1.007a20.886 20.886 0 00-7.58-1.114 23.982 23.982 0 00-1.708 1.742c2.962-.39 5.97-.09 8.808.88zm8.569 17.94c.11.762.238 1.623.441 2.652.712 3.562 2.432 6.82 4.938 9.35-.475.273-.95.533-1.424.78-2.536-2.7-4.276-6.102-5.016-9.803a53.056 53.056 0 01-.456-2.73c-.324-2.198-.559-3.78-2.218-6.38l-.018-.026c-2.1-3.095-5.292-5.195-8.875-5.84-3.583-.646-7.264.217-10.239 2.398a13.37 13.37 0 00-.833.668c.473-1.03.969-2.02 1.488-2.97a14.715 14.715 0 0110.736-1.486c3.632.89 6.826 3.135 8.98 6.313l.029.041c1.822 2.837 2.1 4.649 2.446 6.9l.02.134zM33.765 45.904c0 .115 0 .23-.028.345l.384.052a3.057 3.057 0 01-.356-.397zm.516-4.146c.048.076.096.153.148.228a17.488 17.488 0 004.923 4.861 79.824 79.824 0 01-2.937-.264 19.1 19.1 0 01-2.492-2.648c.075-.787.157-1.567.253-2.343.036.055.07.11.105.166zM58.59 43.72l-.869-1.363-1.296.94a13.368 13.368 0 01-6.156 2.468 13.173 13.173 0 01-6.548-.818 13.705 13.705 0 01-5.423-3.916 14.512 14.512 0 01-3.04-6.105 76.86 76.86 0 00-.581 3.153c.401.931.887 1.82 1.449 2.655 2.146 3.179 5.336 5.425 8.964 6.313a63.962 63.962 0 009.185-.742 15.357 15.357 0 003.03-1.705c.213.337.434.671.662 1.003.548-.126 1.09-.256 1.623-.398-.349-.475-.687-.969-1-1.485zm-5.054-15.39c.02.034.042.069.059.101a.856.856 0 00.093.134 6.352 6.352 0 01.74 3.38l-.01.095a1.237 1.237 0 00-.015.16 6.503 6.503 0 01-.43 1.736l-.015.04c-.082.203-.177.4-.285.59-.025.048-.05.097-.078.145l-.085.137-.09.141c-.056.09-.12.179-.184.268l-.065.082-.022.03c-.018.025-.036.05-.056.074l-.121.148-.128.145a5.182 5.182 0 01-.477.479l-.082.074c-.1.082-.2.164-.306.238a5.574 5.574 0 01-4.201 1.04 5.618 5.618 0 01-1.595-.494 3.262 3.262 0 01-.356-.178 6.624 6.624 0 01-.64-.42 7.285 7.285 0 01-.446-.372 6.287 6.287 0 01-.406-.415l-.028-.032a2.286 2.286 0 01-.1-.117c-.082-.1-.2-.256-.238-.308a6.128 6.128 0 01-.936-1.939 3.47 3.47 0 01-.097-.371 6.072 6.072 0 01-.139-1.593c.018-.398.072-.794.16-1.181a6.126 6.126 0 012.311-3.543 5.65 5.65 0 011.129-.65l.267-.104c.089-.036.184-.067.276-.097l.033-.01c.196-.056.367-.104.552-.141.187-.047.378-.076.57-.086.191-.018.384-.026.577-.022a4.901 4.901 0 01.929.089c.31.057.617.14.915.249.124.044.242.089.356.14l.174.079.17.085.168.093.164.097.16.1c.32.208.618.45.89.72a4.81 4.81 0 01.395.423l.043.049.096.126c.043.052.082.104.121.16l.107.148.02.03c.04.061.082.125.119.19l.021.033.016.026zm-1.009 5.022a.065.065 0 010-.037l.01-.011a4.635 4.635 0 00.21-2.945 4.64 4.64 0 00-.327-.9l-.064-.13-.01-.018a2.102 2.102 0 00-.079-.145 7.91 7.91 0 00-.142-.233l-.029-.049a4.415 4.415 0 00-1.463-1.344 5.272 5.272 0 00-.25-.13l-.241-.108h-.015a1.83 1.83 0 00-.238-.085h-.046l-.221-.063h-.075l-.2-.041h-.102l-.171-.026h-.858a4.193 4.193 0 00-2.091.801 4.448 4.448 0 00-1.426 1.785 4.657 4.657 0 00.391 4.47 4.35 4.35 0 001.705 1.485c.216.105.44.19.67.253a4.1 4.1 0 001.935.08 4.18 4.18 0 001.657-.734h.017l.082-.063.104-.085.142-.123.046-.04.035-.033c.036-.034.072-.069.104-.105l.04-.037c.046-.049.092-.097.135-.149l.028-.033c.192-.23.363-.479.51-.743l.031-.056.086-.17.028-.056.046-.1a.203.203 0 00.036-.082zm25.11-9.808a6.132 6.132 0 00-2.363 3.844 6.317 6.317 0 00.856 4.478l.086.13v.023l.075.104a4.752 4.752 0 00.494.612l.086.09.107.103c.16.156.328.302.505.435.285-.405.563-.82.837-1.248a4.572 4.572 0 01-1.604-2.643 4.72 4.72 0 01.413-3.098 4.426 4.426 0 012.234-2.086 4.19 4.19 0 012.998-.087c.089-.219.173-.44.258-.662.094-.248.19-.498.293-.749a5.599 5.599 0 00-2.725-.289 5.688 5.688 0 00-2.55 1.043zM66.114 2.63A4.45 4.45 0 0066.5.802a63.416 63.416 0 011.53-.226 6.187 6.187 0 01-.989 3.602c-.179.27-.376.527-.591.769-.263.289-.553.55-.865.78l-.04.03-.127.088-.11.078-.136.082-.107.063c-.043.026-.085.052-.132.074l-.085.049c-.132.07-.267.133-.402.193l-.153.063a.491.491 0 01-.15.056l-.153.055-.306.093-.313.074-.15.03c-.27.05-.542.08-.815.09h-.153a5.756 5.756 0 01-1.424-.175l-.182-.049a5.759 5.759 0 01-1.67-.798l-.1-.067-.206-.156a6.721 6.721 0 01-.38-.33l-.04-.038-.03-.028c-.029-.026-.057-.053-.084-.083l-.06-.063-.16-.167-.16-.193-.022-.026-.121-.156-.032-.045a5.91 5.91 0 01-.648-1.103c.232-.081.466-.17.701-.26.249-.095.5-.19.752-.278.088.177.188.349.298.512l.04.052.17.23.09.12.138.152.093.1.26.241c.073.065.152.124.229.182l.049.037h.02c.391.282.823.495 1.279.632l.132.037h.025l.217.048h.21a4.135 4.135 0 002.442-.394l.207-.107.032-.019.174-.108.103-.07.096-.067a4.447 4.447 0 001.424-1.779z" fill="url(#paint10_linear_303_87)"/><defs><linearGradient id="paint5_linear_303_87" x1="17.365" y1="64.824" x2="22.861" y2="65.542" gradientUnits="userSpaceOnUse"><stop stop-color="#AEC7CB"/><stop offset="0" stop-color="#8AA7AB"/><stop offset="1" stop-color="#D1E0C3"/></linearGradient><linearGradient id="paint0_linear_303_87" x1="32.902" y1="64.492" x2="48.51" y2="70.979" gradientUnits="userSpaceOnUse"><stop stop-color="#AEC7CB"/><stop offset="0" stop-color="#8AA7AB"/><stop offset="1" stop-color="#D1E0C3"/></linearGradient><linearGradient id="paint2_linear_303_87" x1="22.598" y1="60.501" x2="34.953" y2="63.245" gradientUnits="userSpaceOnUse"><stop stop-color="#AEC7CB"/><stop offset="0" stop-color="#8AA7AB"/><stop offset="1" stop-color="#D1E0C3"/></linearGradient><linearGradient id="paint3_linear_303_87" x1="54.423" y1="64.823" x2="59.929" y2="65.544" gradientUnits="userSpaceOnUse"><stop stop-color="#AEC7CB"/><stop offset="0" stop-color="#8AA7AB"/><stop offset="1" stop-color="#D1E0C3"/></linearGradient><linearGradient id="paint4_linear_303_87" x1="54.182" y1="59.961" x2="59.55" y2="62.104" gradientUnits="userSpaceOnUse"><stop stop-color="#AEC7CB"/><stop offset="0" stop-color="#8AA7AB"/><stop offset="1" stop-color="#D1E0C3"/></linearGradient><linearGradient id="paint1_linear_303_87" x1="-.709" y1="59.701" x2="19.652" y2="67.452" gradientUnits="userSpaceOnUse"><stop stop-color="#AEC7CB"/><stop offset="0" stop-color="#8AA7AB"/><stop offset="1" stop-color="#D1E0C3"/></linearGradient><linearGradient id="paint6_linear_303_87" x1="17.125" y1="59.961" x2="22.494" y2="62.104" gradientUnits="userSpaceOnUse"><stop stop-color="#AEC7CB"/><stop offset="0" stop-color="#8AA7AB"/><stop offset="1" stop-color="#D1E0C3"/></linearGradient><linearGradient id="paint7_linear_303_87" x1="48.336" y1="59.334" x2="53.889" y2="59.831" gradientUnits="userSpaceOnUse"><stop stop-color="#AEC7CB"/><stop offset="0" stop-color="#8AA7AB"/><stop offset="1" stop-color="#D1E0C3"/></linearGradient><linearGradient id="paint8_linear_303_87" x1="59.973" y1="64.105" x2="74.581" y2="69.437" gradientUnits="userSpaceOnUse"><stop stop-color="#AEC7CB"/><stop offset="0" stop-color="#8AA7AB"/><stop offset="1" stop-color="#D1E0C3"/></linearGradient><linearGradient id="paint9_linear_303_87" x1="72.875" y1="64.105" x2="87.488" y2="69.442" gradientUnits="userSpaceOnUse"><stop stop-color="#AEC7CB"/><stop offset="0" stop-color="#8AA7AB"/><stop offset="1" stop-color="#D1E0C3"/></linearGradient><linearGradient id="paint10_linear_303_87" x1="3.301" y1="0" x2="81.114" y2="51.608" gradientUnits="userSpaceOnUse"><stop stop-color="#AEC7CB"/><stop offset="0" stop-color="#8AA7AB"/><stop offset="1" stop-color="#D1E0C3"/></linearGradient></defs></svg>