<svg width="90" height="82" fill="none" xmlns="http://www.w3.org/2000/svg"><path d="M48.666 78.34c-.045 0-.09 0-.11.025a.413.413 0 01-.068.15.587.587 0 01-.21.202.557.557 0 01-.278.071c-.465 0-.888-.696-1.198-2.017l-1.243-5.043c-.553-2.288-2.041-3.434-4.416-3.434a5.483 5.483 0 00-3.217.928v1.353c.423-.106.996-.333 1.63-.333.976 0 1.597.597 1.887 1.916l.344 1.437a4.072 4.072 0 00-1.73-.324c-3.018 0-4.95 1.543-4.95 3.908 0 2.315 1.932 3.981 4.616 3.981 1.177 0 2.576-.421 3.24-.97.179-.123.267-.22.312-.249a.349.349 0 01.11-.048c.067 0 .089.024.133.075l.222.246c.577.624 1.331.922 2.307.922 1.69 0 2.908-.946 2.908-2.264 0-.377-.089-.531-.29-.531zm-7.5.882c-1.154 0-2.02-.996-2.02-2.314 0-1.219.777-2.116 1.82-2.116.437-.005.864.135 1.22.399l.5 2.189c.044.179.067.363.067.549-.01.74-.678 1.293-1.587 1.293zM14.944 63.264L10.45 76.18c-.066.2-.178.324-.288.324-.11 0-.211-.1-.266-.25L5.473 63.265H0l6.678 17.522c.088.3.177.372.488.372h3.611c.332 0 .355-.024.465-.348l6.395-17.546h-2.693zM33.176 68.313c.133 0 .222.075.222.15-.01.084-.025.167-.044.25l-.39 1.119a.457.457 0 01-.176.248.426.426 0 01-.288.074h-2.008c-.221 0-.289.101-.289.374v7.226c0 1.02.334 1.444 1.088 1.444a2.31 2.31 0 001.42-.573c.311-.25.533-.399.666-.399a.569.569 0 01.401.192.62.62 0 01.155.456c0 1.168-2.325 2.288-4.725 2.288-2.13 0-3.242-.685-3.242-1.88v-8.754c0-.249-.112-.374-.31-.374h-1a.45.45 0 01-.379-.123.486.486 0 01-.152-.382c0-.126.03-.476.634-.882 1.765-1.047 3.143-2.596 4.187-4.142.266-.372.465-.522.71-.522a.592.592 0 01.406.212.643.643 0 01.147.45v3.526l2.967.022zM61.511 69.014c-.044-.275-.11-.374-.31-.374a.372.372 0 00-.222.05l-3.157 1.275a.853.853 0 00-.39.323.908.908 0 00-.147.496v10.36h4.237v-2.728c0-.137-.01-.291-.01-.46v-8.942zM60.731 63.572c-1.245-.255-2.922.882-3.529 2.394-.048.13-.087.263-.114.4-.165.88.226 1.529 1.031 1.694.731.15 1.792-.238 2.561-.987a3.556 3.556 0 001.038-1.786c.177-.901-.224-1.556-.987-1.715zM22.629 69.015c-.045-.276-.11-.375-.31-.375a.372.372 0 00-.212.05l-3.17 1.275a.852.852 0 00-.39.323.91.91 0 00-.147.497v10.36h4.227V69.021l.002-.006zM21.848 63.572c-1.245-.255-2.92.882-3.53 2.394-.048.13-.086.263-.114.4-.162.88.226 1.529 1.032 1.694.73.15 1.792-.238 2.56-.987a3.556 3.556 0 001.038-1.786c.18-.901-.221-1.556-.986-1.715zM55.131 78.462v-15.21c-.044-.297-.088-.372-.29-.372a.755.755 0 00-.242.024l-3.17 1.303a.854.854 0 00-.387.324.909.909 0 00-.145.494v16.122h4.226l.008-2.685zM74.35 73.65a8.258 8.258 0 00-2.466-1.128l-2.69-.748c-1.13-.321-1.41-.54-1.441-1.102-.036-.6.492-1.08 1.289-1.13 1.418-.09 3.286.68 4.649 1.933.283.297.511.388.689.377a.451.451 0 00.322-.163.494.494 0 00.117-.353v-.038a1.269 1.269 0 00-.255-.56c-1.393-2.034-4.782-2.978-6.904-2.84-2.57.162-4.32 1.798-4.195 3.916.07 1.177.706 2.16 1.856 2.822.67.44 1.284.679 2.468 1.128l1.589.556c1.633.577 2.147.992 2.193 1.777.047.784-.543 1.373-1.494 1.434-.95.062-2.747-.52-4.198-1.576a7.087 7.087 0 01-1.042-.978c-.385-.474-.594-.618-.846-.602-.287.018-.47.317-.45.661.018.235.09.463.212.662l.162.273c1.452 2.13 4.31 2.828 4.31 2.828 1.121.249 2.267.36 3.414.333 2.635-.168 4.48-2.097 4.336-4.53a3.868 3.868 0 00-.472-1.68 3.687 3.687 0 00-1.153-1.272zM87.887 73.65a8.258 8.258 0 00-2.466-1.128l-2.69-.748c-1.13-.321-1.41-.54-1.441-1.102-.036-.6.492-1.08 1.289-1.13 1.418-.09 3.286.68 4.649 1.933.283.297.511.388.689.377a.451.451 0 00.322-.163.494.494 0 00.117-.353v-.038a1.268 1.268 0 00-.255-.56c-1.393-2.034-4.782-2.978-6.904-2.84-2.57.162-4.317 1.798-4.195 3.916.07 1.177.706 2.16 1.856 2.822.67.44 1.284.679 2.468 1.128l1.589.556c1.633.577 2.147.992 2.193 1.777.047.784-.543 1.373-1.494 1.434-.95.062-2.747-.52-4.199-1.576a7.087 7.087 0 01-1.041-.978c-.385-.474-.594-.618-.846-.602-.287.018-.469.317-.45.661.019.235.091.462.212.662l.162.273c1.452 2.13 4.31 2.828 4.31 2.828 1.123.25 2.271.361 3.42.333 2.635-.168 4.48-2.097 4.337-4.53a3.867 3.867 0 00-.476-1.68 3.684 3.684 0 00-1.156-1.272z" fill="#FEFEFE"/><path fill-rule="evenodd" clip-rule="evenodd" d="M65.32 15.657a14.065 14.065 0 006.2-2.58 14.93 14.93 0 004.658-5.722A15.633 15.633 0 0077.613 0h1.61a17.368 17.368 0 01-1.621 8.11 16.589 16.589 0 01-5.148 6.308 15.595 15.595 0 01-6.892 2.856v.047l-.866.062-.747.066v-.027c-3.016.092-4.713-.587-6.62-1.35l-.105-.041-.052-.02a49.607 49.607 0 00-2.488-.95 17.586 17.586 0 00-11.319-.04 34.217 34.217 0 011.562-2.162 19.052 19.052 0 0110.265.604c.959.328 1.746.646 2.443.927l.116.047.056.024c1.872.76 3.351 1.36 6.085 1.274H64.823l.496-.078zm4.197 19.662c-1.36-3.6-1.326-7.61.094-11.183l.157-.39.056-.117v-.066l.052-.121.25-.48c1.296-2.517 2.533-3.55 4.11-4.858l.138-.117h.001v-.001a52.008 52.008 0 001.997-1.745 20.763 20.763 0 005.029-7.268A21.552 21.552 0 0083.025.17a74.548 74.548 0 00-1.614-.082 19.818 19.818 0 01-1.457 8.159 19.094 19.094 0 01-4.639 6.742c-.777.721-1.46 1.294-2.073 1.804-1.633 1.364-3.056 2.56-4.505 5.37l-.041-.02-.314.74-.28.597h.03a17.402 17.402 0 00-.813 10.049c.727 3.357 2.429 6.398 4.873 8.71.46-.324.908-.659 1.337-1.006a14.954 14.954 0 01-4.012-5.915zM5.637 16.756l-.22.222a4.94 4.94 0 00.012-.097c.005-.044.01-.087.017-.125h.19zm8.366 14.14a4.515 4.515 0 01-.56 0 13.544 13.544 0 00-6.926 3.141 24.73 24.73 0 01-.277-.939 14.363 14.363 0 017.098-3.148h.134c.155.011.31.011.464 0a4.068 4.068 0 002.473-1.167 4.386 4.386 0 001.25-2.513 4.479 4.479 0 00-.51-2.782 4.2 4.2 0 00-2.05-1.854 3.982 3.982 0 00-2.712-.133 4.153 4.153 0 00-2.208 1.647 4.457 4.457 0 00-.756 2.72c.048.97.407 1.894 1.02 2.624l.859 1.017-1.236.468c-.355.14-.729.296-1.102.463l-.64.3-.425-.58-.043-.06a7.613 7.613 0 01-1.41-4.077 7.662 7.662 0 01.918-4.025 7.246 7.246 0 012.845-2.883 6.852 6.852 0 013.883-.84c1.121.323 2.2.713 3.236 1.103a7.138 7.138 0 012.04 2.053 7.656 7.656 0 011.2 5.523c-.318 1.934-1.358 3.657-2.893 4.792h-.023c-1.273.884-1.95.994-3.182 1.192l-.205.034h-.002c-.38.062-.826.135-1.336.247a11.498 11.498 0 00-5.603 3.031c-.139-.296-.258-.6-.374-.907a12.36 12.36 0 015.779-3.024 26.04 26.04 0 011.588-.289l.042-.007c1.15-.186 1.678-.27 2.786-1.04a6.462 6.462 0 002.215-2.976c.441-1.199.531-2.506.26-3.758a6.565 6.565 0 00-1.786-3.275 6.132 6.132 0 00-3.229-1.689 5.989 5.989 0 00-3.584.466 6.307 6.307 0 00-2.732 2.464 6.704 6.704 0 00-.961 3.632 6.681 6.681 0 001.135 3.576l.142.2c.38-.18.792-.344 1.165-.492a5.365 5.365 0 01-.332-.44 5.404 5.404 0 01-.91-3.232 5.372 5.372 0 011.164-3.142 4.995 4.995 0 012.757-1.754 4.835 4.835 0 013.211.358 5.123 5.123 0 012.339 2.323 5.44 5.44 0 01.5 3.328 5.309 5.309 0 01-1.545 2.958 4.93 4.93 0 01-2.951 1.366zm14.474.172h-.026l-.086.074-.104.098-.094.094-.034.035-.063.07v.023a3.647 3.647 0 00-.183.23l-.086.125-.037.058a3.49 3.49 0 00-.437 1.002.153.153 0 01-.03.109 3.614 3.614 0 00-.094.85v.089c.007.164.024.328.049.49a.146.146 0 000 .087c.019.062.033.126.041.19 0 .04.014.078.027.117a.652.652 0 01.022.067c.008.03.017.06.03.09l.04.104.034.09c.034.082.067.164.108.242a.212.212 0 00.027.05.508.508 0 00.04.078l.034.066.045.082.045.067c.014.026.03.05.049.074v.03c.125.188.27.362.43.519.133.13.276.249.425.358a3.2 3.2 0 001.972.596 36.482 36.482 0 00-.123-.919c-.125 0-.25-.011-.373-.031a2.47 2.47 0 01-1.592-1.072l-.033-.054-.041-.063-.075-.113a2.667 2.667 0 01-.291-1.005 2.517 2.517 0 010-.58v-.125a.744.744 0 01.026-.133v-.082c.074-.277.191-.54.347-.779a2.054 2.054 0 01.199-.26l.021-.022.019-.022a.346.346 0 00.052-.054l.086-.082.06-.055.127-.101c.09-.066.183-.126.28-.18a29.466 29.466 0 00-.295-.872 3.158 3.158 0 00-.5.304l-.038.047zm-6.668 4.096l-.022-.483-.015-.448a8.834 8.834 0 01.747-3.838v-.016c.154-.405.322-.865.5-1.422.664-2.101.67-4.368.02-6.473a45.3 45.3 0 011.12.896 11.86 11.86 0 01-.306 5.912 30.328 30.328 0 01-.516 1.461v.031a7.932 7.932 0 00-.68 3.449v.526l.042.284c.289 2.026 1.29 3.866 2.81 5.163a7.686 7.686 0 005.408 1.851v.92a8.547 8.547 0 01-5.984-2.082c-1.679-1.444-2.784-3.486-3.101-5.731h-.023zm3.28-10.958a12.609 12.609 0 01-.5 5.303c-.19.612-.374 1.099-.538 1.532-.452 1.211-.699 1.882-.601 3.475v.028c.17 1.908 1.045 3.674 2.438 4.924a6.914 6.914 0 005.033 1.778c0-.233-.013-.465-.026-.696l-.012-.224a6.051 6.051 0 01-4.408-1.555 6.575 6.575 0 01-2.136-4.313c-.09-1.39.108-1.92.54-3.081l.001-.001.087-.226c.15-.386.317-.82.47-1.333.465-1.481.674-3.037.616-4.594a24.167 24.167 0 00-.963-1.017zm-6.498 8.943a7.829 7.829 0 01-3.878 1.48c-.426.051-.9.145-1.45.281a9.92 9.92 0 00-5.147 2.958 19.72 19.72 0 01-.43-.85 10.758 10.758 0 015.406-3.016c.555-.12 1.025-.196 1.441-.264l.053-.008a7.099 7.099 0 003.52-1.333c1.705-1.262 2.862-3.177 3.216-5.327a8.523 8.523 0 00-1.327-6.141 6.254 6.254 0 00-.327-.447l-.046-.06c.571.285 1.117.585 1.643.897a9.512 9.512 0 01.825 6.44c-.489 2.179-1.726 4.097-3.477 5.39h-.022zM6.016 32.26c.265-.21.538-.413.814-.6l.748-.518-.52-.78a8.529 8.529 0 01-1.291-6.124c.36-2.139 1.513-4.044 3.211-5.3a7.614 7.614 0 012.705-1.27 37.298 37.298 0 00-1.748-.351 8.364 8.364 0 00-1.465.869c-1.75 1.287-2.985 3.2-3.47 5.377a41.1 41.1 0 00.374 5.506 9.04 9.04 0 00.94 1.82c-.083.057-.167.118-.25.178-.102.075-.202.147-.298.211a82.955 82.955 0 01.25.982zm1.771-15.095a10.133 10.133 0 00-2.678 2.953c.044-.584.093-1.173.145-1.761.44-.546.93-1.047 1.46-1.496.434.046.864.093 1.293.152l-.22.151zm12.787 28.902l-1.005-.865-.415 1.282a.714.714 0 01-.03.082c.277.105.553.206.833.304l.034-.09c.043.038.088.073.132.108l.084.068c.576.198 1.162.39 1.76.549l.093-.238-.564-.428a23.73 23.73 0 01-.922-.772zm-2.149-1.936a3.65 3.65 0 01-.04 2.134l-.143-.062a14.005 14.005 0 01-.619-.277 2.726 2.726 0 00.015-1.612A2.62 2.62 0 0016.745 43a2.444 2.444 0 00-1.462-.521 2.439 2.439 0 00-2.023 1.024 18.727 18.727 0 01-.687-.502c.074-.106.154-.208.239-.304l.056-.063.052-.05c.04-.047.085-.092.13-.133.064-.058.131-.113.199-.167l.056-.043.07-.05a3.258 3.258 0 011.976-.56c.698.031 1.369.29 1.92.737a3.515 3.515 0 011.154 1.764zm12.178 4.005c-2.11.002-4.194-.5-6.092-1.465a14.002 14.002 0 01-4.857-4.107 5.087 5.087 0 00-2.05-2.117 4.84 4.84 0 00-4.545-.083c-.711.361-1.33.892-1.806 1.55.145.135.296.264.449.395l.227.197c.26-.368.575-.69.934-.951a4.016 4.016 0 013.091-.725 4.134 4.134 0 012.927 2.178l.034.063.04.054c2.03 2.705 4.868 4.625 8.062 5.455 1.14.176 2.298.308 3.482.39.035-.245.067-.514.098-.781l.006-.053zm-4.638-16.499c.079-.178.167-.35.265-.518.541-1.377.871-2.834.979-4.318.27.41.52.836.747 1.275a15.593 15.593 0 01-.9 3.394l-.027.066-.033.062a4.54 4.54 0 00-.22.425 4.482 4.482 0 00.334 4.2 4.2 4.2 0 001.566 1.442 3.996 3.996 0 002.04.46c.03.308.056.612.083.924a4.793 4.793 0 01-2.38-.472 5.158 5.158 0 01-2.602-2.94 5.445 5.445 0 01.148-4zm2.782-1.835l-.212-.483-.098.546.31-.063zm-8.625 11.404c-.743-.964-1.084-1.408-2.284-2.025a6.001 6.001 0 00-4.017-.381 6.217 6.217 0 00-3.402 2.263c-.222-.217-.402-.438-.588-.666l-.013-.016a7.06 7.06 0 013.884-2.505 6.828 6.828 0 014.543.483 6.567 6.567 0 012.585 2.283l.05.065c.268.346.569.735.955 1.19a11.724 11.724 0 004.056 3.058 11.274 11.274 0 004.91 1.01 36.22 36.22 0 01-.068.882l-.003.038c-1.803.027-3.59-.35-5.24-1.106a12.622 12.622 0 01-4.327-3.274c-.426-.51-.747-.9-1.035-1.29l-.006-.009zm-7.736-3.798a7.52 7.52 0 015.876.054l.205.086.064.035h.018l.064.027.254.145a7.431 7.431 0 012.551 2.338l.155.202c.235.309.5.659.824 1.021a10.937 10.937 0 003.82 2.87c1.457.656 3.035.972 4.623.925.02-.309.034-.616.044-.923a9.664 9.664 0 01-4.295-.829 10.05 10.05 0 01-3.55-2.655 56.376 56.376 0 01-.677-.833h-.001l-.002-.003-.002-.002a75.025 75.025 0 00-.266-.33 8.306 8.306 0 00-2.82-2.576v-.024l-.374-.179-.314-.129a8.458 8.458 0 00-5.277-.451 8.728 8.728 0 00-4.57 2.79c.172.26.347.518.53.779a7.864 7.864 0 013.12-2.338zm4.318-12.925c.03.058.05.121.06.187.025.112.041.227.049.342.03.115.045.228.045.34V26.038c-.014.074-.024.15-.03.225a3.892 3.892 0 01-.217.76l-.045.102-.045.1-.052.102-.052.097-.056.098c-.115.191-.248.37-.396.534l-.079.082c-.05.054-.102.106-.157.155l-.026.024-.067.058-.09.074-.082.063-.123.085-.071.047-.075.043a3.282 3.282 0 01-1.868.444h-.142a3.283 3.283 0 01-.72-.163l-.255-.102a5.283 5.283 0 01-.328-.171l-.079-.05a.5.5 0 01-.075-.052l-.078-.05a2.127 2.127 0 01-.146-.113l-.048-.035-.056-.05-.082-.075-.079-.074a2.275 2.275 0 01-.205-.222l-.064-.074-.037-.05a2.067 2.067 0 01-.1-.134l-.035-.05a3.626 3.626 0 01-.59-1.691 3.624 3.624 0 01.026-.83c.014-.063.024-.127.03-.191.05-.27.13-.531.243-.78a3.405 3.405 0 01.329-.596c.067-.093.134-.183.205-.268a4.603 4.603 0 01.31-.32l.18-.136.09-.066c.296-.223.627-.39.978-.495a2.37 2.37 0 01.213-.059 2.72 2.72 0 01.878-.07c.219.009.437.042.65.097.783.204 1.47.695 1.935 1.384.149.21.274.438.373.678l.056.16zm-.687 1.375a1.578 1.578 0 000-.187l-.019-.035v-.171a2.614 2.614 0 00-.44-1.251 2.5 2.5 0 00-.982-.855 2.367 2.367 0 00-2.455.231 2.53 2.53 0 00-.815 1.025 2.403 2.403 0 00-.138.39l-.022.078c-.06.272-.08.551-.06.83.033.473.188.928.448 1.317l.038.046.056.047.067.086.022.027.075.086.022.023.083.082h.018c.123.116.257.218.4.304h.034l.09.05h.033l.045.036.045.02h.018c.521.222 1.1.252 1.64.085.172-.047.338-.112.497-.195l.071-.039.09-.054.13-.086h.027c.309-.23.564-.53.747-.877l.07-.148.03-.074c.01-.024.021-.049.03-.074a.4.4 0 00.049-.14v-.031l.034-.133v-.043l.022-.12v-.25zM56.287 4.75l-.109-.57c-.284.13-.564.258-.84.39l.949.18zm18.858 14.523a53.176 53.176 0 002.193-1.913 22.244 22.244 0 005.355-7.723A23.09 23.09 0 0084.458.285l1.603.125c.05 3.429-.608 6.829-1.928 9.97a23.92 23.92 0 01-5.723 8.235 51.07 51.07 0 01-2.241 1.968l-.05.042c-1.654 1.393-2.434 2.05-3.506 4.314a12.337 12.337 0 00-.703 7.675c.592 2.569 1.988 4.858 3.968 6.505-.391.413-.791.803-1.2 1.17-2.195-1.9-3.73-4.501-4.367-7.401-.637-2.9-.342-5.939.841-8.646v-.047c1.24-2.618 2.218-3.436 3.992-4.92l.001-.002zm-5.037-15.17c-.84 1.897-2.369 3.368-4.249 4.09a7.274 7.274 0 01-6.524-.653l-.105-.067-.116-.05a25.675 25.675 0 00-5.924-1.719c-.777.445-1.525.915-2.242 1.41 2.593.199 5.14.822 7.546 1.848a8.823 8.823 0 007.913.79c2.28-.876 4.135-2.662 5.154-4.963a9.91 9.91 0 00.822-4.52c-.538.046-1.072.097-1.603.155a8.195 8.195 0 01-.672 3.679zM50.856 21.448c-2.961-.528-6.003.187-8.46 1.99l.007-.015-.284.21c-2.4 1.864-3.999 4.64-4.447 7.727-.449 3.086.289 6.232 2.053 8.753 1.763 2.522 4.41 4.215 7.364 4.712 2.954.497 5.977-.243 8.411-2.059.116-.086.232-.171.348-.265a30.42 30.42 0 01-.86-2.221 8.894 8.894 0 01-6.552 2.36 8.971 8.971 0 01-5.563-2.385 9.673 9.673 0 01-2.948-5.468 9.924 9.924 0 01.934-6.198c.971-1.897 2.527-3.398 4.417-4.259a8.816 8.816 0 015.996-.487c1.995.545 3.754 1.776 4.995 3.494a9.842 9.842 0 011.844 5.972c.64 4.844 2.562 9.405 5.551 13.17-.53.188-1.09.367-1.65.535-2.949-3.905-4.846-8.56-5.496-13.483v-.253a9.733 9.733 0 00-.03-.889 8.05 8.05 0 00-1.972-4.632 7.477 7.477 0 00-4.268-2.423 7.287 7.287 0 00-4.8.787 7.755 7.755 0 00-3.35 3.671 8.198 8.198 0 00-.517 5.04 7.949 7.949 0 002.53 4.327 7.385 7.385 0 004.532 1.827 7.338 7.338 0 005.294-1.949l1.778-1.629.8 2.338c.242.71.515 1.419.814 2.104l.523 1.212-1.016.807c-.131.105-.266.206-.396.304a12.608 12.608 0 01-6.838 2.465 12.524 12.524 0 01-7.038-1.746 13.268 13.268 0 01-5.043-5.41 14 14 0 01-1.474-7.389 69.1 69.1 0 011.935-6.157 13.212 13.212 0 014.54-4.549 12.55 12.55 0 016.06-1.779c2.13-.064 4.242.421 6.149 1.412a13.118 13.118 0 014.783 4.27l.03.038c1.546 2.422 1.737 3.724 2.08 6.059v.005c.12.834.266 1.765.494 2.934.795 3.99 2.63 7.675 5.3 10.65-.515.237-1.042.463-1.58.685-2.655-3.12-4.481-6.911-5.297-10.996-.224-1.136-.363-2.074-.486-2.898l-.018-.122-.013-.084c-.33-2.187-.486-3.212-1.821-5.301-1.743-2.553-4.383-4.283-7.345-4.812zm27.652.042a8.8 8.8 0 00-.877.57c-1.986 1.463-3.332 3.689-3.744 6.188a9.888 9.888 0 001.547 7.138 9.273 9.273 0 001.935 2.092c.351-.417.699-.85 1.035-1.293a7.79 7.79 0 01-2.269-2.825 8.142 8.142 0 01-.785-3.593 8.13 8.13 0 01.871-3.572 7.765 7.765 0 013.06-3.236l.11-.062.1-.082c4.724-3.832 8.088-9.197 9.56-15.248.313-2.194.552-4.438.713-6.718L88.27.651a27.343 27.343 0 01-2.57 11.598 26.214 26.214 0 01-7.192 9.241zm6.132-1.753c.463-.573.911-1.173 1.334-1.781l.747-1.091.418.183a78.206 78.206 0 01-.968 3.37l-.302.39.157.062c-.123.418-.268.832-.411 1.24l-.12.343-.142-.055-2.24-.78 1.527-1.881zM55.644 12.08c1.068.39 1.92.717 2.682 1.025 2.118.86 3.284 1.332 6.074 1.145h.049a12.565 12.565 0 006.246-2.408 13.432 13.432 0 004.19-5.155c.958-2.06 1.4-4.338 1.286-6.624-.414 0-.826.023-1.238.046l-.368.02a12.333 12.333 0 01-1.12 5.821 11.778 11.778 0 01-3.677 4.532 11.038 11.038 0 01-5.472 2.104c-2.432.168-3.362-.21-5.386-1.032h-.001a52.852 52.852 0 00-2.76-1.056 21.915 21.915 0 00-7.954-1.17 25.183 25.183 0 00-1.793 1.828 20.351 20.351 0 019.242.924zm8.99 18.824c.116.8.25 1.703.463 2.783.747 3.738 2.552 7.156 5.182 9.812-.498.285-.996.558-1.495.818-2.66-2.834-4.487-6.404-5.263-10.287a55.73 55.73 0 01-.478-2.864c-.34-2.307-.587-3.967-2.328-6.695l-.018-.027c-2.205-3.248-5.553-5.452-9.313-6.13-3.76-.676-7.623.229-10.743 2.517-.303.223-.59.456-.875.702a49.58 49.58 0 011.562-3.117 15.44 15.44 0 0111.264-1.559c3.812.934 7.163 3.29 9.424 6.624l.03.043c1.912 2.977 2.204 4.878 2.566 7.24l.022.14zM33.39 48.166c0 .121 0 .242-.03.363l.403.054a3.203 3.203 0 01-.373-.416zm.543-4.35c.05.08.1.16.154.24a18.35 18.35 0 005.167 5.1 83.614 83.614 0 01-3.082-.276 20.039 20.039 0 01-2.615-2.779 87.03 87.03 0 01.265-2.459c.038.058.074.116.11.174zm25.506 2.06l-.911-1.43-1.36.986a14.027 14.027 0 01-6.46 2.59 13.823 13.823 0 01-6.87-.859 14.38 14.38 0 01-5.691-4.108 15.228 15.228 0 01-3.19-6.406 80.471 80.471 0 00-.61 3.308c.422.977.93 1.91 1.52 2.786 2.253 3.335 5.6 5.693 9.407 6.625a67.112 67.112 0 009.638-.78A16.107 16.107 0 0058.09 46.8c.224.353.456.704.695 1.052a54.767 54.767 0 001.703-.417 21.448 21.448 0 01-1.05-1.559zm-5.304-16.148c.022.035.044.071.062.105.028.05.06.097.097.14.58 1.08.85 2.311.777 3.547-.002.033-.007.067-.011.1-.008.056-.015.112-.015.169a6.817 6.817 0 01-.45 1.821l-.017.041a5.2 5.2 0 01-.299.62c-.026.05-.052.101-.082.152l-.09.144-.093.148c-.06.093-.127.187-.194.28l-.067.086-.024.033a1.21 1.21 0 01-.059.076l-.127.156-.134.152a5.437 5.437 0 01-.374.39c-.04.039-.082.078-.127.113l-.086.078c-.104.085-.209.171-.32.25a5.848 5.848 0 01-4.409 1.09 5.89 5.89 0 01-1.674-.518 3.422 3.422 0 01-.373-.187 6.961 6.961 0 01-.672-.44 7.631 7.631 0 01-.467-.39 6.585 6.585 0 01-.456-.47c-.023-.025-.042-.046-.105-.122-.085-.106-.209-.27-.25-.324-.041-.055-.082-.109-.12-.167a6.432 6.432 0 01-.862-1.867 3.665 3.665 0 01-.101-.39 6.398 6.398 0 01-.146-1.672c.019-.417.075-.832.168-1.238a6.43 6.43 0 012.425-3.718 5.935 5.935 0 011.184-.682l.28-.109c.094-.038.193-.07.29-.102l.035-.01c.206-.06.385-.11.579-.149.196-.05.396-.08.598-.09.2-.019.403-.027.605-.023a5.167 5.167 0 01.975.094c.326.06.647.147.96.26.13.047.254.094.373.149l.184.081.179.09.175.098.172.1.168.106c.335.219.648.472.934.756a5.05 5.05 0 01.415.444l.045.05.1.133c.045.055.087.11.128.168l.112.156.02.03c.042.065.087.132.125.2l.023.035.016.027zm-1.058 5.268a.07.07 0 010-.038l.01-.012a4.863 4.863 0 00.221-3.09 4.87 4.87 0 00-.344-.943l-.067-.137-.01-.02c-.024-.046-.04-.08-.083-.151a8.348 8.348 0 00-.15-.246l-.03-.05a4.632 4.632 0 00-1.535-1.41 5.607 5.607 0 00-.261-.137l-.254-.113h-.015a1.928 1.928 0 00-.25-.09h-.05l-.23-.066h-.08l-.208-.043h-.109l-.179-.027h-.9a4.4 4.4 0 00-2.194.84 4.667 4.667 0 00-1.497 1.873 4.887 4.887 0 00.41 4.69 4.563 4.563 0 001.79 1.56c.226.11.461.198.703.264a4.301 4.301 0 002.03.084 4.388 4.388 0 001.739-.77h.018l.086-.066.109-.09.15-.128.048-.043.036-.034a1.75 1.75 0 00.11-.11l.04-.04c.049-.05.098-.1.142-.155l.03-.035c.202-.241.38-.502.534-.78l.034-.058.09-.18.03-.058.048-.105a.215.215 0 00.038-.086zm26.347-10.29c-1.296.958-2.184 2.404-2.479 4.033a6.63 6.63 0 00.9 4.699l.089.136v.023l.078.11a4.984 4.984 0 00.52.642l.09.094.111.109c.167.164.345.316.53.456.3-.425.59-.861.878-1.31a4.798 4.798 0 01-1.682-2.773 4.952 4.952 0 01.433-3.25 4.644 4.644 0 012.344-2.19 4.395 4.395 0 013.145-.09c.094-.23.182-.462.271-.694.1-.261.2-.524.308-.787a5.875 5.875 0 00-2.86-.303 5.968 5.968 0 00-2.676 1.094zM67.334 2.757a4.669 4.669 0 00.404-1.917c.53-.086 1.065-.163 1.606-.237a6.492 6.492 0 01-1.038 3.78 6.133 6.133 0 01-1.528 1.625l-.041.03-.134.094-.116.082-.142.085-.112.067a1.61 1.61 0 01-.139.078l-.09.05c-.137.074-.28.14-.421.203l-.16.066a.517.517 0 01-.158.059l-.16.058-.322.098-.328.077-.157.032a5.742 5.742 0 01-.856.093h-.16a6.04 6.04 0 01-1.495-.183l-.19-.05a6.044 6.044 0 01-1.752-.838l-.105-.07-.216-.164a7.061 7.061 0 01-.4-.347l-.041-.039-.032-.03c-.03-.028-.06-.055-.088-.087l-.063-.066-.168-.176-.169-.202-.022-.027-.127-.164-.034-.047a2.534 2.534 0 01-.145-.206 6.19 6.19 0 01-.534-.951c.243-.085.488-.179.735-.273.261-.1.524-.2.789-.292.093.186.197.366.313.538l.042.054.179.242.093.124.146.16.097.105.273.254c.077.067.16.13.24.19l.051.04h.023c.409.295.862.519 1.34.662l.139.039h.026l.228.05h.22a4.339 4.339 0 002.563-.413l.217-.112.033-.02.183-.113.109-.074.1-.07a4.666 4.666 0 001.495-1.867z" fill="#FEFEFE"/></svg>