<svg width="364" height="95" fill="none" xmlns="http://www.w3.org/2000/svg"><path d="M284.942 76.755c-.085 0-.171 0-.211.047a.814.814 0 01-.13.288 1.127 1.127 0 01-.406.388 1.07 1.07 0 01-.534.138c-.894 0-1.708-1.34-2.305-3.881l-2.392-9.706c-1.065-4.403-3.928-6.608-8.499-6.608a10.551 10.551 0 00-6.189 1.785v2.605c.814-.204 1.916-.64 3.136-.64 1.878 0 3.074 1.149 3.631 3.685l.663 2.766a7.838 7.838 0 00-3.331-.623c-5.807 0-9.523 2.969-9.523 7.52 0 4.454 3.716 7.661 8.881 7.661 2.265 0 4.957-.81 6.234-1.866.345-.238.516-.424.602-.48a.673.673 0 01.211-.093c.13 0 .171.047.256.144l.427.475c1.11 1.2 2.562 1.774 4.441 1.774 3.253 0 5.595-1.82 5.595-4.357 0-.725-.17-1.022-.557-1.022zm-14.432 1.697c-2.22 0-3.887-1.918-3.887-4.454 0-2.346 1.496-4.073 3.501-4.073.841-.009 1.664.26 2.35.768l.96 4.212c.086.345.13.7.13 1.057-.02 1.425-1.305 2.49-3.054 2.49z" fill="url(#paint0_linear_341_95)"/><path d="M220.049 47.742L211.4 72.599c-.126.386-.342.623-.553.623-.212 0-.407-.19-.513-.479l-8.511-25.001h-10.532l12.85 33.718c.171.577.342.717.94.717h6.949c.639 0 .683-.047.895-.67L225.23 47.74h-5.181z" fill="url(#paint1_linear_341_95)"/><path d="M255.135 57.458c.256 0 .427.145.427.289a4.853 4.853 0 01-.086.48l-.748 2.154a.88.88 0 01-.341.477.82.82 0 01-.554.142h-3.863c-.427 0-.557.196-.557.721v13.905c0 1.964.642 2.779 2.094 2.779a4.446 4.446 0 002.733-1.103c.598-.48 1.025-.768 1.281-.768.294.012.572.145.772.37.2.225.307.524.297.83a.182.182 0 000 .047c0 2.248-4.473 4.403-9.092 4.403-4.099 0-6.238-1.319-6.238-3.618V61.72c0-.479-.216-.72-.598-.72h-1.924a.862.862 0 01-.728-.237.939.939 0 01-.225-.334.98.98 0 01-.067-.401c0-.242.057-.916 1.22-1.697 3.395-2.015 6.047-4.997 8.055-7.97.513-.717.895-1.006 1.367-1.006.302.024.583.171.782.41.199.237.301.547.283.863v6.787l5.71.042z" fill="url(#paint2_linear_341_95)"/><path d="M309.66 58.808c-.085-.53-.211-.721-.597-.721a.714.714 0 00-.427.097l-6.076 2.452a1.639 1.639 0 00-.749.623 1.748 1.748 0 00-.284.955v19.937h8.154v-5.252c0-.263-.021-.56-.021-.886V58.808z" fill="url(#paint3_linear_341_95)"/><path d="M308.16 48.335c-2.395-.492-5.624 1.697-6.791 4.607-.093.25-.167.506-.219.768-.318 1.697.435 2.944 1.984 3.262 1.407.288 3.448-.458 4.929-1.9a6.849 6.849 0 001.996-3.437c.342-1.734-.431-2.994-1.899-3.3z" fill="url(#paint4_linear_341_95)"/><path d="M234.836 58.808c-.085-.53-.211-.72-.598-.72a.715.715 0 00-.406.097l-6.1 2.452a1.646 1.646 0 00-.75.623 1.756 1.756 0 00-.283.955V82.15h8.133v-23.33l.004-.013z" fill="url(#paint5_linear_341_95)"/><path d="M233.333 48.335c-2.395-.492-5.62 1.697-6.791 4.607a4.96 4.96 0 00-.22.768c-.313 1.697.435 2.944 1.985 3.262 1.407.288 3.448-.458 4.928-1.9a6.843 6.843 0 001.997-3.437c.345-1.734-.427-2.994-1.899-3.3z" fill="url(#paint6_linear_341_95)"/><path d="M297.384 76.989v-29.27c-.086-.572-.171-.716-.557-.716a1.448 1.448 0 00-.468.047l-6.1 2.507a1.644 1.644 0 00-.744.622c-.182.281-.28.612-.281.951v31.025h8.133l.017-5.166z" fill="url(#paint7_linear_341_95)"/><path d="M334.365 67.729a15.895 15.895 0 00-4.746-2.172l-5.176-1.438c-2.176-.62-2.713-1.04-2.774-2.12-.069-1.155.948-2.08 2.481-2.177 2.728-.174 6.323 1.31 8.946 3.72.545.573.984.747 1.326.725a.871.871 0 00.62-.313.946.946 0 00.226-.679v-.072a2.455 2.455 0 00-.492-1.078c-2.68-3.915-9.203-5.73-13.286-5.467-4.945.313-8.312 3.461-8.072 7.537.134 2.266 1.359 4.158 3.571 5.43 1.289.848 2.472 1.306 4.749 2.172l3.058 1.069c3.144 1.111 4.132 1.909 4.221 3.419.09 1.51-1.045 2.642-2.875 2.761-1.83.119-5.286-1-8.08-3.033a13.656 13.656 0 01-2.005-1.883c-.74-.912-1.142-1.188-1.626-1.158-.553.034-.907.61-.866 1.272.033.453.173.89.406 1.273l.313.526c2.794 4.098 8.292 5.442 8.292 5.442 2.159.48 4.365.694 6.571.64 5.071-.322 8.621-4.033 8.345-8.716a7.43 7.43 0 00-.91-3.232 7.09 7.09 0 00-2.217-2.448z" fill="url(#paint8_linear_341_95)"/><path d="M360.417 67.729a15.89 15.89 0 00-4.745-2.172l-5.177-1.438c-2.176-.62-2.712-1.04-2.773-2.12-.07-1.155.947-2.08 2.48-2.177 2.729-.174 6.324 1.31 8.946 3.72.545.573.985.747 1.326.725a.867.867 0 00.34-.091.905.905 0 00.458-.538.971.971 0 00.048-.363v-.072a2.444 2.444 0 00-.492-1.078c-2.68-3.915-9.203-5.73-13.285-5.467-4.945.313-8.308 3.461-8.072 7.537.134 2.266 1.358 4.158 3.57 5.43 1.289.848 2.472 1.306 4.75 2.172l3.058 1.069c3.143 1.111 4.131 1.909 4.221 3.419.089 1.51-1.045 2.642-2.875 2.761-1.83.119-5.287-1-8.08-3.033a13.606 13.606 0 01-2.005-1.883c-.74-.912-1.143-1.188-1.627-1.158-.553.034-.903.61-.866 1.272.036.452.175.889.407 1.273l.313.526c2.793 4.098 8.291 5.442 8.291 5.442 2.164.48 4.373.695 6.584.64 5.071-.322 8.621-4.033 8.345-8.716a7.441 7.441 0 00-.916-3.234 7.079 7.079 0 00-2.224-2.446z" fill="url(#paint9_linear_341_95)"/><path fill-rule="evenodd" clip-rule="evenodd" d="M116.075 30.13a27.064 27.064 0 0011.933-4.965c3.83-2.823 6.913-6.61 8.963-11.01 2.05-4.4 3-9.27 2.761-14.155h3.099a33.441 33.441 0 01-3.12 15.605c-2.276 4.848-5.682 9.022-9.906 12.14a30.012 30.012 0 01-13.263 5.496v.09l-1.668.12-1.437.128v-.053c-5.803.177-9.069-1.129-12.738-2.596l-.202-.08-.1-.038a95.606 95.606 0 00-4.788-1.83 33.84 33.84 0 00-21.781-.075 65.774 65.774 0 013.005-4.162 36.664 36.664 0 0119.754 1.162c1.844.632 3.36 1.244 4.699 1.785l.225.09.108.045c3.601 1.462 6.448 2.617 11.71 2.452h1.79l.956-.15zm8.078 37.836a29.871 29.871 0 01.18-21.52l.302-.75.108-.226v-.127l.1-.233.482-.922c2.494-4.844 4.874-6.831 7.907-9.35l.267-.225h.001c1.128-.95 2.4-2.02 3.844-3.36 4.163-3.872 7.466-8.645 9.677-13.986A41.468 41.468 0 00150.147.329a143.411 143.411 0 00-3.105-.157 38.151 38.151 0 01-2.806 15.7c-2.028 4.954-5.075 9.384-8.926 12.974-1.495 1.387-2.811 2.49-3.99 3.472-3.141 2.624-5.88 4.927-8.669 10.333l-.079-.038-.604 1.425-.539 1.147h.057a33.495 33.495 0 00-1.563 19.338c1.399 6.46 4.673 12.313 9.377 16.76a49.23 49.23 0 002.574-1.934c-3.43-3.076-6.081-6.985-7.721-11.383zM1.225 32.244l-.424.428.024-.187c.01-.085.02-.166.033-.24h.367zm16.099 27.211c-.36.023-.72.023-1.079 0-4.894.685-9.509 2.778-13.327 6.044-.187-.592-.367-1.2-.532-1.807 3.953-3.254 8.669-5.346 13.658-6.059h.259c.297.023.595.023.891 0a7.827 7.827 0 004.76-2.244 8.44 8.44 0 002.406-4.837 8.62 8.62 0 00-.98-5.352 8.083 8.083 0 00-3.947-3.57 7.663 7.663 0 00-5.219-.254 7.992 7.992 0 00-4.248 3.17 8.576 8.576 0 00-1.456 5.233 8.512 8.512 0 001.963 5.05l1.653 1.957-2.379.9c-.683.27-1.402.57-2.12.892l-1.23.577-.82-1.117a14.702 14.702 0 00-.08-.114c-.076-.105-.153-.21-.221-.32a14.65 14.65 0 01-2.494-7.526 14.744 14.744 0 011.766-7.746 13.943 13.943 0 015.475-5.547 13.186 13.186 0 017.473-1.617c2.157.622 4.234 1.372 6.226 2.122a13.738 13.738 0 013.925 3.951c2.089 3.084 2.92 6.906 2.31 10.628-.611 3.721-2.613 7.038-5.567 9.221h-.043c-2.451 1.702-3.752 1.912-6.125 2.294l-.397.066c-.732.12-1.59.26-2.571.474-4.04.873-7.772 2.892-10.783 5.834a24.585 24.585 0 01-.72-1.747c3.157-2.92 6.991-4.926 11.122-5.819a50.007 50.007 0 013.055-.555l.08-.013c2.216-.358 3.23-.522 5.361-2.004a12.434 12.434 0 004.265-5.725 13 13 0 00.498-7.231 12.634 12.634 0 00-3.436-6.303 11.8 11.8 0 00-6.213-3.25 11.525 11.525 0 00-6.897.897 12.139 12.139 0 00-5.258 4.74 12.9 12.9 0 00-1.849 6.99c.06 2.469.82 4.864 2.184 6.883l.273.382c.734-.345 1.524-.66 2.243-.944a10.3 10.3 0 01-.64-.848 10.4 10.4 0 01-1.75-6.22 10.338 10.338 0 012.24-6.046c1.364-1.703 3.229-2.89 5.305-3.375a9.305 9.305 0 016.179.69c1.93.932 3.512 2.504 4.5 4.47a10.468 10.468 0 01.963 6.403 10.217 10.217 0 01-2.973 5.693 9.485 9.485 0 01-5.68 2.63zm27.855.331h-.05l-.166.143-.201.187-.18.18-.065.068-.122.135v.045a7.113 7.113 0 00-.352.442l-.166.24-.071.113a6.724 6.724 0 00-.841 1.927.295.295 0 01-.058.21 6.947 6.947 0 00-.18 1.634v.173c.014.316.045.632.094.945a.281.281 0 000 .165c.037.12.063.242.079.367 0 .076.026.15.052.224.016.042.03.085.041.129.015.058.035.116.058.172l.079.202.065.173c.064.157.129.315.208.465.013.034.03.067.05.097a.97.97 0 00.08.15l.064.128.086.157.087.128a.96.96 0 00.093.142v.06c.242.361.52.695.827.997.258.249.532.48.82.69.294.202.601.382.92.54.9.433 1.884.64 2.875.608a69.602 69.602 0 00-.237-1.77 4.643 4.643 0 01-.72-.06 4.754 4.754 0 01-3.062-2.062l-.064-.105-.08-.12-.143-.218a5.13 5.13 0 01-.56-1.935 4.844 4.844 0 010-1.117v-.24a1.44 1.44 0 01.05-.254v-.158a5.172 5.172 0 01.898-1.822c.048-.06.1-.118.153-.176l.05-.055.027-.031a.68.68 0 00.1-.105l.166-.158.115-.105.245-.195c.172-.126.352-.242.539-.345-.18-.57-.374-1.124-.568-1.68-.338.165-.66.36-.963.585l-.072.09zm-12.831 7.882l-.043-.93-.029-.862a16.999 16.999 0 011.438-7.387v-.03c.294-.78.618-1.664.963-2.737a20.913 20.913 0 00.036-12.455 86.98 86.98 0 012.157 1.725c.768 3.78.564 7.704-.59 11.375-.36 1.11-.69 2.017-.992 2.812v.06a15.262 15.262 0 00-1.308 6.637v1.012l.079.547c.556 3.898 2.484 7.44 5.408 9.936 2.924 2.495 6.634 3.765 10.407 3.562v1.77c-4.182.198-8.286-1.23-11.516-4.007-3.23-2.778-5.357-6.708-5.967-11.028h-.043zm6.31-21.088c.41 3.434.08 6.92-.962 10.206a48.328 48.328 0 01-1.036 2.947c-.87 2.332-1.344 3.621-1.157 6.688v.053c.33 3.673 2.012 7.07 4.693 9.475 2.682 2.406 6.153 3.633 9.684 3.422 0-.447-.025-.895-.049-1.339l-.023-.43c-3.093.187-6.134-.886-8.484-2.993-2.35-2.107-3.823-5.082-4.11-8.3-.173-2.676.208-3.696 1.041-5.93l.001-.002.167-.434c.287-.742.61-1.578.904-2.565a26.259 26.259 0 001.186-8.84 46.434 46.434 0 00-1.854-1.958zM26.155 63.79a15.065 15.065 0 01-7.462 2.85c-.82.097-1.733.277-2.79.54-3.772.822-7.222 2.804-9.905 5.691-.288-.532-.56-1.08-.827-1.635 2.863-2.934 6.474-4.948 10.402-5.804a53.02 53.02 0 012.77-.507h.003l.103-.017a13.66 13.66 0 006.771-2.565c3.283-2.428 5.508-6.114 6.19-10.25.682-4.137-.236-8.387-2.552-11.818-.196-.303-.414-.583-.63-.86l-.09-.115c1.1.547 2.15 1.125 3.164 1.725a18.304 18.304 0 011.586 12.392c-.94 4.194-3.32 7.884-6.69 10.373h-.043zM1.955 62.08c.51-.405 1.035-.795 1.567-1.155l1.438-.997-1-1.5C1.678 54.995.785 50.76 1.477 46.643c.691-4.117 2.912-7.782 6.18-10.2a14.654 14.654 0 015.204-2.445 71.767 71.767 0 00-3.364-.675 16.108 16.108 0 00-2.818 1.672C3.31 37.472.933 41.155 0 45.343c.002 3.545.242 7.086.719 10.596A17.398 17.398 0 002.53 59.44c-.161.11-.322.228-.482.343-.195.142-.388.282-.574.406.116.446.226.882.332 1.3.05.201.1.398.15.59zm3.408-29.05A19.497 19.497 0 00.21 38.715c.086-1.124.18-2.257.28-3.389a21.295 21.295 0 012.811-2.88c.834.09 1.66.18 2.487.293l-.424.293zM29.97 88.65l-1.934-1.665-.798 2.467a1.383 1.383 0 01-.057.158c.532.202 1.063.397 1.603.585l.064-.173c.084.073.17.141.255.208.055.043.11.086.162.13 1.107.382 2.236.75 3.386 1.057l.18-.457-1.086-.825a45.625 45.625 0 01-1.775-1.485zm-4.136-3.727a7.026 7.026 0 01-.076 4.108l-.11-.047-.166-.072a27.07 27.07 0 01-1.19-.534 5.246 5.246 0 00.028-3.101 5.041 5.041 0 00-1.718-2.531 4.703 4.703 0 00-2.814-1.003 4.692 4.692 0 00-3.893 1.971 35.894 35.894 0 01-1.323-.967c.144-.203.297-.399.46-.585l.108-.12.1-.097c.08-.09.163-.176.252-.255.123-.113.252-.218.381-.323l.108-.082.137-.098a6.27 6.27 0 013.8-1.077 6.31 6.31 0 013.695 1.42 6.765 6.765 0 012.221 3.393zm23.435 7.709a25.784 25.784 0 01-11.724-2.82c-3.65-1.858-6.847-4.561-9.345-7.903a11.935 11.935 0 00-.575-.968 9.791 9.791 0 00-3.372-3.105 9.336 9.336 0 00-4.355-1.174 9.316 9.316 0 00-4.392 1.014 9.747 9.747 0 00-3.473 2.98c.279.262.568.51.863.762l.438.378a7.873 7.873 0 011.797-1.83 7.728 7.728 0 015.948-1.394c2.081.374 3.936 1.592 5.158 3.39a8 8 0 01.475.801l.064.12.08.105c3.904 5.205 9.364 8.9 15.512 10.498a80.41 80.41 0 006.7.75c.067-.47.128-.988.19-1.502l.011-.103zm-8.925-31.75c.152-.343.322-.676.51-.998a28.303 28.303 0 001.884-8.308c.52.79 1 1.608 1.438 2.452a29.993 29.993 0 01-1.733 6.531l-.05.128-.065.12a8.719 8.719 0 00-.424.817 8.624 8.624 0 00.644 8.084 8.082 8.082 0 003.013 2.773 7.69 7.69 0 003.927.886c.057.592.108 1.177.158 1.777a9.227 9.227 0 01-4.579-.907c-2.322-1.12-4.123-3.156-5.008-5.66a10.478 10.478 0 01.285-7.695zm5.354-3.531l-.41-.93-.187 1.05.597-.12zM29.1 79.295c-1.43-1.856-2.086-2.709-4.394-3.898a11.548 11.548 0 00-7.732-.733c-2.584.655-4.886 2.187-6.545 4.355-.428-.418-.774-.843-1.132-1.282l-.025-.03c1.915-2.422 4.542-4.116 7.475-4.82a13.142 13.142 0 018.742.928 12.64 12.64 0 014.975 4.394l.096.125c.515.666 1.094 1.415 1.837 2.29a22.562 22.562 0 007.805 5.885 21.695 21.695 0 009.448 1.943c-.035.568-.082 1.13-.13 1.697l-.007.073a23.36 23.36 0 01-10.083-2.127 24.288 24.288 0 01-8.326-6.302c-.82-.982-1.438-1.732-1.992-2.482l-.012-.016zm-14.887-7.31a14.47 14.47 0 0111.307.105l.396.165.122.068h.036l.122.052.489.278a14.3 14.3 0 014.91 4.499l.297.39c.452.594.964 1.267 1.586 1.965a21.046 21.046 0 007.35 5.524 20.237 20.237 0 008.896 1.78c.039-.596.067-1.188.087-1.778a18.597 18.597 0 01-8.266-1.595 19.338 19.338 0 01-6.83-5.109c-.49-.586-.918-1.12-1.305-1.602l-.002-.003-.001-.001-.518-.643a15.981 15.981 0 00-5.428-4.957v-.045l-.719-.345-.603-.247a16.276 16.276 0 00-10.155-.87c-3.39.805-6.461 2.68-8.794 5.369.33.502.668.997 1.02 1.5a15.134 15.134 0 016.003-4.5zm8.31-24.872c.057.112.096.234.115.36.047.217.079.438.093.66.058.22.086.437.086.652v1.32a4.21 4.21 0 00-.057.435 7.462 7.462 0 01-.266 1.05c-.043.14-.093.277-.151.412l-.086.195-.087.195-.1.195-.1.187-.109.188c-.22.367-.476.712-.762 1.027l-.15.158a3.937 3.937 0 01-.303.3l-.05.044-.13.113-.172.142-.158.12-.237.165-.137.09-.144.083a6.315 6.315 0 01-3.594.855h-.273a6.324 6.324 0 01-1.387-.315l-.49-.195c-.215-.105-.423-.21-.632-.33l-.15-.098a.98.98 0 01-.145-.097l-.15-.098a4.084 4.084 0 01-.28-.217l-.094-.068-.108-.097-.158-.142-.151-.143a4.363 4.363 0 01-.396-.427l-.122-.143-.072-.097a3.923 3.923 0 01-.19-.256c-.023-.032-.045-.065-.069-.097a6.979 6.979 0 01-1.135-3.254 6.978 6.978 0 01.05-1.597c.027-.121.046-.244.058-.368a6.464 6.464 0 01.467-1.5 6.595 6.595 0 01.632-1.147c.13-.18.26-.352.396-.517.136-.158.287-.315.438-.465.05-.054.102-.104.158-.15l.345-.263.173-.127a6 6 0 011.883-.952c.14-.045.276-.083.41-.113a5.226 5.226 0 011.69-.135c.421.017.84.08 1.25.188a6.472 6.472 0 013.724 2.662c.286.405.527.842.719 1.304l.108.308zM21.2 49.76c.007-.12.007-.24 0-.36l-.036-.068v-.33a5.028 5.028 0 00-.848-2.407 4.812 4.812 0 00-1.89-1.644 4.555 4.555 0 00-4.724.444 4.87 4.87 0 00-1.567 1.973 4.63 4.63 0 00-.266.75l-.043.15a5.468 5.468 0 00-.115 1.597c.064.91.362 1.786.863 2.534l.072.09.107.09.13.165.043.053.144.165.043.045.158.157h.036c.236.223.493.42.769.585h.065l.172.098h.065l.086.067.086.038h.036a4.575 4.575 0 003.156.165c.33-.09.65-.216.956-.375l.137-.075.172-.105.252-.165h.05a5 5 0 001.438-1.688l.137-.285c.018-.048.037-.095.057-.142.02-.047.04-.094.058-.142a.771.771 0 00.093-.27v-.06l.065-.255v-.083l.043-.232v-.48zM98.693 9.14l-.208-1.095c-.546.248-1.086.495-1.618.75l1.826.345zm36.292 27.949a102.55 102.55 0 004.22-3.682c4.423-4.12 7.938-9.19 10.303-14.863A44.429 44.429 0 00152.906.548l3.084.24a47.784 47.784 0 01-3.71 19.186c-2.54 6.045-6.295 11.45-11.012 15.847a99.21 99.21 0 01-4.313 3.787l-.097.082c-3.183 2.68-4.683 3.944-6.747 8.302a23.742 23.742 0 00-1.352 14.769c1.138 4.943 3.825 9.348 7.635 12.518a39.59 39.59 0 01-2.308 2.25c-4.224-3.656-7.178-8.66-8.404-14.242A27.104 27.104 0 01127.3 46.65v-.09c2.386-5.037 4.269-6.612 7.681-9.467l.004-.003zM125.29 7.895c-1.618 3.65-4.559 6.482-8.176 7.873a13.997 13.997 0 01-12.556-1.259l-.201-.127-.223-.098a49.414 49.414 0 00-11.401-3.307 59.4 59.4 0 00-4.313 2.715c4.99.38 9.89 1.58 14.521 3.554a16.98 16.98 0 0015.228 1.521c4.388-1.687 7.955-5.123 9.917-9.552a19.07 19.07 0 001.582-8.698c-1.035.09-2.063.187-3.084.3a15.77 15.77 0 01-1.294 7.078zm-37.047 33.38c-5.7-1.018-11.552.359-16.281 3.829l.014-.03-.546.405c-4.62 3.585-7.696 8.928-8.559 14.867-.863 5.94.557 11.993 3.95 16.846 3.394 4.853 8.488 8.111 14.173 9.067 5.685.956 11.502-.468 16.185-3.962.223-.165.446-.33.669-.51a58.615 58.615 0 01-1.654-4.275c-.474.435-.97.84-1.48 1.223-3.246 2.38-7.167 3.55-11.128 3.32-3.962-.231-7.733-1.848-10.706-4.59-2.972-2.742-4.97-6.45-5.674-10.523a19.097 19.097 0 011.8-11.926c1.868-3.652 4.862-6.54 8.498-8.197a16.966 16.966 0 0111.539-.937c3.838 1.05 7.224 3.419 9.612 6.724 2.389 3.305 3.639 7.354 3.549 11.492 1.23 9.32 4.93 18.098 10.682 25.345-1.021.36-2.099.705-3.177 1.027-5.673-7.514-9.324-16.47-10.575-25.945v-.487a18.84 18.84 0 00-.057-1.71c-.291-3.326-1.625-6.459-3.796-8.913-2.172-2.454-5.058-4.093-8.213-4.663a14.023 14.023 0 00-9.237 1.514c-2.835 1.55-5.101 4.034-6.446 7.064a15.776 15.776 0 00-.995 9.698c.701 3.259 2.412 6.185 4.87 8.326 2.456 2.142 5.522 3.378 8.72 3.517 3.2.14 6.353-.826 8.972-2.746.422-.311.828-.647 1.215-1.004l3.422-3.135 1.538 4.5c.468 1.364.992 2.729 1.567 4.048l1.007 2.332-1.955 1.553c-.252.202-.51.397-.762.585-3.865 2.852-8.43 4.497-13.158 4.743a24.098 24.098 0 01-13.545-3.36c-4.117-2.438-7.483-6.05-9.704-10.412a26.94 26.94 0 01-2.836-14.217c1.093-4.102 2.337-8.098 3.724-11.848 2.178-3.623 5.178-6.63 8.737-8.754a24.15 24.15 0 0111.661-3.423c4.098-.123 8.162.81 11.832 2.717 3.669 1.907 6.831 4.729 9.205 8.215l.057.075c2.974 4.661 3.342 7.166 4.003 11.66l.001.008c.23 1.605.511 3.397.949 5.647 1.531 7.679 5.06 14.77 10.201 20.493-.992.458-2.006.893-3.041 1.32-5.111-6.004-8.625-13.3-10.193-21.16-.432-2.187-.7-3.992-.936-5.578l-.035-.234-.024-.163c-.637-4.207-.936-6.18-3.505-10.2-3.354-4.913-8.435-8.242-14.134-9.259zm53.212.08a16.87 16.87 0 00-1.689 1.094c-3.82 2.817-6.412 7.1-7.205 11.91-.792 4.809.279 9.75 2.978 13.735a17.843 17.843 0 003.724 4.027 61.98 61.98 0 001.991-2.49 14.989 14.989 0 01-4.366-5.435 15.66 15.66 0 01-1.511-6.914 15.648 15.648 0 011.676-6.873 14.938 14.938 0 015.89-6.228l.209-.12.194-.157c9.09-7.374 15.563-17.699 18.395-29.342.604-4.222 1.064-8.54 1.373-12.927l-2.875-.383a52.626 52.626 0 01-4.944 22.318c-3.255 6.95-7.989 13.033-13.84 17.785zm11.799-3.375a58.968 58.968 0 002.566-3.427l1.438-2.1.805.353a150.65 150.65 0 01-1.862 6.486l-.582.75.302.12c-.236.803-.516 1.6-.792 2.387l-.229.657-.273-.105-4.313-1.5 2.94-3.621zM97.457 23.246c2.056.75 3.695 1.38 5.161 1.972 4.076 1.657 6.319 2.564 11.689 2.205h.093c4.327-.42 8.472-2.018 12.02-4.635 3.447-2.544 6.221-5.956 8.064-9.92A27.059 27.059 0 00136.958.12c-.797 0-1.59.045-2.382.09l-.709.038a23.732 23.732 0 01-2.153 11.203c-1.614 3.484-4.049 6.484-7.077 8.72a21.24 21.24 0 01-10.531 4.05c-4.679.322-6.469-.405-10.364-1.986l-.002-.001a102.042 102.042 0 00-5.313-2.033 42.174 42.174 0 00-15.304-2.25 48.432 48.432 0 00-3.45 3.518 39.16 39.16 0 0117.784 1.777zm17.3 36.225c.223 1.537.481 3.277.891 5.354 1.437 7.193 4.91 13.77 9.971 18.88a81.887 81.887 0 01-2.876 1.576c-5.12-5.454-8.635-12.324-10.128-19.797a106.437 106.437 0 01-.921-5.511c-.654-4.44-1.128-7.633-4.478-12.883l-.036-.052c-4.242-6.25-10.686-10.491-17.92-11.794-7.235-1.303-14.67.438-20.675 4.843-.583.427-1.136.877-1.682 1.35a95.346 95.346 0 013.004-6c6.632-3.727 14.343-4.794 21.677-2.998 7.334 1.796 13.784 6.33 18.134 12.747l.057.082c3.68 5.728 4.242 9.387 4.94 13.932l.042.27zM54.632 92.689c0 .232 0 .465-.058.697l.776.105c-.265-.262-.51-.51-.718-.802zm1.044-8.372c.097.155.194.309.297.46a35.314 35.314 0 009.942 9.817c-1.97-.143-3.946-.315-5.93-.533a38.563 38.563 0 01-5.032-5.346c.15-1.59.316-3.165.51-4.732.073.11.143.222.213.334zm49.085 3.964l-1.754-2.752-2.617 1.898a26.996 26.996 0 01-12.43 4.984c-4.471.58-9.01.013-13.223-1.653-4.213-1.665-7.972-4.38-10.95-7.906-2.98-3.526-5.087-7.758-6.14-12.327a155.02 155.02 0 00-1.172 6.366c.81 1.88 1.79 3.675 2.926 5.362C63.734 88.67 70.175 93.207 77.5 95a129.137 129.137 0 0018.547-1.5 31.006 31.006 0 006.118-3.441c.431.68.877 1.354 1.337 2.024 1.107-.255 2.199-.517 3.278-.802a40.92 40.92 0 01-2.02-3zM94.554 57.207c.041.067.084.137.118.203.054.096.117.186.187.27a12.825 12.825 0 011.496 6.823c-.006.065-.014.13-.023.194a2.52 2.52 0 00-.028.324c-.093.897-.279 1.782-.553 2.64-.095.302-.164.479-.314.864v.001l-.031.079a10 10 0 01-.575 1.192c-.05.098-.101.195-.159.293l-.172.277-.18.285c-.115.18-.244.36-.373.54l-.13.165-.045.062c-.036.05-.073.1-.113.148l-.245.3-.258.292a10.46 10.46 0 01-.72.75c-.078.075-.157.15-.244.217l-.165.15a9.85 9.85 0 01-.618.48c-2.46 1.822-5.501 2.575-8.483 2.1a8.774 8.774 0 01-.64-.112c-.89-.19-1.756-.487-2.58-.885a6.588 6.588 0 01-.719-.36c-.446-.257-.878-.54-1.294-.848a14.71 14.71 0 01-.898-.75c-.288-.27-.561-.547-.82-.84l-.057-.063c-.045-.049-.081-.089-.202-.236-.165-.203-.402-.518-.481-.623-.08-.105-.159-.21-.23-.322a12.377 12.377 0 01-1.661-3.592 7.058 7.058 0 01-.194-.75 12.291 12.291 0 01-.28-3.217 13.26 13.26 0 01.323-2.384c.677-2.894 2.334-5.434 4.665-7.154a11.41 11.41 0 012.28-1.312l.538-.21a7.79 7.79 0 01.56-.196l.066-.021c.395-.113.74-.21 1.114-.285a6.001 6.001 0 011.15-.173c.387-.037.776-.052 1.165-.045.386 0 .773.023 1.157.068.225.03.465.067.719.112.628.115 1.246.283 1.847.503.252.09.49.18.72.285l.351.157.346.172.337.188.331.195.323.202c.645.42 1.247.908 1.798 1.455.098.087.192.18.28.278.18.187.352.374.518.577l.086.097.194.255c.086.105.165.21.244.323l.216.3.038.058c.082.125.168.255.242.384l.044.068.032.052zm-2.038 10.138a.133.133 0 010-.075l.021-.022a9.36 9.36 0 00.425-5.947 9.387 9.387 0 00-.662-1.814l-.13-.263-.019-.038c-.045-.09-.078-.153-.16-.292a16.436 16.436 0 00-.287-.472l-.058-.098a8.913 8.913 0 00-2.954-2.714c-.166-.09-.331-.18-.504-.263l-.488-.217h-.03a3.709 3.709 0 00-.48-.172h-.094l-.446-.128h-.15l-.403-.082h-.209l-.345-.053H83.81a8.464 8.464 0 00-4.221 1.618 8.98 8.98 0 00-2.88 3.604 9.403 9.403 0 00-.765 4.623 9.301 9.301 0 001.555 4.402 8.783 8.783 0 003.443 3c.435.212.888.383 1.352.51.089.033.18.058.273.075a8.28 8.28 0 003.634.087 8.443 8.443 0 003.346-1.482h.036l.165-.128.209-.172.287-.247.094-.083.043-.04.026-.026c.073-.068.146-.138.211-.211l.08-.075c.093-.098.186-.195.272-.3l.058-.068a9.582 9.582 0 001.028-1.5l.065-.112.172-.345.057-.112.094-.203a.413.413 0 00.072-.165zm50.701-19.804c-2.493 1.846-4.203 4.628-4.77 7.762a12.757 12.757 0 001.73 9.042l.172.263v.045l.151.21c.18.262.367.51.568.75.201.24.28.33.431.487l.173.18.215.21c.322.315.663.608 1.021.877a72.18 72.18 0 001.69-2.52c-1.651-1.322-2.799-3.213-3.239-5.336a9.528 9.528 0 01.834-6.255c.979-1.917 2.577-3.41 4.511-4.213a8.46 8.46 0 016.053-.175c.179-.442.35-.888.521-1.336.191-.502.384-1.006.593-1.513a11.306 11.306 0 00-5.504-.584 11.488 11.488 0 00-5.15 2.106zM119.954 5.308a8.996 8.996 0 00.668-2.25c.073-.476.109-.957.108-1.44 1.021-.164 2.049-.314 3.091-.457a12.49 12.49 0 01-1.998 7.274c-.361.547-.76 1.066-1.193 1.552a11.806 11.806 0 01-1.747 1.575l-.079.06-.259.18-.223.157-.273.165-.216.128c-.086.052-.172.105-.266.15l-.172.097c-.266.143-.539.27-.813.39l-.309.128a.99.99 0 01-.302.112l-.309.113-.618.187-.633.15-.301.06a11.04 11.04 0 01-1.647.18h-.309a11.62 11.62 0 01-2.875-.352l-.367-.098a11.628 11.628 0 01-3.371-1.612l-.201-.135-.417-.315a13.8 13.8 0 01-.77-.667l-.079-.075-.061-.057c-.058-.054-.115-.107-.169-.168l-.122-.128-.323-.337-.324-.39-.043-.053-.244-.315-.065-.09c-.1-.127-.193-.26-.28-.397a11.868 11.868 0 01-1.028-1.83c.468-.164.94-.344 1.415-.525a53.733 53.733 0 011.518-.562c.178.359.38.704.603 1.035l.079.105.345.465.18.24.281.307.186.203.525.487c.149.13.307.25.463.368l.098.074h.043c.788.57 1.66 1 2.581 1.275l.266.075h.05l.439.098h.424a8.35 8.35 0 004.931-.795l.417-.218.065-.037.352-.218.208-.142.194-.135a8.981 8.981 0 002.876-3.592z" fill="url(#paint10_linear_341_95)"/><defs><linearGradient id="paint5_linear_341_95" x1="226.699" y1="75.812" x2="235.293" y2="75.348" gradientUnits="userSpaceOnUse"><stop stop-color="#6E97AE"/><stop offset="1" stop-color="#64A9A1"/></linearGradient><linearGradient id="paint0_linear_341_95" x1="258.852" y1="75.657" x2="286.267" y2="70.946" gradientUnits="userSpaceOnUse"><stop stop-color="#6E97AE"/><stop offset="1" stop-color="#64A9A1"/></linearGradient><linearGradient id="paint2_linear_341_95" x1="237.717" y1="73.537" x2="257.541" y2="71.717" gradientUnits="userSpaceOnUse"><stop stop-color="#6E97AE"/><stop offset="1" stop-color="#64A9A1"/></linearGradient><linearGradient id="paint3_linear_341_95" x1="301.527" y1="75.811" x2="310.138" y2="75.345" gradientUnits="userSpaceOnUse"><stop stop-color="#6E97AE"/><stop offset="1" stop-color="#64A9A1"/></linearGradient><linearGradient id="paint4_linear_341_95" x1="301.078" y1="54.724" x2="310.421" y2="53.182" gradientUnits="userSpaceOnUse"><stop stop-color="#6E97AE"/><stop offset="1" stop-color="#64A9A1"/></linearGradient><linearGradient id="paint1_linear_341_95" x1="191.291" y1="73.106" x2="226.37" y2="67.585" gradientUnits="userSpaceOnUse"><stop stop-color="#6E97AE"/><stop offset="1" stop-color="#64A9A1"/></linearGradient><linearGradient id="paint6_linear_341_95" x1="226.252" y1="54.724" x2="235.595" y2="53.181" gradientUnits="userSpaceOnUse"><stop stop-color="#6E97AE"/><stop offset="1" stop-color="#64A9A1"/></linearGradient><linearGradient id="paint7_linear_341_95" x1="289.234" y1="72.895" x2="297.854" y2="72.576" gradientUnits="userSpaceOnUse"><stop stop-color="#6E97AE"/><stop offset="1" stop-color="#64A9A1"/></linearGradient><linearGradient id="paint8_linear_341_95" x1="313.406" y1="75.416" x2="338.365" y2="71.65" gradientUnits="userSpaceOnUse"><stop stop-color="#6E97AE"/><stop offset="1" stop-color="#64A9A1"/></linearGradient><linearGradient id="paint9_linear_341_95" x1="339.459" y1="75.417" x2="364.43" y2="71.646" gradientUnits="userSpaceOnUse"><stop stop-color="#6E97AE"/><stop offset="1" stop-color="#64A9A1"/></linearGradient><linearGradient id="paint10_linear_341_95" x1="81.557" y1="0" x2="81.557" y2="95" gradientUnits="userSpaceOnUse"><stop stop-color="#AEC7CB"/><stop offset="1" stop-color="#89A6AA"/></linearGradient></defs></svg>