<svg xmlns="http://www.w3.org/2000/svg" width="24" height="24"><circle cx="12" cy="12" r="11" fill="#97b376"/><path d="M12.014 7.33c1.525 0 1.706.006 2.309.033.556.026.859.119 1.06.197.267.104.457.228.657.427.2.2.324.39.428.657.078.202.171.504.196 1.061.028.603.034.783.034 2.309 0 1.525-.006 1.706-.034 2.309-.025.557-.118.86-.196 1.06a1.77 1.77 0 01-.428.657c-.2.2-.39.324-.657.428-.2.078-.504.171-1.06.196-.603.028-.784.034-2.31.034-1.525 0-1.705-.006-2.308-.034-.557-.025-.86-.118-1.06-.196a1.77 1.77 0 01-.658-.428c-.2-.2-.323-.39-.427-.657-.078-.2-.171-.504-.197-1.06-.027-.603-.033-.784-.033-2.31 0-1.525.006-1.705.033-2.308.026-.557.119-.86.197-1.06a1.77 1.77 0 01.427-.658c.2-.2.39-.323.657-.427.202-.078.504-.171 1.061-.197.603-.027.783-.033 2.309-.033m0-1.03c-1.552 0-1.746.007-2.356.035-.608.028-1.023.124-1.386.266a2.8 2.8 0 00-1.012.659 2.801 2.801 0 00-.66 1.012c-.14.363-.237.778-.265 1.386-.028.61-.034.804-.034 2.356 0 1.552.006 1.746.034 2.356.028.608.124 1.023.266 1.386a2.8 2.8 0 00.659 1.012 2.8 2.8 0 001.012.66c.363.14.778.237 1.386.265.61.028.804.034 2.356.034 1.552 0 1.746-.006 2.356-.034.608-.028 1.023-.124 1.386-.266a2.8 2.8 0 001.012-.659c.318-.317.513-.636.66-1.012.14-.363.237-.778.265-1.386.028-.61.034-.804.034-2.356 0-1.552-.006-1.746-.034-2.356-.028-.608-.125-1.023-.266-1.386a2.8 2.8 0 00-.659-1.012 2.8 2.8 0 00-1.012-.66c-.363-.14-.778-.237-1.387-.265-.609-.028-.803-.034-2.355-.034m0 2.78a2.934 2.934 0 100 5.867 2.934 2.934 0 000-5.868m0 4.838a1.904 1.904 0 110-3.808 1.904 1.904 0 010 3.808m3.735-4.954a.686.686 0 10-1.37 0 .686.686 0 001.37 0" fill="#FFF"/></svg>