<svg width="41" height="41" fill="none" xmlns="http://www.w3.org/2000/svg"><path fill-rule="evenodd" clip-rule="evenodd" d="M28.95.123c2.183.103 3.67.445 4.978.953 1.353.521 2.492 1.226 3.632 2.364a10.06 10.06 0 012.364 3.632c.506 1.306.85 2.795.953 4.978.096 2.185.123 2.88.123 8.45 0 5.57-.02 6.265-.123 8.45-.102 2.183-.447 3.67-.953 4.978a10.01 10.01 0 01-2.364 3.632 10.074 10.074 0 01-3.633 2.364c-1.305.506-2.794.85-4.977.953-2.185.096-2.88.123-8.45.123-5.57 0-6.265-.02-8.45-.123-2.183-.102-3.67-.447-4.978-.953A10.024 10.024 0 013.44 37.56a10.053 10.053 0 01-2.364-3.633c-.508-1.305-.85-2.794-.953-4.977C.027 26.765 0 26.07 0 20.5c0-5.57.02-6.265.123-8.45.103-2.185.445-3.67.953-4.978A10.004 10.004 0 013.44 3.44a10.039 10.039 0 013.632-2.364C8.38.568 9.866.226 12.05.123 14.235.027 14.93 0 20.5 0c5.57 0 6.265.02 8.45.123zm10.041 7.311c.463 1.192.789 2.572.887 4.661.095 2.163.122 2.842.122 8.405 0 5.566-.02 6.242-.122 8.403-.098 2.09-.424 3.468-.887 4.663l-.004.01a9.01 9.01 0 01-2.127 3.27l-.007.007-.006.006a9.075 9.075 0 01-3.272 2.129l-.009.003c-1.192.463-2.572.789-4.661.887-2.163.095-2.843.122-8.405.122-5.566 0-6.242-.02-8.403-.122-2.09-.098-3.468-.424-4.663-.887l-.01-.004a9.025 9.025 0 01-3.27-2.127l-.007-.007-.006-.006a9.053 9.053 0 01-2.129-3.271l-.004-.011c-.464-1.191-.788-2.57-.886-4.66C1.027 26.742 1 26.062 1 20.5c0-5.566.02-6.242.122-8.403.098-2.093.422-3.468.886-4.662l.005-.012a9.004 9.004 0 012.127-3.27l.007-.006.006-.006a9.039 9.039 0 013.271-2.129l.01-.004c1.194-.464 2.57-.788 4.661-.886C14.258 1.027 14.937 1 20.5 1c5.566 0 6.242.02 8.403.122 2.09.098 3.468.422 4.662.886l.003.002c1.229.472 2.249 1.103 3.286 2.138l.005.005a9.06 9.06 0 012.129 3.272l.003.009zm-25.989 5.643a10.25 10.25 0 1114.496 14.495 10.25 10.25 0 01-14.496-14.495zm19.822-5.326a2.563 2.563 0 11-3.624 3.624 2.563 2.563 0 013.625-3.624zM24.6 15.976a6.15 6.15 0 10-8.697 8.697 6.15 6.15 0 008.697-8.697z" fill="#FEFEFE"/></svg>