<svg width="40" height="40" fill="none" xmlns="http://www.w3.org/2000/svg"><path fill-rule="evenodd" clip-rule="evenodd" d="M1 1h38v38H1V1zM0 40V0h40v40H0zm13.334-27.367c.463-2.933 2.813-5.195 5.818-5.602.462-.063 1.66-.024 2.129.069 2.797.553 4.924 2.724 5.372 5.483.101.626.072 1.8-.06 2.377-.44 1.936-1.7 3.528-3.51 4.441-2.933 1.48-6.463.697-8.449-1.872-.592-.767-.945-1.497-1.194-2.467-.14-.548-.197-1.85-.106-2.43zm9.803-.063c-.316-.963-1.096-1.726-2.101-2.056-.445-.146-1.152-.205-1.564-.132-1.338.238-2.338 1.151-2.675 2.442-.128.49-.083 1.327.1 1.83a3.214 3.214 0 001.617 1.78c1.651.81 3.637.17 4.426-1.428.13-.263.263-.621.298-.796.084-.432.035-1.223-.101-1.64zM12.08 21.333c.171-.546.584-.998 1.075-1.178.226-.083.893-.036 1.171.082.13.055.493.256.808.446 2.01 1.216 4.26 1.645 6.527 1.244 1.152-.203 2.204-.617 3.34-1.315.33-.201.726-.402.883-.447.4-.114.855-.07 1.201.113.739.393 1.13 1.413.79 2.059-.159.302-.556.694-1.126 1.112-.99.726-2.047 1.201-3.386 1.524-.463.111-1.637.31-1.83.31-.067 0-.123.027-.123.06s1.156 1.194 2.57 2.58c2.358 2.316 2.74 2.684 2.802 3.1.013.087.012.176.012.287 0 .282-.028.414-.139.64-.326.661-1.113 1.13-1.747 1.039-.537-.077-.608-.134-2.717-2.186-1.103-1.074-2.04-1.957-2.083-1.962a1.006 1.006 0 00-.163-.004c-.046.004-.984.884-2.083 1.957-2.237 2.183-2.252 2.195-2.884 2.193-1.218-.004-2.105-1.326-1.563-2.33.122-.226.711-.838 2.695-2.801 1.397-1.382 2.54-2.523 2.54-2.536 0-.013-.17-.039-.378-.058-1-.092-2.437-.46-3.368-.864-1.2-.52-2.445-1.446-2.74-2.038-.192-.387-.211-.623-.084-1.027z" fill="#FEFEFE"/></svg>