<svg xmlns="http://www.w3.org/2000/svg" width="24" height="24"><path d="M11.552 16.415h.837s.253-.028.383-.167c.118-.128.114-.368.114-.368s-.016-1.123.505-1.289c.514-.163 1.174 1.086 1.874 1.566.529.363.93.284.93.284l1.87-.027s.98-.06.515-.83c-.038-.062-.27-.568-1.39-1.608-1.173-1.089-1.016-.913.397-2.795.86-1.147 1.204-1.847 1.096-2.147-.102-.285-.735-.21-.735-.21l-2.106.013s-.156-.021-.272.048c-.113.068-.185.226-.185.226s-.334.887-.778 1.642c-.938 1.592-1.313 1.676-1.466 1.577-.357-.23-.268-.925-.268-1.42 0-1.542.235-2.186-.455-2.352-.23-.056-.398-.092-.983-.098-.752-.008-1.388.002-1.748.179-.24.117-.424.378-.312.393.14.019.455.085.622.313.216.293.208.953.208.953s.124 1.816-.29 2.042c-.283.155-.673-.161-1.509-1.606-.428-.74-.751-1.558-.751-1.558s-.063-.153-.174-.235c-.135-.099-.323-.13-.323-.13l-2.002.013s-.3.008-.41.139c-.098.116-.008.356-.008.356s1.567 3.666 3.34 5.513c1.627 1.694 3.474 1.582 3.474 1.582" fill="#FFF"/></svg>