<svg xmlns="http://www.w3.org/2000/svg" width="24" height="24"><circle cx="12" cy="12" r="11" fill="#97b376"/><path d="M13.415 15.037a6.472 6.472 0 002.008-.832 1.013 1.013 0 00-1.08-1.717 4.39 4.39 0 01-4.655 0 1.014 1.014 0 00-1.08 1.716 6.47 6.47 0 002.008.833l-1.93 1.932a1.012 1.012 0 101.431 1.432l1.9-1.9 1.899 1.9a1.012 1.012 0 101.432-1.432l-1.933-1.933M12.016 7.33c.79 0 1.432.642 1.432 1.432a1.433 1.433 0 01-2.864 0c0-.79.644-1.432 1.432-1.432zm0 4.887a3.46 3.46 0 003.457-3.455 3.46 3.46 0 00-3.457-3.458c-1.906 0-3.456 1.55-3.456 3.456s1.55 3.457 3.456 3.457z" fill="#FFF"/></svg>