<svg width="40" height="40" fill="none" xmlns="http://www.w3.org/2000/svg"><path fill-rule="evenodd" clip-rule="evenodd" d="M1 1h38v38H1V1zM0 40V0h40v40H0zm30.6-27c.827 0 1.002.43.827 1.016-.347 1.612-3.68 6.353-3.68 6.352-.289.469-.406.702 0 1.23.143.202.447.503.796.848.358.355.763.756 1.087 1.142 1.175 1.334 2.061 2.462 2.307 3.237.225.78-.166 1.174-.947 1.174h-2.735c-.731 0-1.1-.415-1.898-1.31-.338-.38-.752-.846-1.304-1.404-1.623-1.579-2.32-1.785-2.724-1.785-.55 0-.716.158-.716.947v2.478c0 .68-.214 1.075-1.952 1.075-2.9 0-6.082-1.777-8.343-5.055C7.927 18.145 7 14.515 7 13.781c0-.408.156-.78.938-.78h2.735c.699 0 .962.309 1.223 1.074 1.338 3.937 3.594 7.377 4.52 7.377.35 0 .509-.163.509-1.054V16.33c-.063-1.16-.464-1.661-.76-2.033-.183-.229-.327-.408-.327-.662 0-.31.262-.635.696-.635h4.3c.58 0 .78.313.78 1.016v5.473c0 .586.252.79.426.79.347 0 .637-.204 1.274-.85 1.97-2.222 3.362-5.649 3.362-5.649.175-.408.493-.78 1.189-.78H30.6z" fill="#FEFEFE"/></svg>