<svg xmlns="http://www.w3.org/2000/svg" width="29" height="16"><path fill-rule="evenodd" fill="#b6b3bd" d="M24.809 10.121c.948.911 1.95 1.768 2.801 2.771.376.445.732.905 1.004 1.422.386.736.036 1.545-.634 1.589l-4.167-.002c-1.075.087-1.933-.338-2.654-1.06-.577-.578-1.111-1.194-1.666-1.791a3.946 3.946 0 00-.75-.655c-.569-.364-1.062-.253-1.387.332-.332.592-.407 1.25-.439 1.911-.045.966-.341 1.219-1.327 1.263-2.107.097-4.106-.216-5.963-1.261-1.638-.92-2.908-2.222-4.013-3.694-2.152-2.868-3.8-6.018-5.281-9.257C0 .961.244.568 1.062.554 2.422.529 3.781.531 5.143.552c.552.008.918.32 1.131.833.736 1.779 1.636 3.47 2.766 5.039.3.419.607.836 1.044 1.129.483.326.851.219 1.079-.311.144-.335.207-.698.24-1.057.107-1.237.122-2.471-.067-3.704-.117-.769-.557-1.268-1.338-1.412C9.6.993 9.659.847 9.852.624c.335-.386.65-.625 1.278-.625h4.71c.742.143.906.471 1.008 1.205l.004 5.144c-.008.284.144 1.128.664 1.316.417.133.691-.194.941-.453 1.128-1.177 1.932-2.569 2.651-4.009.32-.633.594-1.291.86-1.948.197-.488.506-.728 1.065-.717l4.532.004c.135 0 .271.001.401.024.764.128.973.45.737 1.184-.372 1.151-1.095 2.109-1.802 3.073-.756 1.03-1.564 2.022-2.314 3.057-.689.945-.634 1.421.222 2.242z" class="vk"/></svg>