<svg width="7" height="12" viewBox="0 0 7 12" fill="none" xmlns="http://www.w3.org/2000/svg">
<path d="M4.24218 6.0825L0.585177 2.4255C0.51209 2.35894 0.453098 2.27839 0.411695 2.18863C0.370291 2.09887 0.347318 2.00171 0.344133 1.90291C0.340949 1.80411 0.357619 1.70568 0.393156 1.61343C0.428693 1.52119 0.482376 1.43702 0.551026 1.36589C0.619676 1.29476 0.701897 1.23813 0.792824 1.19935C0.88375 1.16057 0.981533 1.14043 1.08038 1.14011C1.17924 1.13979 1.27715 1.15931 1.36832 1.19751C1.45949 1.23571 1.54207 1.29181 1.61118 1.3625L1.62918 1.3805L5.80918 5.5595C5.94774 5.69808 6.02557 5.88603 6.02557 6.082C6.02557 6.27797 5.94774 6.46591 5.80918 6.6045L1.63018 10.7835C1.56274 10.8533 1.48222 10.9091 1.39321 10.9478C1.3042 10.9865 1.20844 11.0073 1.11141 11.0089C1.01437 11.0106 0.917952 10.9931 0.827662 10.9575C0.737372 10.922 0.654975 10.8689 0.585178 10.8015C0.51538 10.7341 0.459548 10.6535 0.420869 10.5645C0.382191 10.4755 0.361423 10.3798 0.359751 10.2827C0.35808 10.1857 0.375537 10.0893 0.411128 9.99898C0.446718 9.90869 0.499744 9.82629 0.567178 9.7565L0.585178 9.7385L4.24218 6.0825Z" fill="#6F1DF4" stroke="#6F1DF4" stroke-width="0.5"/>
</svg>
