<svg xmlns="http://www.w3.org/2000/svg" xmlns:xlink="http://www.w3.org/1999/xlink" width="22px" height="22px" class="instagram"><radialGradient id="foot-rg" r="150%" cx="30%" cy="107%"><stop stop-color="#fdf497" offset="0"></stop> <stop stop-color="#fdf497" offset="0.05"></stop> <stop stop-color="#fd5949" offset="0.45"></stop> <stop stop-color="#d6249f" offset="0.6"></stop> <stop stop-color="#285AEB" offset="0.9"></stop></radialGradient> <path fill-rule="evenodd" fill="#b6b3bd" d="M15.281,21.499 L7.219,21.499 C3.508,21.499 0.500,18.491 0.500,14.781 L0.500,6.717 C0.500,3.007 3.508,-0.001 7.219,-0.001 L15.281,-0.001 C18.991,-0.001 22.000,3.007 22.000,6.717 L22.000,14.781 C22.000,18.491 18.991,21.499 15.281,21.499 ZM19.984,6.717 C19.984,4.125 17.874,2.014 15.281,2.014 L7.219,2.014 C4.625,2.014 2.515,4.125 2.515,6.717 L2.515,14.781 C2.515,17.373 4.625,19.484 7.219,19.484 L15.281,19.484 C17.874,19.484 19.984,17.373 19.984,14.781 L19.984,6.717 ZM17.028,5.687 C16.632,5.687 16.312,5.367 16.312,4.972 C16.312,4.576 16.632,4.255 17.028,4.255 C17.424,4.255 17.744,4.576 17.744,4.972 C17.744,5.367 17.424,5.687 17.028,5.687 ZM11.250,16.124 C8.282,16.124 5.875,13.717 5.875,10.750 C5.875,7.782 8.282,5.375 11.250,5.375 C14.218,5.375 16.625,7.782 16.625,10.750 C16.625,13.717 14.218,16.124 11.250,16.124 ZM11.250,7.391 C9.398,7.391 7.891,8.897 7.891,10.750 C7.891,12.601 9.398,14.109 11.250,14.109 C13.102,14.109 14.609,12.601 14.609,10.750 C14.609,8.897 13.102,7.391 11.250,7.391 Z"></path></svg>