<svg width="137" height="32" viewBox="0 0 137 32" fill="none" xmlns="http://www.w3.org/2000/svg">
<path d="M100.903 29.1153C100.863 29.1153 100.824 29.1153 100.806 29.1367C100.795 29.1846 100.774 29.2297 100.746 29.2691C100.699 29.3439 100.635 29.4052 100.56 29.4474C100.484 29.4896 100.4 29.5113 100.315 29.5106C99.9039 29.5106 99.5305 28.8952 99.2561 27.7287L98.1584 23.2731C97.6692 21.2517 96.355 20.2391 94.2566 20.2391C93.252 20.2081 92.2618 20.4938 91.4152 21.0589V22.2546C91.7886 22.1612 92.2945 21.9606 92.8546 21.9606C93.7171 21.9606 94.2659 22.4883 94.5217 23.6529L94.826 24.9225C94.3412 24.7164 93.8203 24.6188 93.297 24.6363C90.6311 24.6363 88.9248 25.9995 88.9248 28.089C88.9248 30.1337 90.6311 31.606 93.0021 31.606C94.0419 31.606 95.2778 31.234 95.864 30.7491C96.0227 30.6401 96.1011 30.5544 96.1403 30.5291C96.1701 30.5092 96.2029 30.4948 96.2374 30.4862C96.2971 30.4862 96.3158 30.5076 96.355 30.5524L96.551 30.7705C97.0606 31.3216 97.7271 31.5845 98.5896 31.5845C100.083 31.5845 101.158 30.7491 101.158 29.5846C101.158 29.2516 101.08 29.1153 100.903 29.1153ZM94.2771 29.8942C93.2578 29.8942 92.4924 29.014 92.4924 27.8495C92.4924 26.7726 93.1794 25.98 94.0998 25.98C94.4861 25.9758 94.8638 26.0992 95.1788 26.3325L95.6194 28.2662C95.6589 28.4246 95.679 28.5875 95.6792 28.7511C95.6698 29.4054 95.0799 29.8942 94.2771 29.8942Z" fill="#FEFEFE"/>
<path d="M71.1107 15.7954L67.1399 27.207C67.082 27.3842 66.9831 27.4933 66.886 27.4933C66.7889 27.4933 66.6993 27.4056 66.6508 27.2732L62.7434 15.7954H57.9082L63.8075 31.2751C63.8859 31.5399 63.9643 31.6042 64.2388 31.6042H67.4293C67.7224 31.6042 67.7429 31.5827 67.84 31.2965L73.4891 15.7954H71.1107Z" fill="#FEFEFE"/>
<path d="M87.2179 20.2563C87.3355 20.2563 87.4139 20.3225 87.4139 20.3888C87.4047 20.4628 87.3916 20.5362 87.3747 20.6088L87.0312 21.5981C87.0049 21.6877 86.9496 21.7651 86.8747 21.8169C86.7998 21.8688 86.71 21.8919 86.6205 21.8824H84.847C84.651 21.8824 84.5912 21.972 84.5912 22.2134V28.5969C84.5912 29.4985 84.8862 29.8724 85.5527 29.8724C86.0129 29.8526 86.454 29.6746 86.8072 29.3661C87.0816 29.1461 87.2777 29.0137 87.3953 29.0137C87.5303 29.0192 87.6577 29.0803 87.7497 29.1836C87.8417 29.2868 87.8908 29.4239 87.8863 29.5648C87.8853 29.5719 87.8853 29.5791 87.8863 29.5862C87.8863 30.6183 85.8327 31.6075 83.7119 31.6075C81.8301 31.6075 80.8482 31.0019 80.8482 29.9464V22.2134C80.8482 21.9934 80.7492 21.8824 80.5737 21.8824H79.6907C79.6307 21.891 79.5697 21.8858 79.5119 21.8671C79.4541 21.8483 79.4009 21.8166 79.3562 21.774C79.3115 21.7314 79.2763 21.6791 79.2531 21.6208C79.2299 21.5625 79.2193 21.4995 79.2221 21.4364C79.2221 21.3254 79.2482 21.0158 79.7822 20.6575C81.341 19.7325 82.5582 18.3635 83.4804 16.9984C83.7157 16.6693 83.8912 16.5369 84.1077 16.5369C84.2464 16.5479 84.3754 16.6153 84.4669 16.7245C84.5584 16.8338 84.6051 16.9762 84.5968 17.1211V20.2369L87.2179 20.2563Z" fill="#FEFEFE"/>
<path d="M112.25 20.8758C112.211 20.6323 112.153 20.5447 111.976 20.5447C111.908 20.5387 111.839 20.5543 111.78 20.5895L108.991 21.7151C108.851 21.7722 108.731 21.8719 108.647 22.0011C108.562 22.1303 108.517 22.2831 108.517 22.4396V31.5925H112.26V29.1816C112.26 29.0608 112.25 28.9245 112.25 28.7746V20.8758Z" fill="#FEFEFE"/>
<path d="M111.561 16.068C110.461 15.8421 108.979 16.847 108.443 18.183C108.4 18.2974 108.367 18.4153 108.342 18.5355C108.197 19.3145 108.542 19.887 109.253 20.0331C109.899 20.1655 110.837 19.8228 111.516 19.1606C111.967 18.7433 112.287 18.1934 112.433 17.5831C112.59 16.7866 112.235 16.2082 111.561 16.068Z" fill="#FEFEFE"/>
<path d="M77.8997 20.8764C77.8605 20.6329 77.8026 20.5453 77.6252 20.5453C77.5602 20.5413 77.4954 20.5568 77.4386 20.5901L74.6382 21.7157C74.4986 21.7728 74.3787 21.8724 74.2941 22.0017C74.2095 22.1309 74.1642 22.2837 74.1641 22.4401V31.5928H77.8978V20.8822L77.8997 20.8764Z" fill="#FEFEFE"/>
<path d="M77.2097 16.068C76.1101 15.8421 74.6297 16.847 74.092 18.183C74.0491 18.2974 74.0154 18.4153 73.9912 18.5355C73.8474 19.3145 74.1909 19.887 74.9022 20.0331C75.5482 20.1655 76.4853 19.8228 77.1649 19.1606C77.616 18.7433 77.9356 18.1934 78.0815 17.5831C78.2402 16.7866 77.8855 16.2082 77.2097 16.068Z" fill="#FEFEFE"/>
<path d="M106.614 29.2224V15.7855C106.575 15.5226 106.536 15.4564 106.359 15.4564C106.286 15.4518 106.214 15.4591 106.144 15.4778L103.344 16.6287C103.205 16.6863 103.086 16.7859 103.002 16.9147C102.918 17.0435 102.873 17.1955 102.873 17.3512V31.5943H106.607L106.614 29.2224Z" fill="#FEFEFE"/>
<path d="M123.592 24.9716C122.921 24.5196 122.186 24.183 121.413 23.9745L119.036 23.3144C118.038 23.0301 117.791 22.8373 117.763 22.3407C117.731 21.811 118.198 21.3864 118.902 21.3417C120.155 21.2618 121.805 21.9434 123.009 23.0495C123.259 23.3124 123.461 23.3923 123.618 23.3825C123.672 23.3793 123.725 23.3649 123.774 23.3403C123.823 23.3156 123.866 23.2811 123.903 23.2388C123.939 23.1964 123.966 23.1471 123.984 23.0936C124.002 23.04 124.009 22.9834 124.006 22.9268C124.006 22.9268 124.006 22.9054 124.006 22.8937C123.972 22.7116 123.894 22.5415 123.78 22.3991C122.55 20.6016 119.555 19.7682 117.681 19.8889C115.411 20.033 113.865 21.478 113.975 23.3494C114.037 24.3893 114.599 25.2579 115.614 25.8421C116.206 26.2316 116.749 26.4419 117.795 26.8392L119.199 27.3299C120.642 27.8401 121.096 28.2062 121.137 28.8995C121.178 29.5928 120.657 30.1127 119.817 30.1673C118.977 30.2218 117.39 29.7077 116.107 28.7749C115.773 28.5196 115.465 28.23 115.187 27.9102C114.847 27.4915 114.662 27.365 114.44 27.3786C114.186 27.3942 114.024 27.659 114.042 27.9628C114.058 28.1706 114.122 28.3712 114.229 28.547L114.373 28.7885C115.655 30.6697 118.179 31.287 118.179 31.287C119.171 31.507 120.183 31.6056 121.196 31.5811C123.524 31.4331 125.154 29.7291 125.027 27.5792C125.002 27.0572 124.859 26.5488 124.61 26.0956C124.36 25.6423 124.011 25.2572 123.592 24.9716Z" fill="#FEFEFE"/>
<path d="M135.551 24.9716C134.881 24.5196 134.145 24.183 133.373 23.9745L130.996 23.3143C129.997 23.03 129.751 22.8372 129.723 22.3407C129.691 21.811 130.158 21.3864 130.862 21.3416C132.114 21.2618 133.765 21.9434 134.969 23.0495C135.219 23.3124 135.421 23.3922 135.577 23.3825C135.632 23.3793 135.685 23.3649 135.734 23.3402C135.783 23.3156 135.826 23.2811 135.862 23.2388C135.898 23.1964 135.926 23.1471 135.944 23.0935C135.962 23.04 135.969 22.9834 135.966 22.9268C135.966 22.9268 135.966 22.9054 135.966 22.8937C135.932 22.7116 135.854 22.5414 135.74 22.3991C134.51 20.6016 131.515 19.7682 129.641 19.8889C127.371 20.033 125.827 21.478 125.935 23.3494C125.997 24.3893 126.559 25.2578 127.574 25.8421C128.166 26.2315 128.709 26.4418 129.755 26.8391L131.159 27.3299C132.602 27.8401 133.055 28.2062 133.096 28.8994C133.137 29.5927 132.617 30.1127 131.776 30.1672C130.936 30.2217 129.35 29.7076 128.067 28.7748C127.733 28.5196 127.425 28.2299 127.147 27.9102C126.807 27.4915 126.622 27.3649 126.4 27.3785C126.146 27.3941 125.985 27.659 126.002 27.9628C126.019 28.1703 126.083 28.3706 126.189 28.547L126.333 28.7884C127.615 30.6696 130.139 31.2869 130.139 31.2869C131.132 31.5073 132.147 31.606 133.162 31.581C135.49 31.433 137.119 29.729 136.993 27.5791C136.967 27.0566 136.823 26.5479 136.572 26.0946C136.322 25.6414 135.972 25.2565 135.551 24.9716Z" fill="#FEFEFE"/>
<path fill-rule="evenodd" clip-rule="evenodd" d="M37.7202 10.2459C39.1161 10.0326 40.4444 9.48 41.598 8.63279C42.8425 7.71531 43.8444 6.48446 44.5105 5.0547C45.1767 3.62494 45.4854 2.04269 45.408 0.455078H46.4149C46.4891 2.20735 46.1405 3.95104 45.4009 5.52627C44.6614 7.1015 43.5546 8.45787 42.182 9.47103C40.8996 10.411 39.4232 11.0229 37.872 11.2572V11.2864L37.3301 11.3254L36.8629 11.3668V11.3498C34.9771 11.4072 33.9159 10.9828 32.7234 10.506L32.658 10.4798L32.6253 10.4677C32.1815 10.2873 31.6792 10.0851 31.0695 9.87309C28.7719 9.08512 26.294 9.07659 23.9914 9.84872C24.3059 9.37599 24.6314 8.9252 24.9678 8.49633C27.1022 8.03151 29.3164 8.16178 31.3872 8.87403C31.9865 9.07934 32.4791 9.2781 32.9144 9.45377L32.9874 9.48321L33.0224 9.49783C34.1928 9.973 35.1178 10.3483 36.8278 10.2946H37.1268H37.2413H37.4095L37.7202 10.2459ZM40.3455 22.5415C39.4952 20.2906 39.5162 17.7831 40.4039 15.548L40.502 15.3043L40.5371 15.2312V15.1898L40.5698 15.1143L40.7263 14.8145C41.5369 13.2404 42.3101 12.5946 43.2959 11.7759L43.3828 11.7027C43.7493 11.3944 44.1627 11.0466 44.6321 10.6111C45.985 9.35291 47.0582 7.80177 47.7768 6.06604C48.4954 4.33032 48.8421 2.45186 48.7926 0.561897C48.4538 0.539966 48.1221 0.525345 47.7834 0.510725C47.8417 2.26049 47.5305 4.00222 46.8716 5.61252C46.2128 7.22282 45.2225 8.66228 43.971 9.82891C43.4851 10.2797 43.0576 10.6379 42.6745 10.9571C41.6537 11.81 40.7636 12.5581 39.8573 14.315L39.8316 14.3028L39.6353 14.7658L39.4601 15.1386H39.4788C38.6939 17.1289 38.5166 19.3233 38.971 21.4226C39.4254 23.5218 40.4895 25.4238 42.0181 26.8692C42.3054 26.6669 42.5858 26.4574 42.8544 26.2405C41.7398 25.2409 40.8782 23.9705 40.3455 22.5415ZM0.397941 10.9334L0.260115 11.0723C0.26305 11.0519 0.265576 11.0315 0.268035 11.0116C0.271447 10.984 0.27473 10.9575 0.278803 10.9334H0.397941ZM5.62985 19.7759C5.51316 19.7832 5.39615 19.7832 5.27945 19.7759C3.689 19.9985 2.18935 20.6786 0.948464 21.74C0.887728 21.5475 0.829327 21.3501 0.775599 21.1527C2.06024 20.0952 3.59269 19.4154 5.21404 19.1838H5.29814C5.39457 19.1911 5.49138 19.1911 5.5878 19.1838C6.16731 19.1288 6.71218 18.8718 7.13462 18.4544C7.55707 18.0369 7.83248 17.4833 7.91648 16.8826C8.00049 16.282 7.88819 15.6693 7.59769 15.1434C7.30719 14.6174 6.8554 14.2088 6.31512 13.9834C5.77483 13.758 5.17753 13.7288 4.61944 13.9007C4.06135 14.0726 3.57499 14.4354 3.23871 14.9308C2.90244 15.4262 2.73583 16.0253 2.76575 16.6315C2.79567 17.2377 3.02036 17.8157 3.40362 18.2724L3.94091 18.9084L3.16769 19.2009C2.94576 19.2886 2.71216 19.3861 2.47856 19.4908L2.0791 19.6785L1.81279 19.3154L1.78628 19.2783C1.76174 19.2442 1.73695 19.2098 1.71468 19.174C1.22723 18.4558 0.946081 17.6076 0.904184 16.7287C0.862287 15.8498 1.06137 14.9766 1.47812 14.2115C1.89486 13.4464 2.512 12.8211 3.25724 12.4087C4.00247 11.9963 4.84493 11.814 5.68592 11.8832C6.38672 12.0854 7.06183 12.3291 7.70891 12.5728C8.21361 12.9056 8.64768 13.3426 8.98438 13.857C9.66337 14.8589 9.9333 16.1011 9.73488 17.3105C9.53646 18.5199 8.88592 19.5977 7.92616 20.3072H7.91215C7.11556 20.8603 6.69274 20.9285 5.92186 21.0528L5.79277 21.074H5.79276C5.55492 21.1129 5.27589 21.1585 4.95708 21.2283C3.64413 21.512 2.43165 22.168 1.45305 23.1241C1.36661 22.9389 1.29186 22.7488 1.21944 22.5563C2.24503 21.6075 3.491 20.9556 4.83327 20.6654C5.22572 20.5801 5.54576 20.5289 5.82608 20.485L5.85234 20.4808C6.57218 20.3644 6.902 20.3111 7.59445 19.8295C8.22253 19.3659 8.70477 18.7185 8.98023 17.9691C9.25569 17.2196 9.31201 16.4018 9.14207 15.619C8.97213 14.8362 8.58357 14.1235 8.02547 13.571C7.46737 13.0185 6.76479 12.6509 6.00651 12.5148C5.24822 12.3786 4.46827 12.48 3.7652 12.8061C3.06213 13.1322 2.4675 13.6684 2.05645 14.3469C1.6454 15.0254 1.43638 15.8157 1.45579 16.6181C1.47521 17.4205 1.72219 18.1988 2.16553 18.8548L2.2543 18.9791C2.49257 18.867 2.74954 18.7647 2.98314 18.6721C2.9093 18.5841 2.8399 18.4922 2.77523 18.3967C2.37759 17.8066 2.17765 17.0962 2.20642 16.3756C2.23518 15.6549 2.49103 14.9643 2.93432 14.4107C3.37761 13.8572 3.98357 13.4716 4.65827 13.3138C5.33297 13.156 6.03873 13.2348 6.66615 13.5379C7.29357 13.8411 7.80761 14.3516 8.12858 14.9905C8.44954 15.6294 8.55952 16.3608 8.44146 17.0715C8.32339 17.7822 7.98388 18.4324 7.47555 18.9214C6.96723 19.4103 6.31847 19.7107 5.62985 19.7759ZM14.6811 19.8836H14.6647L14.611 19.9299L14.5456 19.9908L14.4872 20.0493L14.4662 20.0712L14.4265 20.1151V20.1297C14.3868 20.176 14.3494 20.2223 14.312 20.2735L14.2583 20.3514L14.2349 20.388C14.112 20.58 14.0197 20.7915 13.9616 21.0142C13.9629 21.0263 13.962 21.0386 13.9588 21.0503C13.9556 21.062 13.9502 21.0729 13.9429 21.0825C13.9025 21.2563 13.8829 21.4347 13.8845 21.6136V21.6697C13.8888 21.7726 13.899 21.8751 13.9149 21.9767C13.9095 21.9941 13.9095 22.0129 13.9149 22.0303C13.9268 22.0692 13.9354 22.1092 13.9406 22.1497C13.9406 22.1745 13.9491 22.1983 13.9577 22.2224C13.9626 22.2362 13.9675 22.25 13.9709 22.2642C13.9759 22.2834 13.9821 22.3021 13.9896 22.3203L14.0153 22.3861L14.0364 22.4421L14.0364 22.4421C14.0574 22.4933 14.0784 22.5445 14.1041 22.5932C14.1081 22.6045 14.1136 22.6151 14.1205 22.6249C14.1276 22.6419 14.1362 22.6582 14.1461 22.6736L14.1672 22.715L14.1952 22.7662L14.2232 22.8076C14.232 22.824 14.2422 22.8395 14.2536 22.8539V22.8734C14.3323 22.9907 14.4223 23.0993 14.5222 23.1975C14.6062 23.2782 14.6952 23.3531 14.7886 23.4217C14.8843 23.4872 14.9842 23.5458 15.0876 23.5971C15.3801 23.7377 15.7 23.8053 16.022 23.7945C15.9986 23.602 15.9729 23.4095 15.9449 23.2194C15.8667 23.219 15.7886 23.2125 15.7113 23.1999C15.3076 23.1229 14.9496 22.8819 14.7161 22.5298L14.6951 22.4957L14.6694 22.4567L14.6227 22.3861C14.6087 22.3593 14.597 22.3349 14.5853 22.3081C14.506 22.135 14.457 21.9485 14.4405 21.7574C14.4265 21.6368 14.4265 21.5149 14.4405 21.3943V21.3164C14.4435 21.2883 14.4489 21.2605 14.4568 21.2335V21.1824C14.5032 21.0086 14.5766 20.844 14.6741 20.695C14.6974 20.6585 14.7231 20.6244 14.7488 20.5903L14.7488 20.5902C14.7646 20.5706 14.7813 20.552 14.7985 20.533C14.8068 20.5238 14.8152 20.5145 14.8236 20.505C14.8356 20.4948 14.8466 20.4834 14.8563 20.4708L14.91 20.4197L14.9474 20.3856L15.0268 20.3222C15.083 20.2811 15.1415 20.2437 15.202 20.2101C15.1436 20.025 15.0806 19.8447 15.0175 19.6644L15.0175 19.6643C14.9078 19.7176 14.803 19.7812 14.7045 19.8544L14.6811 19.8836ZM10.5116 22.4446L10.4976 22.1425L10.4882 21.8623C10.4631 21.0352 10.6231 20.2134 10.9554 19.4621V19.4523C11.0512 19.1989 11.1563 18.9114 11.2685 18.5629C11.6833 17.2491 11.6874 15.8319 11.2801 14.5155C11.5138 14.6958 11.7474 14.8834 11.981 15.0759C12.2306 16.3042 12.1645 17.5794 11.7894 18.7725C11.6726 19.1331 11.5651 19.428 11.467 19.6862V19.7057C11.1665 20.3803 11.0209 21.1187 11.0419 21.8623V22.1059V22.1912L11.0676 22.3691C11.2483 23.6357 11.8748 24.7867 12.825 25.5977C13.7751 26.4086 14.9808 26.8213 16.2068 26.7552V27.3303C14.8478 27.395 13.5142 26.931 12.4646 26.0283C11.4149 25.1256 10.7239 23.8485 10.5256 22.4446H10.5116ZM12.5631 15.592C12.696 16.708 12.5891 17.8409 12.25 18.9084C12.1309 19.291 12.0164 19.5956 11.9136 19.8661C11.631 20.6239 11.4768 21.043 11.5375 22.0397V22.0567C11.6446 23.2504 12.1913 24.3542 13.0627 25.1359C13.934 25.9176 15.0622 26.3163 16.2096 26.2479C16.2096 26.1025 16.2016 25.9571 16.1937 25.8127C16.1911 25.766 16.1885 25.7194 16.1862 25.6729C15.1811 25.7336 14.1927 25.3849 13.4292 24.7004C12.6658 24.0158 12.1869 23.0488 12.0935 22.0031C12.0375 21.1335 12.1612 20.802 12.4319 20.0764L12.4322 20.0756C12.4498 20.0297 12.468 19.9827 12.4866 19.9344C12.5798 19.6934 12.6849 19.4217 12.7803 19.1009C13.0714 18.1748 13.2019 17.2019 13.1657 16.228C12.9789 16.016 12.7756 15.8064 12.5631 15.592ZM8.49903 21.1848C7.78195 21.7086 6.94605 22.0278 6.07424 22.1108C5.80793 22.1424 5.51126 22.2009 5.16786 22.2862C3.94184 22.5535 2.82065 23.1977 1.94882 24.1357C1.85538 23.9627 1.76661 23.7848 1.68018 23.6045C2.61053 22.6511 3.78377 21.9965 5.0604 21.7184C5.4077 21.6436 5.70126 21.5957 5.96172 21.5532L5.99481 21.5478C6.7854 21.4748 7.54396 21.1875 8.19535 20.7145C9.262 19.9255 9.98536 18.7277 10.2069 17.3835C10.4285 16.0392 10.1302 14.6582 9.37738 13.5429C9.31379 13.4445 9.24299 13.3536 9.1729 13.2636L9.1729 13.2636L9.17289 13.2636L9.17288 13.2636L9.17288 13.2636L9.17287 13.2636L9.17287 13.2636L9.17286 13.2636L9.17286 13.2635L9.17285 13.2635L9.17284 13.2635L9.17284 13.2635L9.17283 13.2635L9.17283 13.2635L9.17282 13.2635L9.17282 13.2635L9.17281 13.2635L9.1728 13.2635L9.1728 13.2635L9.17279 13.2635L9.17279 13.2634L9.17278 13.2634L9.17278 13.2634L9.17277 13.2634L9.17276 13.2634L9.17276 13.2634L9.17275 13.2634L9.14377 13.2261C9.50119 13.404 9.84225 13.5917 10.1716 13.7866C10.8093 15.0182 10.9927 16.4508 10.6871 17.8138C10.3816 19.1768 9.6082 20.3759 8.51305 21.1848H8.49903ZM0.635398 20.6289C0.801256 20.4973 0.971786 20.3706 1.14465 20.2536L1.61186 19.9295L1.28715 19.4422C0.544921 18.3264 0.254698 16.9501 0.479515 15.6124C0.704332 14.2747 1.42603 13.0835 2.48786 12.2976C2.99746 11.9219 3.5717 11.6522 4.17915 11.5032C3.8194 11.422 3.45498 11.3489 3.08589 11.2839C2.76407 11.4328 2.45731 11.6148 2.17017 11.8273C1.07554 12.6323 0.303089 13.8292 0 15.19C0.000657779 16.342 0.0787165 17.4926 0.233602 18.6332C0.386833 19.0351 0.584388 19.4169 0.82228 19.7712C0.769854 19.8073 0.717427 19.8453 0.665634 19.8829C0.602038 19.9291 0.539397 19.9745 0.478885 20.0148C0.516761 20.1597 0.552504 20.3012 0.586836 20.4372L0.635398 20.6289ZM1.74265 11.1886C1.07223 11.6821 0.502826 12.3101 0.0677247 13.0358C0.095757 12.6703 0.126125 12.3023 0.15883 11.9343C0.434292 11.593 0.740119 11.2797 1.07221 10.9986C1.34319 11.0278 1.61184 11.057 1.88048 11.0936L1.74265 11.1886ZM9.73862 29.2628L9.11023 28.7219L8.85093 29.5236C8.84573 29.541 8.83949 29.5581 8.83225 29.5747C9.00511 29.6405 9.17798 29.7039 9.35318 29.7648L9.3742 29.7087C9.4012 29.7325 9.42906 29.7543 9.45673 29.7761L9.45675 29.7761L9.45677 29.7761L9.45682 29.7762L9.45687 29.7762L9.45692 29.7762L9.45697 29.7763L9.45702 29.7763L9.45706 29.7764L9.45711 29.7764C9.47481 29.7903 9.49243 29.8042 9.50969 29.8184C9.86944 29.9426 10.2362 30.062 10.61 30.1619L10.6684 30.0133L10.3156 29.7453C10.1241 29.5918 9.92784 29.431 9.73862 29.2628ZM8.3953 28.0519C8.52017 28.4887 8.51147 28.9552 8.3704 29.3866L8.28086 29.3481C8.1476 29.2909 8.01604 29.2344 7.89385 29.1746C7.99846 28.8481 8.00172 28.4954 7.90316 28.1668C7.80461 27.8382 7.60926 27.5503 7.34487 27.3441C7.08049 27.138 6.76054 27.024 6.43049 27.0184C6.10045 27.0128 5.77711 27.1159 5.50644 27.3129C5.37564 27.4084 5.26048 27.5252 5.16538 27.659C5.01821 27.5566 4.87571 27.4518 4.73555 27.3446C4.78211 27.2785 4.83202 27.2151 4.88506 27.1546L4.9201 27.1156L4.9528 27.0839C4.97836 27.0545 5.00567 27.0268 5.03456 27.001C5.07427 26.9645 5.11632 26.9304 5.15837 26.8963L5.19341 26.8695L5.2378 26.8378C5.60458 26.59 6.03625 26.4676 6.4728 26.4876C6.90935 26.5076 7.32908 26.669 7.67363 26.9494C8.01818 27.2297 8.27042 27.6151 8.3953 28.0519ZM16.0109 30.5567C14.6907 30.5578 13.3877 30.2444 12.2011 29.6406C11.0146 29.0367 9.97583 28.1583 9.16406 27.0722C9.10332 26.9601 9.04259 26.8553 8.97718 26.7579C8.69331 26.3361 8.3179 25.9903 7.88156 25.7486C7.44522 25.507 6.9603 25.3763 6.46634 25.3673C5.97238 25.3582 5.48338 25.4711 5.03919 25.6967C4.595 25.9223 4.2082 26.2541 3.91035 26.6653C4.00119 26.7502 4.09519 26.8308 4.19093 26.9129C4.23797 26.9532 4.28544 26.9939 4.33317 27.0357C4.49539 26.8055 4.69267 26.6047 4.91717 26.4411C5.47867 26.0294 6.17365 25.8664 6.85004 25.9879C7.52643 26.1094 8.12916 26.5054 8.52633 27.0893C8.58262 27.1729 8.63411 27.26 8.6805 27.35L8.70153 27.389L8.72723 27.4231C9.99624 29.1144 11.7705 30.3151 13.7684 30.8345C14.4808 30.9442 15.205 31.027 15.9455 31.0782C15.9674 30.9251 15.9873 30.7569 16.007 30.5899L16.0109 30.5567ZM13.1105 20.2391C13.1597 20.1278 13.2151 20.0196 13.2763 19.915C13.6147 19.054 13.8213 18.1429 13.8884 17.215C14.0577 17.4717 14.2137 17.7377 14.3556 18.0118C14.248 18.7398 14.0591 19.4522 13.7926 20.1343L13.7762 20.1757L13.7552 20.2147C13.7047 20.3006 13.6587 20.3893 13.6174 20.4803C13.4341 20.9003 13.3571 21.3624 13.3938 21.8223C13.4304 22.2822 13.5794 22.7246 13.8266 23.1073C14.0737 23.4901 14.4108 23.8003 14.8057 24.0085C15.2005 24.2166 15.6399 24.3158 16.0819 24.2964C16.1006 24.4889 16.1169 24.6789 16.1333 24.8739C15.6216 24.9051 15.1104 24.8038 14.6452 24.579C13.8907 24.215 13.3054 23.5536 13.0177 22.74C12.73 21.9265 12.7634 21.0271 13.1105 20.2391ZM14.8505 19.0918L14.7173 18.7895L14.6566 19.1309L14.8505 19.0918ZM9.45604 26.2233C8.99166 25.6202 8.77814 25.3429 8.02812 24.9566C7.23906 24.5891 6.35535 24.5053 5.51568 24.7183C4.67601 24.9313 3.9279 25.4291 3.38877 26.1335C3.24953 25.9978 3.13705 25.8597 3.02082 25.7171L3.01267 25.7071C3.63485 24.9202 4.48876 24.3696 5.44175 24.1409C6.39473 23.9122 7.39345 24.0182 8.28274 24.4424C8.93329 24.7607 9.49114 25.2535 9.89927 25.8703L9.93056 25.9108L9.9306 25.9109C10.0979 26.1274 10.2859 26.3707 10.5277 26.655C11.2308 27.4759 12.096 28.1284 13.0638 28.5675C14.0315 29.0066 15.079 29.222 16.1341 29.1989C16.1229 29.3835 16.1074 29.566 16.0917 29.7504L16.0897 29.7739C14.9627 29.7909 13.8453 29.5552 12.8131 29.0827C11.781 28.6101 10.8582 27.9119 10.1072 27.0351C9.84087 26.7159 9.63997 26.4722 9.4601 26.2285L9.45604 26.2233ZM4.61858 23.8477C5.80109 23.3602 7.11914 23.3724 8.29314 23.8818L8.42163 23.9354L8.46134 23.9573H8.47302L8.51273 23.9744L8.67158 24.0646C9.30586 24.4148 9.85238 24.9157 10.2671 25.5267C10.2984 25.5674 10.3305 25.6096 10.3636 25.6531L10.3636 25.6532C10.5107 25.8464 10.677 26.0651 10.8791 26.2918C11.5405 27.0645 12.3556 27.6772 13.2674 28.0871C14.1793 28.4971 15.166 28.6944 16.1585 28.6653C16.171 28.472 16.1803 28.2795 16.1866 28.0878C15.2656 28.1231 14.3486 27.9461 13.5007 27.5696C12.6528 27.193 11.8949 26.6261 11.2809 25.9093C11.1221 25.7188 10.9828 25.5452 10.857 25.3884L10.8569 25.3884L10.8567 25.3881C10.7975 25.3144 10.7414 25.2444 10.6876 25.1782C10.227 24.5062 9.62326 23.9549 8.92387 23.5674V23.5528L8.69027 23.4407L8.49404 23.3603C7.44794 22.9149 6.29573 22.8162 5.19401 23.0778C4.0923 23.3394 3.09452 23.9486 2.33629 24.8224C2.44374 24.9857 2.55354 25.1465 2.668 25.3098C3.192 24.6613 3.86229 24.1589 4.61858 23.8477ZM7.31926 15.7651C7.33793 15.8016 7.35057 15.8412 7.35663 15.8821C7.37221 15.9526 7.38237 16.0243 7.387 16.0965C7.40569 16.168 7.41503 16.2386 7.41503 16.3085V16.5254V16.7374C7.40636 16.7841 7.40012 16.8313 7.39635 16.8787C7.37579 16.9945 7.3469 17.1086 7.30991 17.2198C7.296 17.2654 7.27962 17.3102 7.26086 17.3539L7.23282 17.4172L7.20479 17.4806L7.17209 17.5439L7.13938 17.6049L7.10434 17.6658C7.03254 17.7853 6.9496 17.8971 6.85672 17.9996L6.80767 18.0508C6.77668 18.0851 6.74393 18.1176 6.70955 18.1483L6.6932 18.1629L6.65115 18.1994L6.59509 18.2457L6.5437 18.2847L6.46661 18.3383L6.42222 18.3676L6.3755 18.3944C6.01979 18.602 5.61432 18.6984 5.20749 18.6722H5.11872C4.96532 18.6552 4.81415 18.6209 4.66787 18.5698L4.50902 18.5065C4.43893 18.4723 4.37119 18.4382 4.30345 18.3992L4.25439 18.3676C4.23796 18.3584 4.22233 18.3478 4.20767 18.3359L4.15861 18.3042C4.12824 18.2823 4.09554 18.2579 4.06751 18.2335L4.03714 18.2116L4.0021 18.1799L3.95071 18.1336L3.90165 18.0873C3.85589 18.0441 3.81296 17.9977 3.77317 17.9484L3.73345 17.9021L3.71009 17.8705C3.68786 17.8437 3.66813 17.8156 3.64816 17.7872L3.626 17.7559C3.41745 17.4426 3.29028 17.0782 3.25691 16.6984C3.24247 16.5253 3.24796 16.3511 3.27326 16.1793C3.28194 16.14 3.28819 16.1001 3.29195 16.0599C3.32269 15.8915 3.37371 15.7277 3.44379 15.5726C3.46248 15.5287 3.4835 15.4849 3.50452 15.4434C3.54891 15.3606 3.60731 15.2582 3.64936 15.1998C3.69141 15.1413 3.73345 15.0852 3.77784 15.0316C3.82222 14.9805 3.87128 14.9293 3.92034 14.8805C3.93634 14.8631 3.95351 14.8468 3.97173 14.8318L4.08386 14.7465L4.13992 14.7051C4.32533 14.566 4.53239 14.4613 4.75196 14.3956C4.79713 14.381 4.84151 14.3688 4.88512 14.3591C4.97422 14.3372 5.06482 14.3225 5.1561 14.3152C5.24863 14.3079 5.34155 14.3079 5.43408 14.3152C5.57123 14.3208 5.70745 14.3412 5.84055 14.3761C6.33039 14.5036 6.75991 14.8106 7.05061 15.2412C7.14367 15.3728 7.22205 15.5151 7.28422 15.6652L7.31926 15.7651ZM6.88943 16.6253C6.89177 16.5863 6.89177 16.5473 6.88943 16.5083L6.87775 16.4864V16.3792C6.85411 16.0975 6.75897 15.8275 6.6021 15.597C6.4459 15.3658 6.23419 15.1815 5.98818 15.0626C5.74218 14.9437 5.47053 14.8944 5.20048 14.9195C4.93121 14.9443 4.67315 15.0435 4.45295 15.2071C4.23185 15.3699 4.05612 15.5911 3.9437 15.8479C3.90801 15.9263 3.87909 16.0079 3.85726 16.0916L3.84325 16.1404C3.80541 16.3104 3.7928 16.4854 3.80587 16.6594C3.82663 16.9552 3.92347 17.2398 4.08619 17.483L4.10956 17.5123L4.1446 17.5415L4.18664 17.5951L4.20066 17.6122L4.24738 17.6658L4.2614 17.6804L4.31279 17.7316H4.32447C4.40108 17.804 4.48487 17.8677 4.57442 17.9216H4.59545L4.65151 17.9533H4.67254L4.70057 17.9752L4.7286 17.9874H4.74028C5.06629 18.1266 5.42808 18.1455 5.7658 18.041C5.87313 18.0117 5.97725 17.9709 6.07649 17.9192L6.12087 17.8948L6.17694 17.8607L6.2587 17.8071H6.27505C6.46837 17.6634 6.62808 17.4759 6.74226 17.2588L6.78664 17.1662C6.79248 17.1504 6.7989 17.1352 6.80533 17.1199C6.81175 17.1047 6.81818 17.0895 6.82402 17.0736C6.83946 17.0467 6.84977 17.0169 6.85439 16.9859V16.9664L6.87541 16.8836V16.8568L6.88943 16.7812V16.6253ZM32.0719 3.42541L32.0042 3.06938C31.8267 3.14985 31.6515 3.23033 31.4786 3.31324L32.0719 3.42541ZM43.8647 12.5076C44.2618 12.1762 44.7103 11.7985 45.2359 11.3111C46.6733 9.97233 47.8156 8.3246 48.5842 6.4813C49.3529 4.638 49.7295 2.64289 49.6884 0.633233L50.6905 0.711209C50.7216 2.85559 50.3105 4.98189 49.4851 6.94609C48.6596 8.91028 47.4392 10.6665 45.9064 12.0958C45.3714 12.5953 44.9112 12.9876 44.5047 13.3263L44.4732 13.3529C43.439 14.2239 42.9515 14.6346 42.2808 16.0506C41.6263 17.5549 41.4717 19.2439 41.8416 20.8501C42.2114 22.4564 43.0845 23.8879 44.3225 24.918C44.078 25.1763 43.8281 25.42 43.5727 25.649C42.1998 24.4611 41.24 22.8348 40.8415 21.0212C40.4429 19.2076 40.6278 17.3076 41.3675 15.6145V15.5852C42.1427 13.9483 42.7546 13.4364 43.8634 12.5086L43.8647 12.5076ZM40.7148 3.02087C40.1891 4.20712 39.2335 5.12722 38.0579 5.57908C36.8823 6.03094 35.5829 5.97762 34.445 5.43083C34.2849 5.35264 34.1289 5.26561 33.9778 5.1701L33.9123 5.12867L33.8399 5.09699C32.6491 4.59015 31.4057 4.22953 30.135 4.02238C29.6491 4.30017 29.1819 4.59421 28.7334 4.90449C30.3547 5.0283 31.9472 5.4181 33.4521 6.05951C33.6353 6.17435 33.824 6.27927 34.0175 6.37386C35.3979 7.03737 36.9745 7.10209 38.4007 6.5538C39.8268 6.00551 40.986 4.88906 41.6236 3.44974C42.0131 2.56529 42.1895 1.59492 42.1375 0.623096C41.8011 0.652337 41.467 0.684015 41.1353 0.720566C41.174 1.51141 41.0297 2.30035 40.7148 3.02087ZM28.6756 13.8677C26.8237 13.5371 24.9216 13.9845 23.3849 15.1122L23.3896 15.1024L23.212 15.234C21.7107 16.3992 20.7112 18.1356 20.4307 20.0656C20.1503 21.9955 20.6117 23.9629 21.7145 25.5399C22.8174 27.1168 24.4725 28.1758 26.3199 28.4864C28.1674 28.7971 30.0577 28.3343 31.5797 27.1987C31.6521 27.1451 31.7245 27.0915 31.7969 27.033C31.6007 26.5797 31.4208 26.1143 31.2596 25.644C31.1055 25.7853 30.9443 25.9169 30.7784 26.0412C29.7236 26.8148 28.4496 27.1948 27.1622 27.1199C25.8749 27.045 24.6493 26.5196 23.6835 25.6285C22.7176 24.7374 22.068 23.5327 21.8395 22.2089C21.6111 20.8852 21.8171 19.5198 22.4243 18.3333C23.0314 17.1467 24.0044 16.2083 25.1859 15.6698C26.3674 15.1312 27.6884 15.0238 28.9356 15.365C30.1829 15.7062 31.2834 16.476 32.0594 17.5501C32.8355 18.6243 33.2417 19.9399 33.2126 21.2846C33.6123 24.3135 34.8145 27.166 36.6839 29.521C36.3522 29.6379 36.0018 29.75 35.6514 29.8548C33.8078 27.413 32.6216 24.5026 32.2151 21.4235V21.2651C32.2174 21.0726 32.2104 20.8874 32.1964 20.7095C32.1018 19.6287 31.6682 18.6106 30.9627 17.813C30.2571 17.0154 29.3191 16.4829 28.2939 16.2978C27.2688 16.1128 26.2137 16.2857 25.2923 16.7896C24.3709 17.2936 23.6345 18.1005 23.1974 19.0853C22.7602 20.0702 22.6467 21.1779 22.8743 22.2369C23.1019 23.2958 23.6581 24.2469 24.4565 24.9427C25.2549 25.6385 26.2511 26.0402 27.2906 26.0855C28.33 26.1308 29.3548 25.8171 30.2061 25.1932C30.3433 25.0919 30.4751 24.9829 30.6009 24.8667L31.7128 23.8481L32.2127 25.3102C32.3646 25.7537 32.5351 26.1972 32.722 26.626L33.049 27.3839L32.4136 27.8883C32.3319 27.9541 32.2478 28.0175 32.166 28.0784C30.91 29.0054 29.4268 29.54 27.8901 29.6197C26.3534 29.6994 24.8267 29.3208 23.4888 28.5282C22.1508 27.7357 21.057 26.562 20.3353 25.1445C19.6136 23.727 19.2939 22.1244 19.4137 20.5243C19.7687 19.1914 20.1729 17.8926 20.6237 16.6742C21.3314 15.4967 22.3066 14.5196 23.4629 13.8293C24.6191 13.139 25.9208 12.757 27.2525 12.717C28.5842 12.677 29.9047 12.9802 31.0972 13.6C32.2896 14.2197 33.3171 15.1367 34.0886 16.2697L34.1073 16.294C35.0737 17.8087 35.1934 18.6225 35.408 20.0828L35.4084 20.0857C35.4832 20.6072 35.5743 21.1895 35.7168 21.9206C36.2142 24.416 37.3611 26.7202 39.0316 28.5804C38.7092 28.729 38.3798 28.8703 38.0435 29.0092C36.3827 27.058 35.2407 24.6871 34.731 22.1326C34.5908 21.4222 34.5036 20.8356 34.4269 20.3203L34.4156 20.2441L34.4076 20.1913C34.2007 18.8242 34.1036 18.1829 33.2686 16.8764C32.1788 15.2799 30.5276 14.1982 28.6756 13.8677ZM45.9683 13.8937C45.7788 14.001 45.5955 14.1198 45.4194 14.2494C44.1779 15.1646 43.3358 16.5568 43.0782 18.1196C42.8206 19.6824 43.1686 21.288 44.0458 22.5832C44.3819 23.0819 44.7901 23.5234 45.2558 23.8917C45.4754 23.631 45.6927 23.3605 45.9029 23.0827C45.3025 22.6195 44.8161 22.0141 44.4841 21.3163C44.152 20.6185 43.9837 19.8483 43.9931 19.0694C44.0024 18.2904 44.1892 17.5249 44.5379 16.836C44.8866 16.1471 45.3873 15.5545 45.9987 15.1072C46.1438 14.9992 46.2951 14.9008 46.4519 14.8123L46.5196 14.7733L46.5827 14.7222C49.5367 12.326 51.6403 8.97064 52.5606 5.18711C52.7568 3.81522 52.9063 2.41164 53.0068 0.986133L52.0724 0.861858C52.0731 3.37545 51.5236 5.85603 50.4658 8.11446C49.408 10.3729 47.8697 12.3495 45.9683 13.8937ZM49.8022 12.7973C50.0919 12.4391 50.3722 12.0638 50.6361 11.6837L51.1034 11.0014L51.365 11.1159C51.1758 11.8323 50.9749 12.5365 50.76 13.2237L50.5707 13.4674L50.6688 13.5064C50.5922 13.7672 50.5013 14.0265 50.4117 14.282C50.3866 14.3535 50.3617 14.4248 50.3371 14.4957L50.2484 14.4616L48.8468 13.9742L49.8022 12.7973ZM31.67 8.0091C32.3381 8.25277 32.8707 8.45746 33.3473 8.64997C34.6718 9.18849 35.4006 9.48334 37.1456 9.36638H37.176C38.5819 9.22998 39.9288 8.71067 41.0818 7.86046C42.2021 7.03378 43.1037 5.9248 43.7025 4.63679C44.3013 3.34878 44.5778 1.92365 44.5064 0.494117C44.2474 0.494117 43.9897 0.508571 43.7323 0.523008L43.7322 0.523012C43.6554 0.527318 43.5787 0.531623 43.5019 0.535542C43.5675 1.79124 43.3268 3.04379 42.8022 4.17607C42.2777 5.30835 41.4864 6.28339 40.5025 7.01003C39.4915 7.75286 38.3116 8.20653 37.0802 8.32588C35.5598 8.43064 34.978 8.19439 33.7125 7.68047L33.7117 7.68013C33.2281 7.48276 32.6791 7.26101 31.9854 7.01977C30.3821 6.47086 28.6982 6.22334 27.012 6.28874C26.6199 6.64961 26.2456 7.03105 25.8907 7.43158C27.8343 7.17589 29.8082 7.37313 31.67 8.0091ZM37.2918 19.7808C37.3642 20.2803 37.4483 20.8457 37.5815 21.5207C38.0483 23.8581 39.177 25.9956 40.8216 27.6564C40.5101 27.8351 40.1986 28.0057 39.8871 28.1681C38.2234 26.3958 37.0812 24.1634 36.5957 21.7351C36.4579 21.0357 36.3714 20.4558 36.2967 19.9441C36.0841 18.5015 35.9299 17.4634 34.8413 15.7577L34.8297 15.7406C33.4511 13.7096 31.357 12.3314 29.006 11.908C26.6551 11.4845 24.2392 12.0505 22.2875 13.4818C22.0983 13.6207 21.9185 13.7669 21.7409 13.9204C22.0508 13.2446 22.3763 12.5948 22.7174 11.971C24.8725 10.7596 27.3782 10.413 29.7615 10.9966C32.1449 11.5801 34.241 13.0536 35.6543 15.1388L35.673 15.1656C36.8687 17.027 37.0514 18.2159 37.2783 19.6928V19.6929L37.2918 19.7808ZM17.7535 30.5757C17.7535 30.6513 17.7535 30.7268 17.7348 30.8024L17.9871 30.8365C17.9007 30.7512 17.8212 30.6708 17.7535 30.5757ZM18.0928 27.8552C18.1241 27.9053 18.1556 27.9555 18.1895 28.0049C19.0523 29.2816 20.1506 30.366 21.4202 31.1945C20.7801 31.1483 20.1377 31.0922 19.493 31.0215C18.8961 30.4981 18.3485 29.9163 17.8577 29.2842C17.9068 28.7676 17.9605 28.2559 18.0236 27.7466C18.0472 27.7825 18.07 27.8188 18.0928 27.8552ZM34.0436 29.1435L33.4736 28.2492L32.6233 28.8657C31.4233 29.7407 30.0366 30.2967 28.5838 30.4854C27.1309 30.6741 25.6558 30.4898 24.2868 29.9484C22.9178 29.4071 21.6963 28.5251 20.7284 27.3792C19.7605 26.2333 19.0757 24.8581 18.7333 23.3732C18.5931 24.0539 18.4662 24.7435 18.3525 25.442C18.616 26.0528 18.9343 26.6362 19.3033 27.1843C20.7115 29.27 22.8045 30.744 25.1854 31.3268C27.2027 31.3095 29.2165 31.1467 31.2123 30.8394C31.9126 30.5445 32.5794 30.1694 33.2003 29.721C33.3404 29.9419 33.4853 30.1612 33.6348 30.3789C33.9945 30.296 34.3496 30.2108 34.7 30.1182C34.4711 29.8063 34.2492 29.4822 34.0436 29.1435ZM30.716 19.0283L30.7265 19.0453L30.7265 19.0453C30.74 19.0672 30.754 19.0899 30.7651 19.1112C30.7826 19.1424 30.8029 19.1718 30.8258 19.1989C31.1888 19.8739 31.3575 20.6438 31.3117 21.4163C31.31 21.4374 31.3072 21.4584 31.3045 21.4794C31.2999 21.5144 31.2954 21.5494 31.2954 21.5845C31.2649 21.8763 31.2046 22.1638 31.1155 22.4422C31.0848 22.5405 31.0623 22.5981 31.0134 22.7235L31.0034 22.7492C30.9495 22.8827 30.8871 23.0121 30.8165 23.1367C30.8001 23.1684 30.7838 23.2001 30.7651 23.2317L30.709 23.3219L30.6506 23.4145C30.6133 23.4729 30.5712 23.5314 30.5292 23.5899L30.5291 23.5899L30.4871 23.6435L30.4723 23.6638C30.4607 23.6799 30.4488 23.6964 30.4357 23.7118L30.3563 23.8092L30.2722 23.9043C30.1982 23.9895 30.1203 24.0708 30.0386 24.148C30.0129 24.1723 29.9872 24.1967 29.9592 24.2186L29.9054 24.2674L29.9054 24.2674L29.9053 24.2674L29.9053 24.2675C29.8399 24.321 29.7746 24.3746 29.7045 24.4233C28.9053 25.0152 27.9169 25.2598 26.948 25.1056C26.8779 25.0959 26.8079 25.0837 26.7401 25.069C26.4508 25.0076 26.1693 24.9111 25.9015 24.7815C25.815 24.745 25.7403 24.706 25.6679 24.6645C25.5228 24.5811 25.3824 24.4892 25.2474 24.3892C25.1469 24.3112 25.0488 24.2308 24.9554 24.1455C24.8619 24.0578 24.7732 23.9676 24.6891 23.8726C24.6815 23.864 24.6758 23.8578 24.6704 23.8519C24.656 23.8361 24.6442 23.8231 24.605 23.7751C24.5513 23.7093 24.4742 23.607 24.4485 23.5729C24.4228 23.5388 24.3971 23.5046 24.3737 23.4681C24.1334 23.1127 23.9511 22.7183 23.8341 22.3009C23.8086 22.221 23.7876 22.1396 23.771 22.0572C23.7341 21.8869 23.7076 21.7144 23.6916 21.5406C23.676 21.3648 23.6721 21.1882 23.6799 21.0118C23.6914 20.7507 23.7266 20.4912 23.785 20.2369C24.005 19.2966 24.5434 18.471 25.3011 17.9123C25.5318 17.7415 25.7802 17.5984 26.0416 17.4858L26.2168 17.4176C26.2753 17.3936 26.3376 17.3736 26.3986 17.3539L26.4201 17.3469C26.5486 17.3104 26.6607 17.2787 26.7822 17.2543C26.9048 17.2236 27.0299 17.2048 27.1559 17.1983C27.2817 17.1861 27.4081 17.1812 27.5344 17.1837C27.66 17.1836 27.7856 17.191 27.9105 17.2056C27.9837 17.2154 28.0615 17.2275 28.1441 17.2422C28.3481 17.2796 28.5488 17.3342 28.7444 17.4054C28.8262 17.4347 28.9033 17.4639 28.978 17.498L29.0925 17.5492L29.2046 17.6052L29.3144 17.6662L29.4219 17.7295L29.527 17.7953C29.7365 17.9319 29.9321 18.0903 30.111 18.268C30.1429 18.2963 30.1733 18.3264 30.2021 18.3582C30.2605 18.4191 30.3166 18.48 30.3703 18.5458L30.3983 18.5775L30.4614 18.6604C30.4894 18.6945 30.5151 18.7286 30.5408 18.7651L30.6109 18.8626L30.6233 18.8815L30.6234 18.8816C30.65 18.9221 30.6778 18.9643 30.702 19.0064L30.716 19.0283ZM30.0643 22.3399C30.0619 22.3319 30.0619 22.3234 30.0643 22.3155L30.0713 22.3082C30.3264 21.6991 30.375 21.0176 30.2091 20.3758C30.1577 20.1719 30.0857 19.9742 29.9942 19.7861L29.9521 19.7009L29.9458 19.6885L29.9458 19.6884C29.9309 19.6592 29.9205 19.6387 29.8937 19.5936C29.8634 19.5425 29.833 19.4913 29.8003 19.4401L29.7816 19.4084C29.5297 19.0424 29.2014 18.7408 28.8215 18.5263C28.7678 18.4971 28.7141 18.4679 28.658 18.441L28.4991 18.3704H28.4898C28.4389 18.3481 28.3866 18.3294 28.3333 18.3143H28.3029L28.1581 18.2729H28.109L27.9782 18.2461H27.9105L27.7983 18.2291H27.2353C26.7417 18.2756 26.2685 18.4569 25.8634 18.7548C25.4583 19.0527 25.1356 19.4566 24.9277 19.9259C24.7197 20.3953 24.634 20.9134 24.6791 21.4283C24.7241 21.9432 24.8984 22.4366 25.1843 22.8589C25.469 23.2804 25.8549 23.6165 26.3033 23.8336C26.4446 23.9025 26.5916 23.958 26.7424 23.9993C26.7713 24.01 26.801 24.0181 26.8312 24.0237C27.2185 24.1205 27.6211 24.1302 28.0122 24.052C28.4033 23.9739 28.774 23.8097 29.0995 23.5704H29.1112L29.1649 23.529L29.2326 23.473L29.3261 23.3926L29.3565 23.3657L29.379 23.3443L29.379 23.3443C29.4025 23.3221 29.4264 23.2995 29.4476 23.2756L29.4733 23.2512C29.5036 23.2195 29.534 23.1879 29.562 23.1538L29.5807 23.1318C29.7068 22.981 29.8187 22.8177 29.9148 22.6445L29.9358 22.6079L29.9919 22.4958L30.0105 22.4593L30.0409 22.3935C30.0525 22.3777 30.0605 22.3594 30.0643 22.3399ZM46.5408 15.9042C45.7305 16.504 45.1748 17.4082 44.9905 18.4266C44.8062 19.445 45.0077 20.4983 45.5527 21.3649L45.6087 21.4502V21.4648L45.6578 21.5331C45.7162 21.6184 45.7769 21.6988 45.8423 21.7768C45.9077 21.8547 45.9334 21.884 45.9825 21.9351L46.0385 21.9936L46.1086 22.0619C46.2133 22.1641 46.3241 22.2594 46.4403 22.347C46.6272 22.0813 46.8094 21.8084 46.9893 21.5282C46.4529 21.0982 46.08 20.4837 45.937 19.794C45.7939 19.1043 45.8899 18.384 46.208 17.7612C46.526 17.1384 47.0454 16.6533 47.6739 16.3923C48.3024 16.1312 48.9993 16.1111 49.6407 16.3355C49.6991 16.1917 49.7545 16.0468 49.8101 15.9011C49.8723 15.7381 49.935 15.5742 50.0028 15.4095C49.4296 15.1989 48.8165 15.1339 48.2144 15.2199C47.6123 15.306 47.0386 15.5405 46.5408 15.9042ZM38.9806 2.18005C39.0845 1.94777 39.1575 1.70184 39.1979 1.44903C39.2215 1.29429 39.2332 1.13784 39.2329 0.981167C39.5646 0.927558 39.8987 0.878823 40.2374 0.832525C40.2685 1.67254 40.0409 2.50087 39.588 3.19619C39.4706 3.37386 39.341 3.54244 39.2002 3.7006C39.0277 3.89035 38.8376 4.06176 38.6326 4.21232L38.6069 4.23181L38.5228 4.29029L38.4504 4.34146L38.3616 4.39507L38.2915 4.4365L38.2915 4.43653C38.2634 4.45358 38.2354 4.47062 38.2051 4.48523L38.149 4.51691C38.0626 4.56321 37.9738 4.60463 37.885 4.64362L37.7846 4.68505C37.7539 4.70255 37.7208 4.71488 37.6865 4.7216L37.586 4.75815L37.3851 4.81907L37.1796 4.86781L37.0815 4.8873C36.9047 4.92017 36.7259 4.93971 36.5465 4.94578H36.4461C36.1313 4.94676 35.8176 4.90831 35.5116 4.83125L35.3925 4.79958C35.0032 4.68599 34.6335 4.50919 34.2969 4.27567L34.2315 4.23181L34.096 4.12947C34.0096 4.0588 33.9255 3.98813 33.8461 3.91259L33.8204 3.88823C33.8138 3.88196 33.8071 3.87585 33.8006 3.86978C33.7816 3.85225 33.763 3.83503 33.7456 3.81512L33.7059 3.7737L33.6008 3.66404L33.4957 3.53733L33.4816 3.52027L33.4022 3.41793L33.3812 3.38869C33.3488 3.34726 33.3184 3.30416 33.2901 3.25954C33.1618 3.07222 33.05 2.87322 32.956 2.66497C33.1083 2.61164 33.2616 2.55312 33.4161 2.49418C33.5792 2.43193 33.7436 2.36921 33.9091 2.31164C33.9673 2.42817 34.0328 2.54051 34.1054 2.64791L34.1311 2.68203L34.2432 2.83311L34.3016 2.91108L34.3927 3.01099L34.4534 3.07678L34.624 3.23517C34.6722 3.27746 34.7237 3.31642 34.7744 3.3548C34.785 3.36286 34.7956 3.3709 34.8062 3.37894H34.8202C35.0762 3.56385 35.3595 3.70378 35.6588 3.79319L35.7453 3.81756H35.7616L35.9041 3.84924H35.9485H36.0419C36.2516 3.88047 36.464 3.88619 36.675 3.8663C37.0114 3.83616 37.3398 3.74288 37.6444 3.59094L37.7799 3.52027L37.8009 3.50809L37.9154 3.43742L37.9832 3.39113L38.0462 3.34726C38.4503 3.05028 38.7725 2.64778 38.9806 2.18005Z" fill="#FEFEFE"/>
</svg>
