<svg width="88" height="77" viewBox="0 0 88 77" fill="none" xmlns="http://www.w3.org/2000/svg">
<path d="M46.3801 74.0701C46.3378 74.0701 46.2955 74.0701 46.2754 74.0932C46.2635 74.1449 46.2416 74.1935 46.211 74.236C46.1606 74.3167 46.0916 74.3828 46.0103 74.4283C45.929 74.4739 45.838 74.4973 45.7458 74.4965C45.3027 74.4965 44.8999 73.8327 44.6039 72.5743L43.4197 67.7678C42.8921 65.5873 41.4743 64.4949 39.2107 64.4949C38.1269 64.4615 37.0587 64.7697 36.1455 65.3793V66.6692C36.5483 66.5683 37.0941 66.3519 37.6982 66.3519C38.6287 66.3519 39.2207 66.9212 39.4966 68.1775L39.8249 69.5472C39.3019 69.3248 38.74 69.2195 38.1755 69.2384C35.2997 69.2384 33.459 70.7089 33.459 72.963C33.459 75.1688 35.2997 76.7569 37.8573 76.7569C38.9791 76.7569 40.3123 76.3557 40.9446 75.8326C41.1158 75.715 41.2004 75.6225 41.2427 75.5952C41.2749 75.5738 41.3103 75.5582 41.3474 75.549C41.4119 75.549 41.432 75.5721 41.4743 75.6204L41.6857 75.8557C42.2355 76.4502 42.9545 76.7338 43.8849 76.7338C45.496 76.7338 46.656 75.8326 46.656 74.5764C46.656 74.2171 46.5715 74.0701 46.3801 74.0701ZM39.2328 74.9104C38.1332 74.9104 37.3075 73.9608 37.3075 72.7046C37.3075 71.5429 38.0487 70.6879 39.0415 70.6879C39.4582 70.6834 39.8657 70.8165 40.2055 71.0681L40.6808 73.1541C40.7234 73.325 40.7451 73.5007 40.7453 73.6772C40.7352 74.3831 40.0988 74.9104 39.2328 74.9104Z" fill="url(#paint0_linear_303_87)"/>
<path d="M14.2423 59.7009L9.95871 72.0113C9.89628 72.2025 9.78954 72.3201 9.68482 72.3201C9.58009 72.3201 9.48343 72.2256 9.43107 72.0827L5.21599 59.7009H0L6.36391 76.3997C6.44849 76.6854 6.53307 76.7548 6.82911 76.7548H10.2709C10.587 76.7548 10.6092 76.7317 10.7139 76.4229L16.808 59.7009H14.2423Z" fill="url(#paint1_linear_303_87)"/>
<path d="M31.6182 64.5136C31.745 64.5136 31.8296 64.5851 31.8296 64.6565C31.8196 64.7364 31.8055 64.8156 31.7873 64.8939L31.4168 65.9611C31.3884 66.0578 31.3287 66.1412 31.2479 66.1971C31.1671 66.2531 31.0702 66.278 30.9737 66.2678H29.0605C28.8491 66.2678 28.7846 66.3644 28.7846 66.6249V73.5111C28.7846 74.4838 29.1028 74.8871 29.8218 74.8871C30.3183 74.8657 30.7941 74.6736 31.1751 74.3409C31.4711 74.1035 31.6826 73.9607 31.8095 73.9607C31.9551 73.9667 32.0926 74.0326 32.1918 74.144C32.2911 74.2554 32.344 74.4032 32.3391 74.5552C32.3381 74.5629 32.3381 74.5706 32.3391 74.5783C32.3391 75.6917 30.1238 76.7589 27.8361 76.7589C25.8061 76.7589 24.7468 76.1055 24.7468 74.9669V66.6249C24.7468 66.3875 24.64 66.2678 24.4507 66.2678H23.4981C23.4334 66.2771 23.3676 66.2714 23.3052 66.2512C23.2429 66.231 23.1855 66.1967 23.1373 66.1508C23.089 66.1049 23.0511 66.0485 23.0261 65.9856C23.0011 65.9226 22.9897 65.8547 22.9927 65.7867C22.9927 65.6669 23.0208 65.3329 23.5968 64.9464C25.2784 63.9485 26.5915 62.4717 27.5863 60.9991C27.8401 60.6441 28.0294 60.5012 28.263 60.5012C28.4126 60.5131 28.5518 60.5858 28.6505 60.7037C28.7492 60.8216 28.7995 60.9752 28.7906 61.1314V64.4926L31.6182 64.5136Z" fill="url(#paint2_linear_303_87)"/>
<path d="M58.6215 65.1817C58.5792 64.9191 58.5168 64.8246 58.3255 64.8246C58.2519 64.8181 58.1783 64.835 58.114 64.8729L55.1053 66.0871C54.9546 66.1487 54.8253 66.2562 54.734 66.3956C54.6428 66.535 54.5939 66.6998 54.5938 66.8686V76.7421H58.6316V74.1414C58.6316 74.0111 58.6215 73.8641 58.6215 73.7023V65.1817Z" fill="url(#paint3_linear_303_87)"/>
<path d="M57.8784 59.995C56.6923 59.7513 55.0932 60.8353 54.5152 62.2764C54.469 62.3998 54.4326 62.527 54.4065 62.6567C54.2494 63.497 54.622 64.1146 55.3893 64.2721C56.0861 64.415 57.0971 64.0453 57.8301 63.331C58.3168 62.8809 58.6615 62.2877 58.8189 61.6294C58.9881 60.7702 58.6055 60.1463 57.8784 59.995Z" fill="url(#paint4_linear_303_87)"/>
<path d="M21.565 65.1818C21.5227 64.9192 21.4602 64.8247 21.2689 64.8247C21.1987 64.8203 21.1288 64.8371 21.0675 64.873L18.0467 66.0872C17.896 66.1488 17.7667 66.2563 17.6754 66.3957C17.5842 66.5351 17.5353 66.6999 17.5352 66.8687V76.7422H21.5629V65.1881L21.565 65.1818Z" fill="url(#paint5_linear_303_87)"/>
<path d="M20.8211 59.995C19.635 59.7513 18.0379 60.8353 17.4579 62.2764C17.4117 62.3998 17.3753 62.527 17.3492 62.6567C17.1941 63.497 17.5647 64.1146 18.332 64.2721C19.0288 64.415 20.0397 64.0453 20.7728 63.331C21.2595 62.8809 21.6042 62.2877 21.7616 61.6294C21.9328 60.7702 21.5502 60.1463 20.8211 59.995Z" fill="url(#paint6_linear_303_87)"/>
<path d="M52.5417 74.1856V59.6904C52.4994 59.4068 52.4571 59.3354 52.2658 59.3354C52.1879 59.3305 52.1098 59.3383 52.0342 59.3585L49.0134 60.6001C48.8638 60.6622 48.7355 60.7697 48.645 60.9086C48.5546 61.0475 48.5061 61.2115 48.5059 61.3794V76.7443H52.5336L52.5417 74.1856Z" fill="url(#paint7_linear_303_87)"/>
<path d="M70.8561 69.5998C70.133 69.1122 69.3395 68.7491 68.5059 68.5242L65.9422 67.8121C64.8648 67.5053 64.5989 67.2974 64.5687 66.7617C64.5345 66.1903 65.038 65.7323 65.7972 65.684C67.1485 65.5979 68.9288 66.3331 70.2278 67.5264C70.4976 67.81 70.7151 67.8961 70.8843 67.8856C70.9428 67.8821 71 67.8666 71.0527 67.84C71.1055 67.8134 71.1527 67.7762 71.1916 67.7305C71.2305 67.6848 71.2604 67.6316 71.2795 67.5739C71.2987 67.5161 71.3067 67.455 71.3032 67.394C71.3032 67.394 71.3032 67.3709 71.3032 67.3583C71.2664 67.1618 71.1826 66.9783 71.0595 66.8247C69.7323 64.8857 66.5021 63.9866 64.4801 64.1168C62.0312 64.2723 60.3637 65.8311 60.4825 67.8499C60.549 68.9717 61.1552 69.9086 62.2507 70.5388C62.8891 70.959 63.4752 71.1858 64.603 71.6144L66.1174 72.1438C67.6741 72.6942 68.1635 73.0891 68.2078 73.837C68.2521 74.5849 67.6902 75.1457 66.784 75.2046C65.8777 75.2634 64.1659 74.7088 62.7824 73.7025C62.4222 73.4272 62.0896 73.1147 61.7895 72.7698C61.423 72.3181 61.2236 72.1816 60.984 72.1963C60.7101 72.2131 60.5349 72.4988 60.555 72.8265C60.5716 73.0507 60.6407 73.2671 60.7564 73.4568L60.9115 73.7172C62.295 75.7466 65.0178 76.4125 65.0178 76.4125C66.0871 76.6498 67.1793 76.7562 68.2723 76.7297C70.7836 76.5701 72.5417 74.7319 72.4048 72.4127C72.3778 71.8496 72.2234 71.3011 71.9543 70.8122C71.6851 70.3233 71.3088 69.9079 70.8561 69.5998Z" fill="url(#paint8_linear_303_87)"/>
<path d="M83.7583 69.5998C83.0352 69.1122 82.2416 68.7491 81.408 68.5242L78.8444 67.8121C77.7669 67.5053 77.5011 67.2974 77.4709 66.7617C77.4366 66.1903 77.9401 65.7323 78.6994 65.684C80.0507 65.5979 81.831 66.3331 83.1299 67.5264C83.3998 67.81 83.6173 67.8961 83.7865 67.8856C83.8449 67.8821 83.9022 67.8666 83.9549 67.84C84.0076 67.8134 84.0548 67.7762 84.0937 67.7305C84.1327 67.6848 84.1625 67.6316 84.1817 67.5739C84.2009 67.5161 84.2089 67.455 84.2053 67.394C84.2053 67.394 84.2053 67.3709 84.2053 67.3583C84.1686 67.1618 84.0847 66.9783 83.9617 66.8247C82.6345 64.8857 79.4042 63.9866 77.3823 64.1168C74.9334 64.2723 73.2679 65.8311 73.3847 67.8499C73.4511 68.9717 74.0573 69.9086 75.1529 70.5388C75.7913 70.959 76.3773 71.1859 77.5051 71.6144L79.0196 72.1438C80.5763 72.6942 81.0657 73.0891 81.11 73.837C81.1543 74.5849 80.5924 75.1458 79.6862 75.2046C78.7799 75.2634 77.0681 74.7088 75.6845 73.7025C75.3244 73.4272 74.9918 73.1147 74.6917 72.7698C74.3252 72.3182 74.1258 72.1816 73.8861 72.1963C73.6123 72.2131 73.4391 72.4988 73.4572 72.8265C73.475 73.0504 73.5441 73.2665 73.6586 73.4568L73.8136 73.7172C75.1972 75.7466 77.92 76.4125 77.92 76.4125C78.9913 76.6502 80.0855 76.7567 81.1805 76.7297C83.6918 76.5701 85.4499 74.7319 85.313 72.4127C85.2854 71.849 85.1301 71.3002 84.8598 70.8113C84.5896 70.3223 84.2121 69.9071 83.7583 69.5998Z" fill="url(#paint9_linear_303_87)"/>
<path fill-rule="evenodd" clip-rule="evenodd" d="M64.1935 14.9212C66.3208 14.5961 68.3451 13.754 70.1032 12.4628C71.9998 11.0646 73.5267 9.18877 74.5419 7.00982C75.5571 4.83087 76.0276 2.41952 75.9097 0H77.444C77.5572 2.67047 77.0259 5.32784 75.8988 7.72849C74.7718 10.1291 73.085 12.1963 70.9932 13.7403C69.0389 15.1729 66.7888 16.1054 64.4249 16.4624V16.5069L63.5989 16.5663L62.8869 16.6295V16.6035C60.013 16.691 58.3958 16.0443 56.5785 15.3176L56.4788 15.2777L56.429 15.2592C55.7526 14.9844 54.9871 14.6761 54.058 14.353C50.5564 13.1522 46.7801 13.1392 43.271 14.3159C43.7504 13.5955 44.2464 12.9085 44.7591 12.2549C48.0119 11.5465 51.3863 11.745 54.5421 12.8305C55.4555 13.1434 56.2061 13.4463 56.8696 13.714L56.9808 13.7589L57.0342 13.7811C58.8178 14.5053 60.2276 15.0772 62.8335 14.9955H63.2892H63.4637H63.72L64.1935 14.9212ZM68.1951 33.66C66.8993 30.2296 66.9312 26.4083 68.2841 23.002L68.4336 22.6306L68.487 22.5192V22.4561L68.5369 22.3409L68.7754 21.8842C70.0107 19.4852 71.1891 18.5011 72.6915 17.2533L72.8241 17.1417L72.8242 17.1416L72.8243 17.1415L72.8249 17.141C73.3832 16.6713 74.0128 16.1416 74.7278 15.4782C76.7896 13.5607 78.4252 11.1968 79.5203 8.5516C80.6155 5.90638 81.1438 3.04364 81.0683 0.16336C80.5521 0.129938 80.0466 0.107656 79.5304 0.0853748C79.6193 2.75199 79.1449 5.40636 78.1408 7.86044C77.1368 10.3145 75.6276 12.5082 73.7203 14.2862C72.9798 14.9732 72.3283 15.5191 71.7445 16.0055C70.1887 17.3053 68.8324 18.4454 67.451 21.1229L67.4119 21.1043L67.1128 21.8099L66.8458 22.3781H66.8743C65.6781 25.4112 65.4078 28.7555 66.1004 31.9547C66.7929 35.154 68.4145 38.0526 70.7441 40.2553C71.182 39.9471 71.6092 39.6277 72.0186 39.2972C70.3201 37.7738 69.007 35.8378 68.1951 33.66ZM7.31505 15.9685L7.105 16.1801C7.10948 16.149 7.11333 16.1179 7.11707 16.0876C7.12227 16.0456 7.12728 16.0051 7.13348 15.9685H7.31505ZM15.2893 29.445C15.1114 29.4562 14.9331 29.4562 14.7553 29.445C12.3314 29.7843 10.046 30.8207 8.1549 32.4382C8.06234 32.1448 7.97334 31.844 7.89146 31.5432C9.84923 29.9316 12.1847 28.8956 14.6556 28.5426H14.7837C14.9307 28.5538 15.0782 28.5538 15.2252 28.5426C16.1083 28.4588 16.9387 28.0672 17.5825 27.431C18.2263 26.7949 18.646 25.9511 18.7741 25.0358C18.9021 24.1204 18.7309 23.1867 18.2882 22.3852C17.8455 21.5837 17.157 20.961 16.3336 20.6174C15.5102 20.2739 14.5999 20.2295 13.7494 20.4914C12.8989 20.7533 12.1577 21.3063 11.6452 22.0612C11.1327 22.8162 10.8788 23.7291 10.9244 24.653C10.97 25.5768 11.3124 26.4577 11.8965 27.1538L12.7153 28.123L11.537 28.5686C11.1988 28.7023 10.8428 28.8509 10.4867 29.0106L9.87797 29.2965L9.47213 28.7432C9.45884 28.7244 9.4453 28.7056 9.43171 28.6867C9.39432 28.6347 9.35655 28.5823 9.3226 28.5278C8.57973 27.4333 8.15127 26.1406 8.08742 24.8012C8.02357 23.4617 8.32697 22.1311 8.96208 20.9651C9.5972 19.7991 10.5377 18.846 11.6734 18.2176C12.8092 17.5891 14.0931 17.3113 15.3747 17.4167C16.4427 17.7249 17.4716 18.0963 18.4577 18.4677C19.2269 18.9748 19.8884 19.6409 20.4015 20.4247C21.4363 21.9517 21.8477 23.8447 21.5453 25.6878C21.2429 27.5309 20.2515 29.1735 18.7888 30.2546H18.7675C17.5535 31.0976 16.9091 31.2016 15.7343 31.391L15.6396 31.4066L15.5376 31.4233C15.1751 31.4825 14.7499 31.552 14.264 31.6583C12.2631 32.0907 10.4153 33.0904 8.92388 34.5475C8.79215 34.2653 8.67823 33.9756 8.56787 33.6823C10.1308 32.2363 12.0297 31.2428 14.0753 30.8005C14.6734 30.6705 15.1611 30.5925 15.5883 30.5257L15.6283 30.5192C16.7254 30.3419 17.228 30.2606 18.2833 29.5267C19.2405 28.8202 19.9754 27.8335 20.3952 26.6914C20.815 25.5493 20.9008 24.303 20.6418 23.1101C20.3829 21.9171 19.7907 20.831 18.9402 19.9889C18.0896 19.1469 17.0189 18.5868 15.8633 18.3793C14.7077 18.1718 13.519 18.3263 12.4476 18.8233C11.3761 19.3202 10.4699 20.1373 9.84346 21.1713C9.21702 22.2053 8.89847 23.4098 8.92806 24.6326C8.95765 25.8554 9.33405 27.0416 10.0097 28.0413L10.145 28.2307C10.5081 28.0599 10.8997 27.9039 11.2557 27.7628C11.1432 27.6287 11.0374 27.4887 10.9389 27.3431C10.3329 26.4439 10.0282 25.3612 10.072 24.263C10.1158 23.1647 10.5058 22.1122 11.1813 21.2686C11.8569 20.425 12.7804 19.8374 13.8086 19.597C14.8368 19.3565 15.9124 19.4765 16.8686 19.9385C17.8248 20.4005 18.6081 21.1786 19.0973 22.1522C19.5864 23.1258 19.754 24.2405 19.5741 25.3236C19.3942 26.4067 18.8768 27.3976 18.1021 28.1427C17.3274 28.8878 16.3387 29.3456 15.2893 29.445ZM29.0839 29.6085H29.059L28.9771 29.6791L28.8774 29.7719L28.7884 29.861L28.7564 29.8944L28.6959 29.9613V29.9836C28.6354 30.0541 28.5784 30.1247 28.5214 30.2027L28.4396 30.3215L28.404 30.3772C28.2167 30.6698 28.076 30.9921 27.9874 31.3316C27.9895 31.35 27.988 31.3687 27.9831 31.3866C27.9782 31.4044 27.97 31.4211 27.9589 31.4356C27.8974 31.7006 27.8675 31.9725 27.8699 32.2452V32.3306C27.8765 32.4873 27.892 32.6436 27.9162 32.7985C27.9081 32.825 27.9081 32.8536 27.9162 32.8802C27.9345 32.9395 27.9476 33.0004 27.9554 33.0621C27.9554 33.0999 27.9683 33.1362 27.9814 33.1729C27.9889 33.1939 27.9965 33.215 28.0017 33.2367C28.0092 33.2658 28.0187 33.2944 28.0301 33.3221L28.0693 33.4224L28.1013 33.5078C28.1334 33.5858 28.1654 33.6637 28.2046 33.738C28.2107 33.7552 28.2191 33.7715 28.2295 33.7863C28.2404 33.8122 28.2535 33.8371 28.2687 33.8606L28.3007 33.9237L28.3434 34.0017L28.3862 34.0648C28.3995 34.0897 28.415 34.1134 28.4324 34.1354V34.1651C28.5523 34.3439 28.6895 34.5094 28.8418 34.659C28.9698 34.782 29.1054 34.8961 29.2477 35.0006C29.3936 35.1005 29.5458 35.1898 29.7034 35.268C30.1492 35.4822 30.6368 35.5852 31.1274 35.5688C31.0918 35.2754 31.0526 34.9821 31.0099 34.6924C30.8907 34.6917 30.7717 34.6818 30.6539 34.6627C30.0386 34.5453 29.4932 34.178 29.1373 33.6415L29.1053 33.5895L29.0661 33.5301L28.9949 33.4224C28.9736 33.3815 28.9558 33.3444 28.938 33.3035C28.8171 33.0397 28.7424 32.7555 28.7172 32.4643C28.6959 32.2805 28.6959 32.0947 28.7172 31.9109V31.7921C28.7218 31.7493 28.7301 31.707 28.7422 31.6658V31.5878C28.8128 31.323 28.9246 31.0721 29.0732 30.8451C29.1088 30.7894 29.148 30.7374 29.1872 30.6854C29.2111 30.6554 29.2367 30.6271 29.2628 30.5982C29.2755 30.5842 29.2883 30.57 29.3011 30.5555C29.3194 30.54 29.3361 30.5226 29.3509 30.5035L29.4328 30.4255L29.4898 30.3735L29.6108 30.2769C29.6964 30.2144 29.7855 30.1573 29.8778 30.1061C29.7888 29.8239 29.6927 29.5492 29.5966 29.2744L29.5966 29.2743C29.4294 29.3555 29.2698 29.4525 29.1195 29.5639L29.0839 29.6085ZM22.7297 33.5114L22.7083 33.0509L22.6941 32.6239C22.6558 31.3634 22.8996 30.111 23.4061 28.966V28.9511C23.5521 28.5649 23.7123 28.1267 23.8831 27.5957C24.5154 25.5935 24.5216 23.4335 23.9009 21.4274C24.257 21.7022 24.613 21.9881 24.969 22.2815C25.3494 24.1534 25.2486 26.0969 24.677 27.915C24.499 28.4646 24.3353 28.914 24.1857 29.3076V29.3373C23.7277 30.3654 23.5059 31.4907 23.5378 32.6239V32.9952V33.1252L23.577 33.3963C23.8524 35.3267 24.8072 37.0808 26.2552 38.3167C27.7033 39.5525 29.5407 40.1814 31.4091 40.0808V40.9572C29.338 41.0557 27.3057 40.3486 25.706 38.9729C24.1063 37.5972 23.0533 35.651 22.751 33.5114H22.7297ZM25.8549 23.0688C26.0575 24.7696 25.8945 26.4961 25.3779 28.123C25.1963 28.706 25.0219 29.1702 24.8652 29.5825C24.4345 30.7374 24.1995 31.3761 24.2921 32.895V32.921C24.4551 34.7401 25.2883 36.4223 26.6163 37.6136C27.9443 38.8049 29.6635 39.4124 31.4122 39.3084C31.4122 39.0867 31.4 38.8651 31.3879 38.6451C31.384 38.5739 31.3801 38.5028 31.3766 38.4319C29.8449 38.5245 28.3385 37.9931 27.175 36.9499C26.0114 35.9066 25.2816 34.4328 25.1394 32.8393C25.0539 31.514 25.2425 31.0088 25.6551 29.903L25.6556 29.9018C25.6823 29.8318 25.71 29.7602 25.7384 29.6866C25.8805 29.3194 26.0407 28.9052 26.186 28.4164C26.6296 27.0049 26.8285 25.5223 26.7734 24.0381C26.4886 23.715 26.1789 23.3956 25.8549 23.0688ZM19.6608 31.5916C18.568 32.3899 17.2941 32.8763 15.9654 33.0027C15.5596 33.051 15.1075 33.1401 14.5841 33.2701C12.7157 33.6774 11.007 34.6591 9.67837 36.0887C9.53596 35.8251 9.40068 35.554 9.26896 35.2792C10.6868 33.8262 12.4748 32.8286 14.4204 32.4048C14.9496 32.2909 15.3969 32.2179 15.7938 32.1532L15.8444 32.1449C17.0492 32.0335 18.2053 31.5957 19.198 30.8748C20.8235 29.6726 21.9259 27.8471 22.2636 25.7986C22.6013 23.75 22.1466 21.6453 20.9994 19.9457C20.9024 19.7956 20.7944 19.657 20.6875 19.5197L20.6434 19.463C21.1881 19.7341 21.7078 20.02 22.2098 20.3171C23.1816 22.194 23.4611 24.3771 22.9954 26.4543C22.5298 28.5314 21.3511 30.3589 19.6821 31.5916H19.6608ZM7.67732 30.7448C7.93009 30.5443 8.18997 30.3512 8.45342 30.1729L9.16543 29.679L8.67058 28.9363C7.53944 27.2358 7.09714 25.1385 7.43976 23.0998C7.78238 21.0611 8.88224 19.2458 10.5005 18.0481C11.2771 17.4755 12.1522 17.0645 13.0779 16.8374C12.5297 16.7136 11.9743 16.6022 11.4118 16.5032C10.9214 16.7301 10.4539 17.0075 10.0163 17.3313C8.34809 18.5581 7.17089 20.3822 6.70898 22.4561C6.70999 24.2117 6.82895 25.9651 7.06499 27.7034C7.29851 28.3158 7.59958 28.8978 7.96213 29.4376C7.88224 29.4926 7.80235 29.5506 7.72342 29.6079L7.7234 29.608L7.72337 29.608L7.72335 29.608L7.72334 29.608C7.62644 29.6783 7.531 29.7476 7.4388 29.809C7.4965 30.0297 7.55096 30.2454 7.60327 30.4525L7.60332 30.4527L7.60333 30.4527C7.62845 30.5522 7.65307 30.6497 7.67732 30.7448ZM9.3648 16.3584C8.34309 17.1105 7.47533 18.0674 6.81224 19.1733C6.85496 18.6163 6.90124 18.0555 6.95108 17.4948C7.37088 16.9747 7.83696 16.4972 8.34306 16.0688C8.75603 16.1133 9.16544 16.1579 9.57484 16.2136L9.3648 16.3584ZM21.5509 43.9021L20.5933 43.0777L20.1981 44.2995C20.1902 44.326 20.1807 44.3521 20.1696 44.3774C20.4331 44.4777 20.6965 44.5743 20.9635 44.6671L20.9955 44.5817C21.0368 44.618 21.0794 44.6515 21.1218 44.6847L21.1219 44.6848C21.1488 44.706 21.1757 44.7271 21.202 44.7488C21.7503 44.9382 22.3092 45.1202 22.8788 45.2724L22.9678 45.0459L22.4303 44.6374C22.1383 44.4034 21.8393 44.1583 21.5509 43.9021ZM19.503 42.0573C19.6933 42.723 19.6801 43.434 19.4651 44.0915L19.3287 44.0328C19.1256 43.9456 18.9251 43.8595 18.7388 43.7684C18.8983 43.2707 18.9032 42.7332 18.753 42.2324C18.6028 41.7316 18.3051 41.2929 17.9022 40.9787C17.4993 40.6646 17.0117 40.4909 16.5087 40.4823C16.0057 40.4738 15.513 40.6309 15.1005 40.9312C14.9011 41.0767 14.7256 41.2547 14.5807 41.4585C14.3564 41.3026 14.1392 41.1429 13.9256 40.9795C13.9966 40.8788 14.0726 40.7821 14.1535 40.6898L14.2069 40.6304L14.2567 40.5821C14.2957 40.5374 14.3373 40.4952 14.3813 40.4559C14.4418 40.4002 14.5059 40.3482 14.57 40.2962L14.6234 40.2553L14.691 40.2071C15.25 39.8295 15.9079 39.643 16.5732 39.6734C17.2385 39.7039 17.8781 39.9499 18.4032 40.3771C18.9283 40.8044 19.3127 41.3917 19.503 42.0573ZM31.1095 45.874C29.0975 45.8756 27.1117 45.3981 25.3034 44.4778C23.4951 43.5575 21.9121 42.2187 20.675 40.5636C20.5824 40.3927 20.4898 40.2331 20.3902 40.0845C19.9575 39.4417 19.3854 38.9147 18.7204 38.5464C18.0555 38.1781 17.3165 37.979 16.5637 37.9652C15.8109 37.9515 15.0656 38.1235 14.3887 38.4673C13.7118 38.811 13.1223 39.3168 12.6684 39.9434C12.8068 40.0729 12.95 40.1957 13.0959 40.3207C13.1676 40.3822 13.24 40.4442 13.3127 40.5079C13.56 40.1571 13.8606 39.851 14.2028 39.6018C15.0585 38.9743 16.1176 38.726 17.1484 38.9111C18.1792 39.0962 19.0978 39.6997 19.7031 40.5896C19.7889 40.717 19.8673 40.8497 19.938 40.9869L19.9701 41.0463L20.0092 41.0983C21.9432 43.6759 24.6471 45.5057 27.6918 46.2974C28.7777 46.4645 29.8813 46.5907 31.0098 46.6687C31.0432 46.4353 31.0735 46.179 31.1036 45.9243L31.1095 45.874ZM26.6883 30.1507C26.7633 29.9811 26.8477 29.8162 26.9411 29.6568C27.4568 28.3447 27.7716 26.9562 27.8738 25.5421C28.1319 25.9333 28.3696 26.3386 28.5858 26.7564C28.422 27.8659 28.134 28.9515 27.7279 29.991L27.7029 30.0541L27.6709 30.1135C27.5939 30.2444 27.5238 30.3795 27.4609 30.5183C27.1816 31.1584 27.0642 31.8625 27.12 32.5634C27.1759 33.2642 27.4029 33.9385 27.7796 34.5217C28.1563 35.105 28.6701 35.5778 29.2718 35.8951C29.8735 36.2123 30.5431 36.3633 31.2167 36.3338C31.2452 36.6272 31.2701 36.9168 31.2951 37.2139C30.5152 37.2614 29.7361 37.1071 29.0273 36.7646C27.8774 36.2098 26.9854 35.2019 26.547 33.962C26.1085 32.7222 26.1593 31.3515 26.6883 30.1507ZM29.3404 28.4015L29.1374 27.941L29.0449 28.461L29.3404 28.4015ZM21.1207 39.2707C20.413 38.3515 20.0876 37.9289 18.9446 37.3402C17.742 36.7801 16.3953 36.6524 15.1156 36.977C13.836 37.3016 12.6959 38.0603 11.8743 39.1339C11.6621 38.927 11.4906 38.7166 11.3135 38.4992L11.3011 38.484C12.2493 37.2847 13.5506 36.4456 15.003 36.0971C16.4553 35.7486 17.9773 35.9101 19.3326 36.5566C20.324 37.0417 21.1742 37.7927 21.7962 38.7328L21.844 38.7946C22.0989 39.1246 22.3854 39.4953 22.7538 39.9286C23.8254 41.1797 25.1439 42.1741 26.6188 42.8433C28.0937 43.5126 29.69 43.8408 31.298 43.8056C31.2809 44.0869 31.2573 44.3649 31.2334 44.646L31.2303 44.682C29.5127 44.7079 27.8098 44.3486 26.2368 43.6284C24.6639 42.9083 23.2575 41.8441 22.113 40.5079C21.7072 40.0214 21.401 39.65 21.1269 39.2787L21.1207 39.2707ZM13.7476 35.6505C15.5497 34.9076 17.5584 34.9263 19.3475 35.7025L19.5433 35.7842L19.6039 35.8176H19.6217L19.6822 35.8436L19.9243 35.981C20.8909 36.5148 21.7238 37.278 22.3558 38.2092C22.4036 38.2713 22.4525 38.3356 22.503 38.4019L22.503 38.402L22.5032 38.4022C22.7272 38.6967 22.9806 39.0298 23.2885 39.3752C24.2964 40.5527 25.5386 41.4864 26.9283 42.1111C28.318 42.7359 29.8216 43.0366 31.3343 42.9923C31.3533 42.6977 31.3675 42.4043 31.377 42.1122C29.9735 42.1659 28.576 41.8963 27.2838 41.3224C25.9916 40.7486 24.8365 39.8847 23.9009 38.7922C23.6588 38.5019 23.4464 38.2373 23.2547 37.9985C23.1644 37.886 23.0787 37.7792 22.9966 37.6781C22.2947 36.6541 21.3746 35.8139 20.3088 35.2234V35.2012L19.9528 35.0303L19.6537 34.9078C18.0595 34.229 16.3035 34.0787 14.6245 34.4773C12.9455 34.876 11.4249 35.8042 10.2694 37.136C10.4331 37.3848 10.6005 37.6299 10.7749 37.8787C11.5735 36.8905 12.595 36.1248 13.7476 35.6505ZM17.8634 23.3325C17.8919 23.3882 17.9111 23.4484 17.9204 23.5108C17.9441 23.6182 17.9596 23.7275 17.9666 23.8376C17.9951 23.9465 18.0094 24.0542 18.0094 24.1607V24.4912V24.8142C17.9961 24.8855 17.9866 24.9574 17.9809 25.0296C17.9496 25.2061 17.9055 25.3799 17.8492 25.5495C17.828 25.619 17.803 25.6872 17.7744 25.7538L17.7317 25.8503L17.689 25.9469L17.6391 26.0434L17.5893 26.1363L17.5359 26.2291C17.4264 26.4113 17.3 26.5817 17.1585 26.7379L17.0837 26.8159C17.0365 26.8682 16.9866 26.9178 16.9342 26.9644L16.9093 26.9867L16.8452 27.0424L16.7598 27.113L16.6815 27.1724L16.564 27.2541L16.4963 27.2986L16.4251 27.3395C15.883 27.6559 15.2651 27.8029 14.6451 27.7628H14.5098C14.276 27.737 14.0457 27.6847 13.8227 27.6069L13.5806 27.5103C13.4738 27.4583 13.3706 27.4063 13.2673 27.3469L13.1926 27.2986C13.1676 27.2847 13.1437 27.2686 13.1214 27.2504L13.0466 27.2021C13.0003 27.1687 12.9505 27.1315 12.9078 27.0944L12.8615 27.061L12.8081 27.0127L12.7298 26.9421L12.655 26.8716C12.5853 26.8057 12.5199 26.735 12.4592 26.6599L12.3987 26.5893L12.3631 26.5411C12.3292 26.5003 12.2991 26.4575 12.2687 26.4142L12.2487 26.3858L12.2349 26.3665C11.9171 25.889 11.7233 25.3337 11.6724 24.7548C11.6504 24.4911 11.6588 24.2255 11.6974 23.9638C11.7106 23.9039 11.7201 23.8431 11.7258 23.7819C11.7727 23.5251 11.8504 23.2756 11.9572 23.0391C11.9857 22.9723 12.0178 22.9055 12.0498 22.8423C12.1174 22.7161 12.2064 22.5601 12.2705 22.471C12.3346 22.3818 12.3987 22.2964 12.4663 22.2147C12.534 22.1367 12.6087 22.0588 12.6835 21.9845C12.7079 21.9578 12.7341 21.933 12.7618 21.9102L12.9327 21.7802L13.0181 21.7171C13.3007 21.505 13.6163 21.3455 13.9509 21.2455C14.0197 21.2232 14.0873 21.2046 14.1538 21.1898C14.2896 21.1564 14.4277 21.134 14.5668 21.1229C14.7078 21.1118 14.8494 21.1118 14.9904 21.1229C15.1994 21.1314 15.407 21.1625 15.6099 21.2158C16.3564 21.41 17.011 21.878 17.454 22.5341C17.5958 22.7347 17.7153 22.9515 17.81 23.1803L17.8634 23.3325ZM17.2083 24.6434C17.2119 24.5841 17.2119 24.5245 17.2083 24.4652L17.1905 24.4317V24.2683C17.1545 23.8391 17.0095 23.4277 16.7705 23.0763C16.5324 22.724 16.2098 22.4432 15.8349 22.262C15.46 22.0808 15.046 22.0056 14.6344 22.0439C14.224 22.0816 13.8308 22.2329 13.4952 22.4821C13.1582 22.7303 12.8904 23.0673 12.7191 23.4588C12.6647 23.5782 12.6206 23.7025 12.5874 23.8301L12.566 23.9044C12.5083 24.1635 12.4891 24.4303 12.5091 24.6954C12.5407 25.1463 12.6883 25.5799 12.9363 25.9506L12.9719 25.9952L13.0253 26.0397L13.0893 26.1214L13.1107 26.1474L13.1819 26.2291L13.2033 26.2514L13.2816 26.3294H13.2994C13.4161 26.4398 13.5438 26.5369 13.6803 26.6191H13.7124L13.7978 26.6673H13.8298L13.8726 26.7008L13.9153 26.7193H13.9331C14.4299 26.9314 14.9813 26.9603 15.496 26.801C15.6595 26.7564 15.8182 26.6942 15.9694 26.6153L16.0371 26.5782L16.1225 26.5262L16.2471 26.4445H16.272C16.5667 26.2255 16.81 25.9398 16.9841 25.609L17.0517 25.4678C17.0606 25.4437 17.0704 25.4205 17.0802 25.3973L17.0802 25.3972C17.09 25.374 17.0998 25.3508 17.1087 25.3267C17.1322 25.2857 17.1479 25.2403 17.1549 25.193V25.1633L17.187 25.0371V24.9962L17.2083 24.8811V24.6434ZM55.5853 4.52685L55.482 3.98466C55.2115 4.10721 54.9445 4.22976 54.681 4.35602L55.5853 4.52685ZM73.5598 18.3675C74.165 17.8624 74.8485 17.2868 75.6495 16.5441C77.8401 14.5038 79.581 11.9927 80.7524 9.18351C81.9237 6.37435 82.4978 3.33383 82.435 0.271135L83.9623 0.38997C84.0096 3.65798 83.3831 6.89843 82.1252 9.89183C80.8673 12.8852 79.0073 15.5617 76.6713 17.7399C75.856 18.5012 75.1547 19.0991 74.5352 19.6152L74.4873 19.6557C72.9111 20.9832 72.1682 21.6089 71.1461 23.767C70.1486 26.0595 69.913 28.6335 70.4766 31.0814C71.0402 33.5293 72.3708 35.711 74.2576 37.2808C73.8849 37.6744 73.504 38.0458 73.1148 38.3949C71.0226 36.5845 69.5599 34.106 68.9525 31.3421C68.3451 28.5782 68.6268 25.6826 69.7541 23.1023V23.0577C70.9356 20.5631 71.8681 19.7829 73.5579 18.3691L73.5598 18.3675ZM68.7573 3.91039C67.9561 5.71822 66.4998 7.12043 64.7082 7.80906C62.9166 8.49769 60.9363 8.41643 59.2021 7.58313C58.9582 7.46397 58.7205 7.33133 58.4901 7.18578L58.3904 7.12264L58.28 7.07437C56.4652 6.30195 54.5704 5.75236 52.6338 5.43667C51.8933 5.86002 51.1813 6.30813 50.4977 6.78099C52.9687 6.96968 55.3956 7.56373 57.6891 8.54124C57.9682 8.71624 58.2557 8.87613 58.5506 9.02029C60.6544 10.0315 63.057 10.1301 65.2305 9.29452C67.404 8.45893 69.1706 6.75748 70.1422 4.56398C70.7359 3.21608 71.0047 1.73726 70.9254 0.256212C70.4127 0.300775 69.9037 0.349052 69.3981 0.404756C69.457 1.60999 69.2372 2.81232 68.7573 3.91039ZM50.4113 20.4406C47.589 19.9369 44.6902 20.6187 42.3483 22.3372L42.3554 22.3224L42.0849 22.5229C39.7969 24.2986 38.2736 26.9448 37.8462 29.886C37.4188 32.8272 38.122 35.8254 39.8027 38.2286C41.4835 40.6318 44.0058 42.2457 46.8213 42.7191C49.6367 43.1925 52.5175 42.4872 54.837 40.7566C54.9474 40.6749 55.0578 40.5932 55.1681 40.5041C54.8691 39.8134 54.595 39.1041 54.3493 38.3874C54.1143 38.6028 53.8687 38.8033 53.6159 38.9927C52.0084 40.1716 50.0669 40.7507 48.1049 40.6366C46.143 40.5225 44.2752 39.7217 42.8033 38.3637C41.3314 37.0057 40.3414 35.1697 39.9932 33.1524C39.645 31.1351 39.9589 29.0543 40.8843 27.246C41.8097 25.4378 43.2924 24.0078 45.093 23.187C46.8936 22.3662 48.9068 22.2025 50.8076 22.7225C52.7083 23.2425 54.3855 24.4157 55.5682 26.0526C56.7509 27.6895 57.37 29.6945 57.3255 31.7437C57.9347 36.3598 59.7668 40.7068 62.6158 44.2957C62.1102 44.4739 61.5762 44.6448 61.0422 44.8045C58.2326 41.0832 56.4249 36.6479 55.8054 31.9554V31.714C55.8089 31.4207 55.7983 31.1384 55.7769 30.8673C55.6328 29.2203 54.9719 27.6687 53.8967 26.4532C52.8215 25.2377 51.3919 24.4261 49.8296 24.1441C48.2673 23.8622 46.6594 24.1256 45.2551 24.8936C43.8509 25.6616 42.7287 26.8913 42.0625 28.3922C41.3963 29.893 41.2232 31.5811 41.5702 33.195C41.9171 34.8088 42.7646 36.2583 43.9814 37.3186C45.1982 38.379 46.7163 38.9912 48.3005 39.0602C49.8846 39.1292 51.4464 38.6512 52.7437 37.7004C52.9528 37.546 53.1536 37.3798 53.3454 37.2027L55.04 35.6504L55.8018 37.8786C56.0332 38.5545 56.2931 39.2304 56.5779 39.8839L57.0763 41.0389L56.108 41.8076C55.9834 41.9079 55.8552 42.0044 55.7306 42.0972C53.8165 43.51 51.5561 44.3248 49.2142 44.4462C46.8723 44.5676 44.5456 43.9906 42.5066 42.7828C40.4676 41.575 38.8006 39.7863 37.7008 37.6261C36.6009 35.4659 36.1137 33.0236 36.2962 30.5851C36.8373 28.5538 37.4532 26.5744 38.1403 24.7176C39.2188 22.9233 40.705 21.4341 42.4671 20.3822C44.2293 19.3302 46.213 18.748 48.2425 18.687C50.2719 18.626 52.2845 19.0882 54.1017 20.0327C55.919 20.9771 57.4849 22.3745 58.6605 24.1012L58.689 24.1383C60.1619 26.4466 60.3442 27.6868 60.6713 29.9122L60.672 29.9167C60.7859 30.7114 60.9247 31.5989 61.1419 32.713C61.9 36.5159 63.6479 40.0275 66.1936 42.8622C65.7024 43.0888 65.2004 43.3042 64.6877 43.5158C62.1568 40.5422 60.4164 36.9291 59.6396 33.0361C59.4259 31.9534 59.293 31.0595 59.1762 30.2741L59.159 30.158L59.1468 30.0777C58.8314 27.9942 58.6835 27.0169 57.411 25.0259C55.7501 22.5929 53.2336 20.9444 50.4113 20.4406ZM76.7642 20.4805C76.4754 20.644 76.1961 20.8251 75.9276 21.0227C74.0356 22.4175 72.7522 24.539 72.3596 26.9208C71.9671 29.3025 72.4975 31.7494 73.8343 33.7232C74.3465 34.4833 74.9686 35.156 75.6784 35.7174C76.013 35.32 76.3441 34.9078 76.6645 34.4845C75.7494 33.7786 75.0083 32.8558 74.5022 31.7924C73.9962 30.729 73.7397 29.5553 73.7539 28.3682C73.7682 27.181 74.0528 26.0144 74.5842 24.9646C75.1156 23.9147 75.8787 23.0117 76.8105 22.3299C77.0316 22.1654 77.2622 22.0153 77.5011 21.8805L77.6044 21.8211L77.7005 21.7431C82.2023 18.0914 85.4082 12.9779 86.8107 7.21183C87.1097 5.12108 87.3376 2.98205 87.4907 0.809598L86.0666 0.620205C86.0678 4.45088 85.2304 8.23125 83.6182 11.6731C82.0061 15.1149 79.6619 18.1273 76.7642 20.4805ZM82.6067 18.8094C83.0481 18.2635 83.4753 17.6916 83.8776 17.1122L84.5896 16.0724L84.9883 16.247C84.7 17.3388 84.3938 18.412 84.0663 19.4592L83.7779 19.8306L83.9274 19.89C83.8107 20.2873 83.6722 20.6823 83.5358 21.0715L83.5356 21.072C83.4974 21.181 83.4593 21.2896 83.4219 21.3977L83.2866 21.3457L81.1506 20.603L82.6067 18.8094ZM54.9727 11.5121C55.9908 11.8835 56.8025 12.1954 57.5288 12.4888C59.5473 13.3095 60.6581 13.7589 63.3175 13.5806H63.3637C65.5063 13.3728 67.559 12.5813 69.3162 11.2856C71.0235 10.0258 72.3975 8.3357 73.31 6.3728C74.2226 4.40989 74.6441 2.23801 74.5352 0.0594254C74.1404 0.0594254 73.7477 0.0814539 73.3554 0.103455C73.2384 0.11002 73.1214 0.116582 73.0044 0.122556C73.1043 2.03623 72.7375 3.94509 71.938 5.67067C71.1386 7.39625 69.9328 8.88219 68.4333 9.98957C66.8925 11.1217 65.0943 11.813 63.2178 11.9949C60.9007 12.1546 60.0141 11.7945 58.0854 11.0113L58.0842 11.0108C57.3472 10.71 56.5106 10.3721 55.4533 10.0044C53.01 9.16789 50.4437 8.79067 47.8739 8.89035C47.2763 9.44031 46.706 10.0216 46.1651 10.632C49.1272 10.2423 52.1353 10.5429 54.9727 11.5121ZM63.5416 29.4525C63.652 30.2138 63.7802 31.0754 63.9831 32.104C64.6945 35.6663 66.4147 38.9238 68.9209 41.4549C68.4462 41.7272 67.9716 41.9871 67.4969 42.2347C64.9613 39.5337 63.2206 36.1315 62.4808 32.4308C62.2707 31.365 62.139 30.4812 62.0251 29.7013C61.7011 27.5029 61.4661 25.9209 59.8071 23.3214L59.7893 23.2954C57.6885 20.2001 54.497 18.0997 50.9142 17.4544C47.3315 16.8091 43.6496 17.6716 40.6754 19.8529C40.387 20.0646 40.1129 20.2874 39.8423 20.5213C40.3146 19.4914 40.8106 18.5011 41.3304 17.5505C44.6148 15.7043 48.4334 15.1761 52.0656 16.0654C55.6978 16.9548 58.8922 19.2003 61.046 22.3781L61.0745 22.419C62.8969 25.2558 63.1752 27.0677 63.521 29.3185L63.5416 29.4525ZM33.7653 45.9037C33.7653 46.0188 33.7653 46.134 33.7369 46.2491L34.1214 46.3011C33.9896 46.1711 33.8686 46.0485 33.7653 45.9037ZM34.2812 41.7577C34.329 41.8341 34.377 41.9106 34.4285 41.9859C35.7435 43.9317 37.4173 45.5843 39.3521 46.847C38.3766 46.7764 37.3976 46.691 36.415 46.5833C35.5054 45.7855 34.6709 44.8989 33.923 43.9355C33.9978 43.1483 34.0796 42.3684 34.1758 41.5923C34.2117 41.6469 34.2464 41.7022 34.2811 41.7577L34.2812 41.7577ZM58.5899 43.7201L57.7212 42.3572L56.4253 43.2967C54.5966 44.6303 52.4833 45.4776 50.2692 45.7652C48.055 46.0528 45.807 45.7719 43.7207 44.9469C41.6343 44.1219 39.7727 42.7777 38.2977 41.0314C36.8227 39.285 35.7789 37.1893 35.2572 34.9263C35.0436 35.9636 34.8502 37.0146 34.6769 38.0792C35.0784 39.01 35.5636 39.899 36.1258 40.7344C38.2719 43.9129 41.4616 46.1593 45.0901 47.0475C48.1645 47.0212 51.2335 46.773 54.2751 46.3048C55.3423 45.8553 56.3584 45.2836 57.3047 44.6002C57.5183 44.9369 57.739 45.2711 57.9668 45.6029C58.5151 45.4766 59.0562 45.3467 59.5902 45.2055C59.2413 44.7302 58.9031 44.2363 58.5899 43.7201ZM53.5362 28.3309C53.5568 28.3642 53.5781 28.3989 53.595 28.4312C53.6217 28.4788 53.6527 28.5236 53.6876 28.5649C54.2407 29.5937 54.4978 30.767 54.4281 31.9443C54.4254 31.9763 54.4212 32.0084 54.4171 32.0404C54.4101 32.0938 54.4032 32.1472 54.4032 32.2005C54.3568 32.6452 54.2649 33.0834 54.1291 33.5077C54.0823 33.6575 54.0481 33.7453 53.9734 33.9365L53.9582 33.9756C53.8762 34.179 53.781 34.3762 53.6734 34.5661C53.6484 34.6144 53.6235 34.6626 53.595 34.7109L53.5096 34.8483L53.4206 34.9894C53.3636 35.0786 53.2996 35.1677 53.2355 35.2568L53.1714 35.3385C53.1639 35.3486 53.1564 35.3589 53.1488 35.3695C53.1312 35.3939 53.113 35.4191 53.0931 35.4425L52.972 35.591L52.8439 35.7359C52.7312 35.8657 52.6124 35.9897 52.4879 36.1072C52.4487 36.1444 52.4095 36.1815 52.3668 36.2149L52.2849 36.2892C52.1853 36.3709 52.0856 36.4526 51.9788 36.5269C50.7608 37.4288 49.2545 37.8017 47.7779 37.5667C47.6711 37.5518 47.5643 37.5333 47.461 37.511C47.0201 37.4173 46.5912 37.2702 46.183 37.0728C46.0513 37.0171 45.9373 36.9576 45.827 36.8945C45.6059 36.7674 45.392 36.6273 45.1862 36.4749C45.0331 36.356 44.8836 36.2335 44.7412 36.1035C44.5988 35.9698 44.4635 35.8324 44.3353 35.6876C44.3238 35.6746 44.3151 35.6651 44.307 35.6562L44.3069 35.656C44.2849 35.632 44.2669 35.6122 44.2071 35.5391C44.1253 35.4388 44.0078 35.2829 43.9686 35.2308L43.9686 35.2308C43.9295 35.1788 43.8903 35.1268 43.8547 35.0711C43.4885 34.5295 43.2106 33.9285 43.0323 33.2923C42.9935 33.1706 42.9614 33.0466 42.9362 32.921C42.88 32.6615 42.8396 32.3985 42.8152 32.1337C42.7914 31.8658 42.7855 31.5966 42.7974 31.3278C42.8149 30.9298 42.8686 30.5344 42.9576 30.1469C43.2927 28.7139 44.1133 27.4556 45.268 26.6041C45.6195 26.3438 45.9981 26.1258 46.3966 25.9543L46.6636 25.8503C46.7528 25.8138 46.8476 25.7832 46.9405 25.7532L46.9733 25.7426C47.1691 25.6869 47.34 25.6386 47.5251 25.6015C47.712 25.5546 47.9027 25.526 48.0947 25.5161C48.2864 25.4975 48.479 25.4901 48.6715 25.4938C48.863 25.4937 49.0543 25.5049 49.2446 25.5272C49.3562 25.5421 49.4749 25.5606 49.6006 25.5829C49.9116 25.64 50.2175 25.7232 50.5156 25.8317C50.6402 25.8763 50.7577 25.9208 50.8716 25.9728L51.046 26.0508L51.2169 26.1362L51.3842 26.2291L51.548 26.3256L51.7082 26.4259C52.0275 26.634 52.3257 26.8754 52.5982 27.1463C52.6469 27.1894 52.6932 27.2353 52.7371 27.2837C52.8261 27.3766 52.9115 27.4694 52.9934 27.5697L53.0361 27.618L53.1322 27.7442C53.1749 27.7962 53.2141 27.8482 53.2533 27.9039L53.3601 28.0524L53.3791 28.0814C53.4198 28.1432 53.462 28.2074 53.4989 28.2715L53.5203 28.305L53.5362 28.3309ZM52.527 33.3517C52.5234 33.3396 52.5234 33.3267 52.527 33.3146L52.5377 33.3035C52.9265 32.3753 53.0006 31.3366 52.7477 30.3586C52.6695 30.0477 52.5597 29.7465 52.4202 29.4599L52.3561 29.3299L52.3465 29.311L52.3465 29.3109L52.3463 29.3107C52.3237 29.2663 52.3078 29.2351 52.2671 29.1665C52.2209 29.0885 52.1746 29.0106 52.1247 28.9326L52.0963 28.8843C51.7123 28.3265 51.212 27.8668 50.6331 27.54L50.6329 27.5399C50.5511 27.4953 50.4692 27.4508 50.3839 27.41L50.1418 27.3023H50.1275C50.0499 27.2683 49.9703 27.2398 49.889 27.2169H49.8427L49.622 27.1538H49.5472L49.3479 27.1129H49.2446L49.0738 27.0869H48.2158C47.4635 27.1578 46.7424 27.4342 46.125 27.8881C45.5076 28.3421 45.0158 28.9577 44.6989 29.6729C44.382 30.3882 44.2514 31.1779 44.32 31.9625C44.3887 32.7472 44.6543 33.4992 45.09 34.1427C45.5239 34.7851 46.112 35.2974 46.7953 35.6282C47.0107 35.7332 47.2347 35.8177 47.4646 35.8807C47.5086 35.897 47.5539 35.9094 47.5999 35.9178C48.1901 36.0654 48.8036 36.0802 49.3997 35.9611C49.9957 35.842 50.5606 35.5918 51.0567 35.2271H51.0745L51.1564 35.164L51.2596 35.0786L51.402 34.956L51.4483 34.9152L51.4826 34.8825L51.4827 34.8825C51.5185 34.8486 51.5549 34.8143 51.5872 34.7778L51.6263 34.7406L51.6265 34.7405C51.6727 34.6923 51.7189 34.644 51.7616 34.5921L51.7901 34.5587C51.9823 34.3287 52.1528 34.08 52.2992 33.8159L52.3312 33.7602L52.4167 33.5894L52.4451 33.5337L52.4914 33.4334C52.5091 33.4094 52.5212 33.3814 52.527 33.3517ZM77.6363 23.5442C76.4014 24.4583 75.5545 25.8363 75.2737 27.3884C74.9928 28.9404 75.2999 30.5456 76.1304 31.8664L76.2158 31.9963V32.0186L76.2906 32.1226C76.3796 32.2526 76.4721 32.3751 76.5718 32.494C76.6715 32.6128 76.7107 32.6574 76.7854 32.7353L76.8709 32.8245L76.9777 32.9285C77.1372 33.0843 77.306 33.2295 77.4832 33.3629C77.768 32.9582 78.0457 32.5422 78.3198 32.1152C77.5023 31.4599 76.9341 30.5234 76.7161 29.4723C76.4981 28.4212 76.6444 27.3235 77.129 26.3743C77.6137 25.4251 78.4053 24.6859 79.3631 24.2881C80.321 23.8903 81.383 23.8596 82.3605 24.2015C82.4496 23.9824 82.5339 23.7616 82.6187 23.5395L82.6187 23.5394C82.7135 23.2911 82.809 23.0412 82.9123 22.7903C82.0388 22.4694 81.1044 22.3703 80.1869 22.5014C79.2693 22.6326 78.3949 22.99 77.6363 23.5442ZM66.1154 2.62923C66.2736 2.27523 66.385 1.90044 66.4465 1.51515C66.4824 1.27934 66.5003 1.04092 66.4999 0.802144C67.0054 0.720445 67.5145 0.646173 68.0307 0.575615C68.0781 1.85579 67.7313 3.11815 67.041 4.1778C66.8621 4.44858 66.6646 4.70549 66.45 4.94651C66.1871 5.2357 65.8974 5.49693 65.5849 5.72637L65.5458 5.75608L65.4176 5.8452L65.3073 5.92319L65.172 6.00489L65.0652 6.06802L65.0651 6.06805C65.0224 6.09403 64.9797 6.12002 64.9335 6.14229L64.848 6.19057C64.7163 6.26112 64.581 6.32426 64.4457 6.38367L64.2926 6.4468C64.2459 6.47347 64.1955 6.49227 64.1431 6.50251L63.99 6.55821L63.6839 6.65105L63.3706 6.72532L63.2211 6.75503C62.9517 6.80513 62.6793 6.83491 62.4058 6.84416H62.2527C61.7731 6.84565 61.295 6.78705 60.8287 6.66962L60.6471 6.62134C60.0539 6.44824 59.4904 6.1788 58.9775 5.82292L58.8778 5.75608L58.6713 5.60011C58.5396 5.49241 58.4114 5.38472 58.2904 5.2696L58.2512 5.23246C58.2411 5.22291 58.2311 5.2136 58.2211 5.20436C58.1922 5.17764 58.1637 5.1514 58.1373 5.12105L58.0768 5.05792L57.9166 4.89081L57.7564 4.6977L57.735 4.67171L57.614 4.51574L57.5819 4.47117C57.5325 4.40803 57.4862 4.34234 57.4431 4.27435C57.2477 3.98887 57.0773 3.68561 56.934 3.36824C57.166 3.28696 57.3997 3.19778 57.6351 3.10795C57.8837 3.01309 58.1342 2.91751 58.3865 2.82977C58.4751 3.00735 58.575 3.17856 58.6855 3.34224L58.7247 3.39423L58.8956 3.62447L58.9846 3.74331L59.1234 3.89557L59.216 3.99583L59.4759 4.23722C59.5494 4.30165 59.6278 4.361 59.705 4.41948C59.7213 4.43179 59.7375 4.44405 59.7536 4.45632H59.7749C60.1651 4.73811 60.5968 4.95137 61.053 5.08763L61.1847 5.12477H61.2096L61.4268 5.17304H61.4944H61.6368C61.9564 5.22064 62.2801 5.22936 62.6016 5.19904C63.1143 5.15312 63.6148 5.01095 64.079 4.7794L64.2855 4.67171L64.3176 4.65314L64.492 4.54544L64.5953 4.47489L64.6914 4.40804C65.3072 3.95544 65.7983 3.34204 66.1154 2.62923Z" fill="url(#paint10_linear_303_87)"/>
<defs>
<linearGradient id="paint0_linear_303_87" x1="32.9023" y1="64.4924" x2="48.5098" y2="70.9794" gradientUnits="userSpaceOnUse">
<stop stop-color="#AEC7CB"/>
<stop offset="0.0001" stop-color="#8AA7AB"/>
<stop offset="1" stop-color="#D1E0C3"/>
</linearGradient>
<linearGradient id="paint1_linear_303_87" x1="-0.70905" y1="59.7009" x2="19.652" y2="67.4522" gradientUnits="userSpaceOnUse">
<stop stop-color="#AEC7CB"/>
<stop offset="0.0001" stop-color="#8AA7AB"/>
<stop offset="1" stop-color="#D1E0C3"/>
</linearGradient>
<linearGradient id="paint2_linear_303_87" x1="22.5979" y1="60.5012" x2="34.9527" y2="63.245" gradientUnits="userSpaceOnUse">
<stop stop-color="#AEC7CB"/>
<stop offset="0.0001" stop-color="#8AA7AB"/>
<stop offset="1" stop-color="#D1E0C3"/>
</linearGradient>
<linearGradient id="paint3_linear_303_87" x1="54.4234" y1="64.8232" x2="59.9295" y2="65.5437" gradientUnits="userSpaceOnUse">
<stop stop-color="#AEC7CB"/>
<stop offset="0.0001" stop-color="#8AA7AB"/>
<stop offset="1" stop-color="#D1E0C3"/>
</linearGradient>
<linearGradient id="paint4_linear_303_87" x1="54.1818" y1="59.9607" x2="59.5501" y2="62.1039" gradientUnits="userSpaceOnUse">
<stop stop-color="#AEC7CB"/>
<stop offset="0.0001" stop-color="#8AA7AB"/>
<stop offset="1" stop-color="#D1E0C3"/>
</linearGradient>
<linearGradient id="paint5_linear_303_87" x1="17.3652" y1="64.824" x2="22.8606" y2="65.5417" gradientUnits="userSpaceOnUse">
<stop stop-color="#AEC7CB"/>
<stop offset="0.0001" stop-color="#8AA7AB"/>
<stop offset="1" stop-color="#D1E0C3"/>
</linearGradient>
<linearGradient id="paint6_linear_303_87" x1="17.1251" y1="59.9607" x2="22.4936" y2="62.104" gradientUnits="userSpaceOnUse">
<stop stop-color="#AEC7CB"/>
<stop offset="0.0001" stop-color="#8AA7AB"/>
<stop offset="1" stop-color="#D1E0C3"/>
</linearGradient>
<linearGradient id="paint7_linear_303_87" x1="48.3356" y1="59.334" x2="53.8886" y2="59.8312" gradientUnits="userSpaceOnUse">
<stop stop-color="#AEC7CB"/>
<stop offset="0.0001" stop-color="#8AA7AB"/>
<stop offset="1" stop-color="#D1E0C3"/>
</linearGradient>
<linearGradient id="paint8_linear_303_87" x1="59.9731" y1="64.1045" x2="74.5806" y2="69.437" gradientUnits="userSpaceOnUse">
<stop stop-color="#AEC7CB"/>
<stop offset="0.0001" stop-color="#8AA7AB"/>
<stop offset="1" stop-color="#D1E0C3"/>
</linearGradient>
<linearGradient id="paint9_linear_303_87" x1="72.8751" y1="64.1045" x2="87.4883" y2="69.4416" gradientUnits="userSpaceOnUse">
<stop stop-color="#AEC7CB"/>
<stop offset="0.0001" stop-color="#8AA7AB"/>
<stop offset="1" stop-color="#D1E0C3"/>
</linearGradient>
<linearGradient id="paint10_linear_303_87" x1="3.30118" y1="4.70885e-07" x2="81.1144" y2="51.6075" gradientUnits="userSpaceOnUse">
<stop stop-color="#AEC7CB"/>
<stop offset="0.0001" stop-color="#8AA7AB"/>
<stop offset="1" stop-color="#D1E0C3"/>
</linearGradient>
</defs>
</svg>
