<svg width="364" height="95" viewBox="0 0 364 95" fill="none" xmlns="http://www.w3.org/2000/svg">
<path d="M284.942 76.7549C284.857 76.7549 284.771 76.7549 284.731 76.8016C284.707 76.906 284.662 77.0042 284.601 77.09C284.499 77.2529 284.36 77.3864 284.195 77.4783C284.031 77.5702 283.848 77.6176 283.661 77.616C282.767 77.616 281.953 76.2756 281.356 73.7347L278.964 64.0293C277.899 59.6263 275.036 57.4205 270.465 57.4205C268.277 57.353 266.12 57.9754 264.276 59.2063V61.8108C265.09 61.6072 266.192 61.1703 267.412 61.1703C269.29 61.1703 270.486 62.3198 271.043 64.8565L271.706 67.6222C270.65 67.1731 269.515 66.9606 268.375 66.9986C262.568 66.9986 258.852 69.9679 258.852 74.5194C258.852 78.9734 262.568 82.1802 267.733 82.1802C269.998 82.1802 272.69 81.37 273.967 80.3138C274.312 80.0763 274.483 79.8896 274.569 79.8345C274.634 79.7913 274.705 79.7598 274.78 79.7412C274.91 79.7412 274.951 79.7878 275.036 79.8854L275.463 80.3605C276.573 81.5609 278.025 82.1336 279.904 82.1336C283.157 82.1336 285.499 80.3138 285.499 77.7772C285.499 77.0518 285.329 76.7549 284.942 76.7549ZM270.51 78.4516C268.29 78.4516 266.623 76.5343 266.623 73.9977C266.623 71.6519 268.119 69.9255 270.124 69.9255C270.965 69.9164 271.788 70.1851 272.474 70.6933L273.434 74.9054C273.52 75.2504 273.564 75.6053 273.564 75.9617C273.544 77.3869 272.259 78.4516 270.51 78.4516Z" fill="url(#paint0_linear_341_95)"/>
<path d="M220.049 47.7415L211.4 72.5988C211.274 72.9848 211.058 73.2223 210.847 73.2223C210.635 73.2223 210.44 73.0315 210.334 72.743L201.823 47.7415H191.291L204.141 81.46C204.312 82.0369 204.483 82.1769 205.081 82.1769H212.03C212.669 82.1769 212.713 82.1303 212.925 81.5067L225.23 47.7415H220.049Z" fill="url(#paint1_linear_341_95)"/>
<path d="M255.135 57.4584C255.391 57.4584 255.562 57.6026 255.562 57.7469C255.541 57.9081 255.513 58.0681 255.476 58.2262L254.728 60.381C254.671 60.5763 254.55 60.7448 254.387 60.8578C254.224 60.9707 254.028 61.0211 253.833 61.0004H249.97C249.543 61.0004 249.413 61.1955 249.413 61.7215V75.6263C249.413 77.5903 250.055 78.4047 251.507 78.4047C252.51 78.3614 253.47 77.9737 254.24 77.3018C254.838 76.8225 255.265 76.5341 255.521 76.5341C255.815 76.5462 256.093 76.6793 256.293 76.9042C256.493 77.1291 256.6 77.4276 256.59 77.7345C256.588 77.75 256.588 77.7657 256.59 77.7812C256.59 80.0294 252.117 82.1842 247.498 82.1842C243.399 82.1842 241.26 80.865 241.26 78.5659V61.7215C241.26 61.2421 241.044 61.0004 240.662 61.0004H238.738C238.608 61.0192 238.475 61.0078 238.349 60.967C238.223 60.9262 238.107 60.857 238.01 60.7643C237.912 60.6716 237.836 60.5576 237.785 60.4305C237.735 60.3035 237.712 60.1664 237.718 60.029C237.718 59.7872 237.775 59.1127 238.938 58.3322C242.333 56.3173 244.985 53.3353 246.993 50.3618C247.506 49.6449 247.888 49.3564 248.36 49.3564C248.662 49.3804 248.943 49.5272 249.142 49.7652C249.341 50.0033 249.443 50.3135 249.425 50.629V57.416L255.135 57.4584Z" fill="url(#paint2_linear_341_95)"/>
<path d="M309.66 58.8078C309.575 58.2776 309.449 58.0867 309.063 58.0867C308.914 58.0737 308.765 58.1077 308.636 58.1843L302.56 60.6361C302.256 60.7605 301.995 60.9775 301.811 61.259C301.626 61.5404 301.528 61.8732 301.527 62.2141V82.1508H309.681V76.8994C309.681 76.6364 309.66 76.3395 309.66 76.0128V58.8078Z" fill="url(#paint3_linear_341_95)"/>
<path d="M308.16 48.3353C305.765 47.8433 302.536 50.0321 301.369 52.942C301.276 53.1911 301.202 53.4479 301.15 53.7098C300.832 55.4065 301.585 56.6536 303.134 56.9718C304.541 57.2602 306.582 56.5136 308.063 55.0714C309.045 54.1625 309.741 52.9648 310.059 51.6355C310.401 49.9006 309.628 48.6407 308.16 48.3353Z" fill="url(#paint4_linear_341_95)"/>
<path d="M234.836 58.8084C234.751 58.2782 234.625 58.0873 234.238 58.0873C234.097 58.0785 233.956 58.1123 233.832 58.1849L227.732 60.6367C227.428 60.7611 227.167 60.9781 226.982 61.2596C226.798 61.541 226.7 61.8738 226.699 62.2147V82.1514H234.832V58.8212L234.836 58.8084Z" fill="url(#paint5_linear_341_95)"/>
<path d="M233.333 48.3353C230.938 47.8433 227.713 50.0321 226.542 52.942C226.448 53.1911 226.375 53.4479 226.322 53.7098C226.009 55.4065 226.757 56.6536 228.307 56.9718C229.714 57.2602 231.755 56.5136 233.235 55.0714C234.218 54.1625 234.914 52.9648 235.232 51.6355C235.577 49.9006 234.805 48.6407 233.333 48.3353Z" fill="url(#paint6_linear_341_95)"/>
<path d="M297.384 76.9886V47.7198C297.298 47.1471 297.213 47.0029 296.827 47.0029C296.669 46.9929 296.511 47.0087 296.359 47.0496L290.259 49.5565C289.957 49.682 289.698 49.8989 289.515 50.1794C289.333 50.46 289.235 50.7911 289.234 51.1302V82.1552H297.367L297.384 76.9886Z" fill="url(#paint7_linear_341_95)"/>
<path d="M334.365 67.7289C332.905 66.7444 331.302 66.0111 329.619 65.5571L324.443 64.1191C322.267 63.4998 321.73 63.0798 321.669 61.9981C321.6 60.8444 322.617 59.9196 324.15 59.8221C326.878 59.6482 330.473 61.1328 333.096 63.5422C333.641 64.1148 334.08 64.2888 334.422 64.2675C334.54 64.2605 334.655 64.2292 334.762 64.1755C334.868 64.1218 334.964 64.0466 335.042 63.9544C335.121 63.8622 335.181 63.7547 335.22 63.6381C335.258 63.5215 335.275 63.3981 335.268 63.275C335.268 63.275 335.268 63.2283 335.268 63.2028C335.193 62.8062 335.024 62.4355 334.776 62.1254C332.096 58.2102 325.573 56.3946 321.49 56.6576C316.545 56.9715 313.178 60.119 313.418 64.1954C313.552 66.4606 314.777 68.3525 316.989 69.625C318.278 70.4734 319.461 70.9315 321.738 71.7969L324.796 72.8658C327.94 73.9772 328.928 74.7746 329.017 76.2847C329.107 77.7948 327.972 78.9274 326.142 79.0462C324.312 79.165 320.856 78.0451 318.062 76.0133C317.335 75.4573 316.663 74.8263 316.057 74.1299C315.317 73.2179 314.915 72.9422 314.431 72.9718C313.878 73.0058 313.524 73.5827 313.565 74.2444C313.598 74.697 313.738 75.134 313.971 75.517L314.284 76.043C317.078 80.1406 322.576 81.4853 322.576 81.4853C324.735 81.9643 326.941 82.1793 329.147 82.1258C334.218 81.8034 337.768 78.0918 337.492 73.4088C337.438 72.2717 337.126 71.1643 336.582 70.1771C336.039 69.1899 335.279 68.351 334.365 67.7289Z" fill="url(#paint8_linear_341_95)"/>
<path d="M360.417 67.7289C358.957 66.7444 357.355 66.0111 355.672 65.5571L350.495 64.1191C348.319 63.4998 347.783 63.0798 347.722 61.9981C347.652 60.8444 348.669 59.9196 350.202 59.8221C352.931 59.6482 356.526 61.1328 359.148 63.5422C359.693 64.1148 360.133 64.2888 360.474 64.2675C360.592 64.2605 360.708 64.2292 360.814 64.1755C360.921 64.1218 361.016 64.0466 361.095 63.9544C361.173 63.8622 361.234 63.7547 361.272 63.6381C361.311 63.5215 361.327 63.3981 361.32 63.275C361.32 63.275 361.32 63.2283 361.32 63.2028C361.246 62.8062 361.076 62.4355 360.828 62.1254C358.148 58.2102 351.625 56.3946 347.543 56.6576C342.598 56.9715 339.235 60.119 339.471 64.1954C339.605 66.4606 340.829 68.3525 343.041 69.625C344.33 70.4734 345.513 70.9315 347.791 71.7969L350.849 72.8658C353.992 73.9772 354.98 74.7746 355.07 76.2848C355.159 77.7949 354.025 78.9274 352.195 79.0462C350.365 79.165 346.908 78.0451 344.115 76.0133C343.387 75.4573 342.716 74.8263 342.11 74.1299C341.37 73.2179 340.967 72.9422 340.483 72.9719C339.93 73.0058 339.58 73.5827 339.617 74.2444C339.653 74.6964 339.792 75.1329 340.024 75.517L340.337 76.043C343.13 80.1406 348.628 81.4853 348.628 81.4853C350.792 81.9653 353.001 82.1803 355.212 82.1258C360.283 81.8034 363.833 78.0918 363.557 73.4088C363.501 72.2706 363.187 71.1625 362.641 70.1752C362.096 69.1879 361.334 68.3495 360.417 67.7289Z" fill="url(#paint9_linear_341_95)"/>
<path fill-rule="evenodd" clip-rule="evenodd" d="M116.075 30.1292C120.371 29.4727 124.458 27.7723 128.008 25.1652C131.838 22.3418 134.921 18.5542 136.971 14.1544C139.021 9.75459 139.971 4.88555 139.732 0H142.831C143.059 5.39226 141.986 10.7581 139.711 15.6055C137.435 20.453 134.029 24.6269 129.805 27.7447C125.859 30.6373 121.315 32.5203 116.542 33.2411V33.3311L114.874 33.4511L113.437 33.5786V33.5261C107.634 33.7028 104.368 32.397 100.699 30.9296L100.497 30.8491L100.397 30.8116C99.0309 30.2567 97.4853 29.6343 95.6091 28.982C88.5386 26.5571 80.9135 26.5309 73.8278 28.907C74.7958 27.4522 75.7974 26.065 76.8326 24.7453C83.4008 23.3149 90.2144 23.7158 96.5867 25.9075C98.4311 26.5394 99.9468 27.151 101.286 27.6916L101.511 27.7822L101.619 27.8272C105.22 29.2894 108.067 30.4442 113.329 30.2792H114.249H114.601H115.119L116.075 30.1292ZM124.153 67.9661C121.537 61.0393 121.601 53.3233 124.333 46.4452L124.635 45.6953L124.743 45.4704V45.3429L124.843 45.1105L125.325 44.1881C127.819 39.3441 130.199 37.3569 133.232 34.8374L133.499 34.6126L133.5 34.6124C134.628 33.6635 135.9 32.5934 137.344 31.2531C141.507 27.3813 144.81 22.608 147.021 17.2667C149.233 11.9254 150.299 6.14494 150.147 0.329025C149.105 0.261538 148.084 0.216546 147.042 0.171555C147.221 5.55603 146.263 10.9158 144.236 15.8711C142.208 20.8264 139.161 25.256 135.31 28.8461C133.815 30.2333 132.499 31.3356 131.32 32.3179C128.179 34.9424 125.44 37.2445 122.651 42.6509L122.572 42.6134L121.968 44.0382L121.429 45.1854H121.486C119.071 51.3101 118.525 58.0628 119.923 64.5228C121.322 70.9828 124.596 76.8357 129.3 81.2835C130.184 80.6611 131.047 80.0163 131.874 79.3489C128.444 76.2728 125.793 72.3636 124.153 67.9661ZM1.22472 32.2444L0.80059 32.6718C0.809619 32.6091 0.817388 32.5463 0.824952 32.4851L0.824957 32.4851L0.82496 32.4851L0.824964 32.485C0.835462 32.4002 0.845567 32.3185 0.858098 32.2444H1.22472ZM17.3238 59.4553C16.9647 59.4778 16.6046 59.4778 16.2455 59.4553C11.3513 60.1403 6.73649 62.233 2.91795 65.4991C2.73104 64.9068 2.55133 64.2994 2.38599 63.692C6.33917 60.4377 11.0549 58.3458 16.0443 57.6332H16.303C16.5998 57.6557 16.8977 57.6557 17.1944 57.6332C18.9777 57.4638 20.6544 56.6732 21.9544 55.3886C23.2544 54.104 24.1019 52.4003 24.3604 50.552C24.6189 48.7037 24.2733 46.8184 23.3794 45.1999C22.4854 43.5815 21.0951 42.3241 19.4326 41.6304C17.77 40.9366 15.9319 40.847 14.2145 41.3759C12.4971 41.9048 11.0005 43.0214 9.96564 44.5458C8.93083 46.0702 8.41816 47.9136 8.51022 49.779C8.60228 51.6444 9.29372 53.4232 10.4731 54.8287L12.1265 56.7858L9.74708 57.6856C9.06416 57.9556 8.34531 58.2555 7.62645 58.578L6.39721 59.1554L5.57771 58.0381C5.55089 58.0001 5.52355 57.9621 5.49611 57.924C5.42061 57.8191 5.34434 57.7132 5.27579 57.6032C3.77577 55.3931 2.91061 52.7828 2.78169 50.0783C2.65276 47.3737 3.2654 44.6868 4.54783 42.3324C5.83026 39.978 7.72936 38.0536 10.0226 36.7846C12.3159 35.5156 14.9084 34.9547 17.4963 35.1675C19.6529 35.7898 21.7304 36.5397 23.7216 37.2896C25.2747 38.3136 26.6105 39.6585 27.6466 41.2413C29.736 44.3245 30.5667 48.1469 29.9561 51.8686C29.3455 55.5903 27.3436 58.907 24.3902 61.09H24.347C21.8957 62.7922 20.5946 63.0021 18.2224 63.3845C18.0944 63.4058 17.9619 63.4275 17.825 63.4498L17.8249 63.4498C17.093 63.5694 16.2345 63.7097 15.2535 63.9244C11.2132 64.7974 7.48209 66.8161 4.47067 69.7583C4.2047 69.1884 3.97466 68.6035 3.75182 68.0112C6.90782 65.0916 10.742 63.0853 14.8725 62.1923C16.0802 61.9298 17.065 61.7724 17.9277 61.6374L18.0085 61.6243C20.2236 61.2662 21.2386 61.1021 23.3694 59.6203C25.3022 58.1936 26.7861 56.2013 27.6338 53.8951C28.4815 51.589 28.6548 49.0724 28.1318 46.6636C27.6089 44.2547 26.4132 42.0616 24.6958 40.3614C22.9783 38.6611 20.8163 37.5301 18.4829 37.1111C16.1494 36.6922 13.7493 37.0041 11.5858 38.0076C9.42225 39.0111 7.59242 40.661 6.32751 42.7488C5.0626 44.8367 4.41938 47.2689 4.47912 49.7379C4.53887 52.207 5.29891 54.6022 6.66319 56.6208L6.93635 57.0033C7.66958 56.6583 8.46033 56.3434 9.17918 56.0585C8.95195 55.7878 8.7384 55.505 8.5394 55.2111C7.31575 53.3953 6.70049 51.2092 6.789 48.9916C6.87751 46.7739 7.66484 44.6487 9.02895 42.9453C10.3931 41.2419 12.2578 40.0554 14.334 39.5698C16.4102 39.0843 18.582 39.3267 20.5128 40.2595C22.4435 41.1923 24.0253 42.7635 25.013 44.7294C26.0008 46.6953 26.3392 48.9462 25.9759 51.1332C25.6126 53.3201 24.5678 55.321 23.0035 56.8256C21.4393 58.3302 19.4429 59.2545 17.3238 59.4553ZM45.1786 59.7864H45.1283L44.9629 59.9288L44.7617 60.1163L44.582 60.2963L44.5173 60.3638L44.3951 60.4987V60.5437C44.2728 60.6862 44.1578 60.8287 44.0428 60.9861L43.8775 61.2261L43.8056 61.3386C43.4274 61.9294 43.1434 62.5802 42.9645 63.2657C42.9687 63.3029 42.9657 63.3406 42.9558 63.3767C42.946 63.4127 42.9294 63.4463 42.907 63.4757C42.7827 64.0107 42.7223 64.5598 42.7273 65.1104V65.2828C42.7406 65.5994 42.7719 65.9149 42.8208 66.2276C42.8043 66.2813 42.8043 66.339 42.8208 66.3926C42.8576 66.5124 42.884 66.6353 42.8998 66.76C42.8998 66.8363 42.926 66.9095 42.9524 66.9836C42.9676 67.026 42.9828 67.0688 42.9933 67.1125C43.0085 67.1713 43.0277 67.229 43.0508 67.2849L43.1299 67.4874L43.1946 67.6599C43.2593 67.8173 43.324 67.9748 43.403 68.1248C43.4155 68.1595 43.4324 68.1923 43.4534 68.2223C43.4754 68.2746 43.5018 68.3248 43.5324 68.3722L43.5971 68.4997L43.6834 68.6572L43.7696 68.7847C43.7966 68.835 43.8279 68.8827 43.8631 68.9271V68.9871C44.1052 69.3482 44.3822 69.6824 44.6898 69.9844C44.9482 70.2328 45.222 70.4633 45.5093 70.6743C45.8038 70.8759 46.1112 71.0563 46.4294 71.2142C47.3297 71.6468 48.3141 71.8547 49.3048 71.8216C49.2329 71.2292 49.1539 70.6368 49.0676 70.0519C48.8269 70.0506 48.5866 70.0305 48.3488 69.9919C47.1064 69.755 46.005 69.0133 45.2864 67.9298L45.2217 67.8248L45.1427 67.7049L44.9989 67.4874C44.9558 67.4049 44.9198 67.3299 44.8839 67.2474C44.6399 66.7147 44.4889 66.1408 44.4382 65.5528C44.3951 65.1817 44.3951 64.8065 44.4382 64.4355V64.1955C44.4473 64.1091 44.4641 64.0237 44.4885 63.9406V63.7831C44.6311 63.2484 44.857 62.7417 45.157 62.2834C45.2289 62.1709 45.308 62.0659 45.3871 61.961C45.4355 61.9004 45.4871 61.8432 45.5398 61.7849L45.5896 61.7296L45.6171 61.6985C45.6541 61.6673 45.6879 61.6322 45.7177 61.5935L45.8831 61.4361L45.9981 61.3311L46.2425 61.1361C46.4153 61.0097 46.5953 60.8945 46.7817 60.7912C46.602 60.2214 46.4079 59.6666 46.2139 59.1118L46.2138 59.1115C45.8763 59.2755 45.5539 59.4713 45.2505 59.6964L45.1786 59.7864ZM32.3479 67.6677L32.3047 66.7378L32.276 65.8755C32.1987 63.3304 32.691 60.8015 33.7137 58.4894V58.4594C34.0084 57.6796 34.3319 56.7947 34.6769 55.7224C35.9536 51.6796 35.9662 47.3182 34.7129 43.2673C35.4317 43.8222 36.1506 44.3996 36.8695 44.992C37.6376 48.7717 37.4342 52.696 36.28 56.3673C35.9206 57.4771 35.5899 58.3844 35.288 59.1793V59.2393C34.3631 61.3151 33.9152 63.5874 33.9797 65.8755V66.6254V66.8878L34.0587 67.4352C34.6148 71.333 36.5428 74.8751 39.4667 77.3705C42.3906 79.8659 46.1007 81.1359 49.8735 80.9326V82.7023C45.6916 82.9013 41.5877 81.4735 38.3576 78.6957C35.1275 75.9178 33.0012 71.9879 32.391 67.6677H32.3479ZM38.6587 46.5801C39.0678 50.0144 38.7387 53.5006 37.6955 56.7857C37.3289 57.9629 36.9766 58.9003 36.6603 59.7326C35.7905 62.0647 35.3161 63.3544 35.503 66.4213V66.4738C35.8323 70.147 37.5147 73.5438 40.1962 75.9493C42.8777 78.3548 46.3491 79.5815 49.8801 79.3713C49.8801 78.9238 49.8555 78.4763 49.831 78.032C49.8231 77.8882 49.8152 77.7447 49.8082 77.6017C46.7153 77.7886 43.6736 76.7156 41.3242 74.609C38.9748 72.5024 37.5011 69.5266 37.2138 66.3088C37.0414 63.6328 37.422 62.6128 38.2553 60.3799L38.2562 60.3775C38.3102 60.2361 38.3661 60.0914 38.4235 59.943C38.7104 59.2014 39.0338 58.3652 39.3273 57.378C40.2229 54.528 40.6246 51.5343 40.5134 48.5372C39.9383 47.8849 39.3129 47.24 38.6587 46.5801ZM26.1537 63.7902C23.947 65.4021 21.3748 66.3844 18.692 66.6396C17.8725 66.7371 16.9595 66.9171 15.9028 67.1795C12.13 68.002 8.67984 69.9843 5.99699 72.871C5.70945 72.3386 5.43629 71.7912 5.17031 71.2363C8.03324 68.3025 11.6436 66.288 15.5722 65.4324C16.6395 65.2025 17.542 65.0552 18.3427 64.9246L18.3434 64.9244L18.3439 64.9244L18.3446 64.9243L18.3451 64.9242L18.4476 64.9075C20.8804 64.6826 23.2147 63.7986 25.2192 62.343C28.5016 59.9153 30.7275 56.2294 31.4093 52.0928C32.0912 47.9563 31.1732 43.7065 28.8566 40.2747C28.6609 39.9717 28.4429 39.6919 28.2272 39.4148L28.2271 39.4148L28.2271 39.4147L28.2271 39.4147L28.227 39.4147L28.227 39.4146L28.227 39.4146L28.2269 39.4145L28.1378 39.2999C29.2376 39.8473 30.2871 40.4247 31.3007 41.0245C33.2631 44.8144 33.8274 49.2227 32.8871 53.4169C31.9468 57.6111 29.5669 61.3011 26.1968 63.7902H26.1537ZM1.95529 62.0801C2.46568 61.6751 2.99044 61.2852 3.52239 60.9253L4.96011 59.928L3.9609 58.4283C1.67687 54.9946 0.783773 50.7596 1.47559 46.643C2.16741 42.5265 4.38828 38.8609 7.65582 36.4425C9.22399 35.2864 10.991 34.4564 12.8603 33.9979C11.7533 33.748 10.6319 33.523 9.49609 33.3231C8.50577 33.7812 7.56178 34.3414 6.67817 34.9952C3.30972 37.4724 0.932685 41.1557 0 45.3433C0.00202416 48.8883 0.242231 52.4288 0.718856 55.9387C1.19039 57.1754 1.79832 58.3506 2.53037 59.4406C2.36904 59.5516 2.20772 59.6687 2.04834 59.7844L2.04823 59.7845C1.85256 59.9265 1.65983 60.0664 1.47365 60.1904C1.59021 60.6362 1.70021 61.0718 1.80585 61.4901L1.8059 61.4903L1.80599 61.4906C1.85668 61.6913 1.90636 61.8881 1.95529 62.0801ZM5.3632 33.0305C3.30014 34.549 1.54794 36.4813 0.209021 38.7144C0.295283 37.5896 0.388734 36.4573 0.489374 35.325C1.33704 34.2748 2.27815 33.3107 3.30009 32.4456C4.13396 32.5355 4.96065 32.6255 5.78733 32.738L5.3632 33.0305ZM29.9698 88.6489L28.036 86.9842L27.2381 89.4513C27.2221 89.505 27.2029 89.5575 27.1806 89.6087C27.7126 89.8112 28.2445 90.0062 28.7837 90.1936L28.8484 90.0212C28.9318 90.0945 29.0179 90.1621 29.1034 90.2294C29.1579 90.2722 29.2121 90.3148 29.2653 90.3586C30.3723 90.741 31.5009 91.1085 32.6511 91.4159L32.8308 90.9585L31.7453 90.1336C31.1559 89.6612 30.552 89.1663 29.9698 88.6489ZM25.8343 84.9224C26.2186 86.2666 26.1918 87.7023 25.7577 89.0298L25.6489 88.9829L25.4822 88.9113C25.0721 88.7352 24.6672 88.5613 24.2912 88.3775C24.6131 87.3725 24.6232 86.2873 24.3199 85.276C24.0166 84.2647 23.4155 83.379 22.6019 82.7445C21.7883 82.1101 20.8037 81.7594 19.7881 81.7421C18.7724 81.7249 17.7774 82.0421 16.9445 82.6486C16.542 82.9423 16.1876 83.3018 15.895 83.7133C15.4421 83.3984 15.0036 83.076 14.5723 82.746C14.7156 82.5427 14.8692 82.3474 15.0324 82.1611L15.1402 82.0412L15.2408 81.9437C15.3195 81.8533 15.4035 81.7681 15.4924 81.6887C15.6146 81.5763 15.744 81.4713 15.8734 81.3663L15.9813 81.2838L16.1178 81.1863C17.2465 80.4239 18.5749 80.0473 19.9183 80.1088C21.2617 80.1704 22.5533 80.667 23.6135 81.5297C24.6738 82.3924 25.45 83.5783 25.8343 84.9224ZM49.2692 92.6305C45.2065 92.6337 41.1967 91.6695 37.5454 89.8112C33.8941 87.9529 30.6976 85.2497 28.1996 81.9076C28.0127 81.5627 27.8258 81.2402 27.6245 80.9403C26.7509 79.6424 25.5957 78.5782 24.253 77.8345C22.9102 77.0909 21.418 76.6887 19.898 76.6609C18.3779 76.6332 16.8731 76.9805 15.5062 77.6747C14.1394 78.3688 12.9491 79.3901 12.0325 80.6553C12.312 80.9167 12.6013 81.1647 12.8959 81.4172C13.0407 81.5414 13.1868 81.6666 13.3336 81.7951C13.8328 81.0869 14.4399 80.4688 15.1308 79.9655C16.8586 78.6985 18.9973 78.197 21.0787 78.5708C23.1602 78.9446 25.0149 80.1633 26.2371 81.9601C26.4103 82.2175 26.5688 82.4854 26.7115 82.7624L26.7762 82.8824L26.8553 82.9874C30.7604 88.1921 36.2203 91.8869 42.3682 93.4854C44.5607 93.8228 46.7892 94.0778 49.068 94.2352C49.1354 93.7642 49.1964 93.2471 49.2571 92.7333L49.2571 92.7331L49.2571 92.7329L49.2572 92.7325L49.2692 92.6305ZM40.3441 60.8806C40.4956 60.5382 40.666 60.2052 40.8545 59.8833C41.8958 57.2339 42.5314 54.4302 42.7379 51.5749C43.2589 52.3648 43.7388 53.1833 44.1756 54.027C43.8447 56.2672 43.2632 58.4592 42.4431 60.5582L42.3928 60.6857L42.3281 60.8056C42.1727 61.0699 42.0311 61.3428 41.904 61.623C41.34 62.9155 41.1031 64.3372 41.2158 65.7524C41.3285 67.1676 41.787 68.5291 42.5477 69.7068C43.3083 70.8845 44.3456 71.8393 45.5606 72.4798C46.7756 73.1204 48.1278 73.4254 49.4879 73.3657C49.5454 73.9581 49.5957 74.543 49.6461 75.1429C48.0713 75.2388 46.4983 74.9271 45.067 74.2356C42.7451 73.1153 40.944 71.0802 40.0587 68.5766C39.1733 66.073 39.2759 63.3054 40.3441 60.8806ZM45.6978 57.3497L45.2881 56.4199L45.1012 57.4697L45.6978 57.3497ZM29.0998 79.2952C27.6708 77.4393 27.0137 76.586 24.7057 75.3971C22.2775 74.2662 19.5581 74.0082 16.9743 74.6637C14.3904 75.3193 12.0883 76.8511 10.4292 79.0189C10.0007 78.6013 9.65462 78.1765 9.29697 77.7375L9.27185 77.7067C11.1865 75.2851 13.8142 73.5908 16.7468 72.887C19.6793 72.1833 22.7526 72.5095 25.4892 73.8149C27.4911 74.7944 29.2078 76.3108 30.4637 78.2091L30.5602 78.334C31.075 79.0002 31.6535 79.7489 32.3974 80.6236C34.5612 83.15 37.2235 85.1579 40.2017 86.5092C43.1798 87.8606 46.403 88.5234 49.65 88.4521C49.6155 89.0203 49.5678 89.5816 49.5196 90.1491L49.5134 90.2218C46.0452 90.2741 42.6066 89.5486 39.4304 88.0945C36.2542 86.6404 33.4145 84.4916 31.1035 81.7934C30.284 80.8111 29.6658 80.0612 29.1123 79.3114L29.0998 79.2952ZM14.2128 71.9854C17.8517 70.4853 21.9076 70.523 25.5204 72.0904L25.9157 72.2553L26.0379 72.3228H26.0739L26.1961 72.3753L26.6849 72.6528C28.6368 73.7306 30.3185 75.2717 31.5947 77.1519C31.6911 77.2773 31.7899 77.4072 31.8918 77.5411C32.3443 78.1359 32.8561 78.8087 33.4781 79.5065C35.5132 81.8839 38.0215 83.7693 40.8275 85.0308C43.6336 86.2923 46.6699 86.8995 49.7242 86.8101C49.7626 86.2152 49.7913 85.6228 49.8105 85.0329C46.9766 85.1414 44.1546 84.5969 41.5454 83.4383C38.9361 82.2796 36.6039 80.5352 34.7145 78.3292C34.2259 77.7431 33.7971 77.2089 33.41 76.7267L33.4097 76.7264L33.408 76.7243L33.4067 76.7226C33.2255 76.4969 33.0534 76.2825 32.8886 76.0796C31.4713 74.0119 29.6135 72.3153 27.4613 71.1231V71.0781L26.7424 70.7331L26.1386 70.4857C22.9194 69.115 19.3738 68.8115 15.9835 69.6165C12.5932 70.4214 9.5228 72.2958 7.18953 74.9848C7.5202 75.4872 7.85807 75.9821 8.21031 76.4845C9.8228 74.4892 11.8854 72.9431 14.2128 71.9854ZM22.5226 47.1129C22.58 47.2252 22.6189 47.3469 22.6376 47.4728C22.6855 47.6898 22.7168 47.9105 22.731 48.1327C22.7886 48.3526 22.8173 48.5701 22.8173 48.785V49.4524V50.1048C22.7906 50.2486 22.7714 50.3938 22.7598 50.5397C22.6966 50.8961 22.6076 51.247 22.4938 51.5895C22.451 51.7299 22.4006 51.8675 22.3429 52.0019L22.2566 52.1969L22.1703 52.3919L22.0697 52.5868L21.9691 52.7743L21.8612 52.9618C21.6403 53.3295 21.385 53.6736 21.0992 53.9891L20.9483 54.1465C20.8529 54.2521 20.7521 54.3523 20.6464 54.4465L20.596 54.4915L20.4666 54.6039L20.2941 54.7464L20.136 54.8664L19.8987 55.0314L19.7622 55.1213L19.6184 55.2038C18.5238 55.8427 17.276 56.1395 16.0241 56.0587H15.7509C15.2789 56.0064 14.8137 55.9008 14.3635 55.7437L13.8747 55.5488C13.6591 55.4438 13.4506 55.3388 13.2421 55.2188L13.0912 55.1213C13.0406 55.0933 12.9925 55.0606 12.9474 55.0239L12.7964 54.9264C12.703 54.8589 12.6024 54.7839 12.5161 54.7089L12.4226 54.6414L12.3148 54.5439L12.1567 54.4015L12.0057 54.259C11.8649 54.1259 11.7328 53.9831 11.6103 53.8316L11.4881 53.6891L11.4162 53.5916C11.3478 53.5093 11.2871 53.4229 11.2257 53.3355C11.2032 53.3035 11.1806 53.2713 11.1574 53.2392C10.5157 52.275 10.1244 51.1538 10.0217 49.9848C9.97725 49.4522 9.99414 48.916 10.072 48.3876C10.0987 48.2666 10.1179 48.1438 10.1295 48.0202C10.2241 47.5018 10.3811 46.9979 10.5967 46.5205C10.6542 46.3855 10.7189 46.2505 10.7836 46.1231C10.9202 45.8681 11.0999 45.5532 11.2293 45.3732C11.3587 45.1932 11.4881 45.0208 11.6247 44.8558C11.7613 44.6983 11.9122 44.5409 12.0632 44.3909C12.1124 44.337 12.1653 44.2869 12.2214 44.2409L12.5664 43.9785L12.7389 43.851C13.3095 43.4228 13.9466 43.1006 14.6223 42.8987C14.7613 42.8537 14.8979 42.8162 15.0321 42.7862C15.3063 42.7187 15.5851 42.6736 15.866 42.6512C16.1507 42.6287 16.4367 42.6287 16.7214 42.6512C17.1434 42.6684 17.5626 42.7312 17.9722 42.8387C19.4796 43.2309 20.8013 44.1758 21.6959 45.5007C21.9823 45.9057 22.2234 46.3434 22.4147 46.8054L22.5226 47.1129ZM21.1999 49.7599C21.2071 49.64 21.2071 49.5198 21.1999 49.3999L21.1639 49.3324V49.0025C21.0912 48.1358 20.7984 47.305 20.3157 46.5955C19.835 45.8841 19.1835 45.317 18.4265 44.9512C17.6695 44.5853 16.8336 44.4334 16.0025 44.5109C15.1739 44.587 14.3798 44.8924 13.7022 45.3957C13.0218 45.8969 12.481 46.5774 12.1351 47.3678C12.0253 47.609 11.9363 47.86 11.8691 48.1177L11.826 48.2676C11.7095 48.7908 11.6708 49.3294 11.711 49.8648C11.7748 50.7752 12.0728 51.6508 12.5736 52.3994L12.6455 52.4893L12.7533 52.5793L12.8827 52.7443L12.9258 52.7968L13.0696 52.9618L13.1127 53.0067L13.2709 53.1642H13.3068C13.5426 53.3871 13.8004 53.5832 14.076 53.7491H14.1407L14.3132 53.8466H14.3779L14.4642 53.9141L14.5505 53.9516H14.5864C15.5896 54.3799 16.7029 54.4381 17.7422 54.1165C18.0725 54.0264 18.3929 53.9008 18.6983 53.7416L18.8348 53.6666L19.0074 53.5616L19.259 53.3967H19.3093C19.9042 52.9543 20.3956 52.3776 20.747 51.7095L20.8836 51.4245C20.9016 51.3758 20.9213 51.3289 20.9411 51.2821C20.9609 51.2352 20.9806 51.1883 20.9986 51.1396C21.0461 51.0567 21.0779 50.9651 21.0921 50.8696V50.8097L21.1567 50.5547V50.4722L21.1999 50.2398V49.7599ZM98.6933 9.14012L98.4848 8.04533C97.9385 8.29279 97.3993 8.54024 96.8674 8.79519L98.6933 9.14012ZM134.985 37.0887C136.207 36.0689 137.587 34.9066 139.205 33.4069C143.628 29.2871 147.143 24.2166 149.508 18.5442C151.873 12.8719 153.033 6.73244 152.906 0.548187L155.99 0.788141C156.085 7.38696 154.82 13.9302 152.28 19.9745C149.74 26.0189 145.985 31.4232 141.268 35.8214C139.621 37.3586 138.205 38.5659 136.955 39.6082L136.858 39.6898C133.675 42.3704 132.175 43.6339 130.111 47.9916C128.097 52.6205 127.621 57.8181 128.759 62.7609C129.897 67.7037 132.584 72.109 136.394 75.2789C135.641 76.0737 134.872 76.8236 134.086 77.5284C129.862 73.8728 126.908 68.8682 125.682 63.2873C124.455 57.7064 125.024 51.8595 127.3 46.6494V46.5594C129.686 41.5222 131.569 39.9468 134.981 37.0919L134.985 37.0887ZM125.29 7.89522C123.672 11.5456 120.731 14.377 117.114 15.7675C113.496 17.158 109.497 16.9939 105.996 15.3113C105.503 15.0707 105.023 14.8029 104.558 14.509L104.357 14.3815L104.134 14.284C100.469 12.7243 96.6433 11.6146 92.7329 10.9771C91.2377 11.832 89.8 12.7368 88.4198 13.6916C93.4091 14.0726 98.3096 15.2721 102.941 17.2459C103.504 17.5993 104.085 17.9222 104.68 18.2132C108.928 20.255 113.78 20.4542 118.169 18.767C122.557 17.0797 126.124 13.6441 128.086 9.21497C129.285 6.49327 129.828 3.50719 129.668 0.516637C128.633 0.606619 127.605 0.704101 126.584 0.816579C126.703 3.25021 126.259 5.67798 125.29 7.89522ZM88.2427 41.2741C82.5438 40.2568 76.6906 41.6337 71.9617 45.1037L71.9761 45.0737L71.4298 45.4786C66.8099 49.0642 63.7339 54.4075 62.871 60.3464C62.008 66.2852 63.4278 72.3394 66.8216 77.192C70.2154 82.0446 75.3086 85.3032 80.9936 86.2592C86.6786 87.2151 92.4955 85.791 97.1792 82.2966C97.402 82.1316 97.6249 81.9667 97.8477 81.7867C97.2439 80.392 96.6904 78.9597 96.1944 77.5125C95.7199 77.9474 95.2239 78.3523 94.7135 78.7348C91.4676 81.1152 87.5472 82.2846 83.5856 82.0542C79.6239 81.8237 75.8525 80.2068 72.8804 77.4647C69.9084 74.7226 67.9094 71.0154 67.2063 66.942C66.5032 62.8686 67.1371 58.6669 69.0056 55.0157C70.874 51.3644 73.868 48.4769 77.5038 46.8195C81.1396 45.1622 85.2048 44.8317 89.0428 45.8817C92.8808 46.9316 96.2674 49.3006 98.6555 52.6059C101.044 55.9112 102.294 59.9597 102.204 64.0976C103.434 73.4184 107.134 82.196 112.886 89.4427C111.865 89.8027 110.787 90.1476 109.709 90.47C104.036 82.9561 100.385 74.0002 99.1345 64.525V64.0376C99.1417 63.4452 99.1201 62.8753 99.077 62.3279C98.786 59.0021 97.4516 55.8693 95.2805 53.4149C93.1093 50.9605 90.2227 49.3216 87.0681 48.7523C83.9134 48.1829 80.6667 48.7148 77.8313 50.2656C74.9958 51.8164 72.7299 54.2995 71.3846 57.33C70.0394 60.3605 69.6899 63.7693 70.3905 67.028C71.091 70.2867 72.8023 73.2134 75.2593 75.3545C77.7163 77.4957 80.7817 78.7317 83.9805 78.871C87.1792 79.0104 90.3328 78.0453 92.9523 76.1253C93.3744 75.8135 93.78 75.4781 94.1672 75.1205L97.5889 71.9861L99.1273 76.4852C99.5946 77.8499 100.119 79.2147 100.694 80.5344L101.701 82.8665L99.7455 84.4187C99.4939 84.6212 99.2351 84.8161 98.9835 85.0036C95.1185 87.8563 90.5544 89.5015 85.8255 89.7466C81.0966 89.9918 76.3986 88.8268 72.2814 86.3879C68.1642 83.949 64.7982 80.3373 62.5774 75.9754C60.3565 71.6135 59.3727 66.682 59.7412 61.758C60.8339 57.6563 62.0775 53.6596 63.4649 49.9103C65.6426 46.2871 68.6435 43.2802 72.2016 41.1561C75.7598 39.0319 79.7653 37.8562 83.8633 37.7331C87.9612 37.61 92.025 38.5433 95.6945 40.4503C99.3639 42.3573 102.526 45.179 104.9 48.6655L104.957 48.7405C107.931 53.4015 108.299 55.9058 108.96 60.3993L108.961 60.4083C109.191 62.013 109.472 63.8051 109.91 66.0547C111.441 73.7337 114.97 80.8243 120.111 86.5483C119.119 87.0057 118.105 87.4406 117.07 87.868C111.959 81.8636 108.445 74.568 106.877 66.7071C106.445 64.5208 106.177 62.7158 105.941 61.1298L105.941 61.1295L105.906 60.8957L105.882 60.7334C105.245 56.5264 104.946 54.553 102.377 50.5327C99.0228 45.6199 93.9415 42.2913 88.2427 41.2741ZM141.455 41.3545C140.872 41.6847 140.308 42.0502 139.766 42.4493C135.946 45.2656 133.354 49.5495 132.561 54.3588C131.769 59.168 132.84 64.1088 135.539 68.0944C136.573 69.6292 137.83 70.9875 139.263 72.1211C139.938 71.3188 140.607 70.4864 141.254 69.6316C139.406 68.2062 137.91 66.343 136.888 64.1957C135.866 62.0485 135.348 59.6786 135.377 57.2815C135.406 54.8843 135.98 52.5287 137.053 50.4088C138.126 48.2889 139.667 46.4654 141.549 45.0888C141.995 44.7566 142.461 44.4536 142.943 44.1814L143.152 44.0615L143.346 43.904C152.436 36.5303 158.909 26.205 161.741 14.5621C162.345 10.3404 162.805 6.02124 163.114 1.63458L160.239 1.25215C160.241 8.98713 158.55 16.6205 155.295 23.5703C152.04 30.5201 147.306 36.6028 141.455 41.3545ZM153.254 37.9799C154.145 36.8776 155.008 35.7228 155.82 34.5531L157.258 32.4535L158.063 32.8059C157.481 35.0105 156.862 37.1775 156.201 39.2921L155.619 40.042L155.921 40.162C155.685 40.9645 155.405 41.7625 155.129 42.5488C155.052 42.769 154.975 42.9882 154.9 43.2064L154.627 43.1014L150.314 41.6017L153.254 37.9799ZM97.4569 23.2459C99.5129 23.9957 101.152 24.6256 102.618 25.218C106.694 26.8752 108.937 27.7825 114.307 27.4226H114.4C118.727 27.0028 122.872 25.4048 126.42 22.7884C129.867 20.2445 132.641 16.8319 134.484 12.8684C136.327 8.90484 137.178 4.51933 136.958 0.120286C136.161 0.120286 135.368 0.164765 134.576 0.20919L134.576 0.209199C134.339 0.222452 134.103 0.235701 133.867 0.247761C134.069 4.11188 133.328 7.96629 131.714 11.4506C130.1 14.935 127.665 17.9354 124.637 20.1714C121.526 22.4574 117.895 23.8534 114.106 24.2207C109.427 24.543 107.637 23.8161 103.742 22.2346L103.74 22.2336C102.252 21.6262 100.562 20.9438 98.4274 20.2014C93.4938 18.5123 88.3119 17.7506 83.123 17.9519C81.9164 19.0624 80.7647 20.2361 79.6725 21.4687C85.6537 20.6818 91.7277 21.2888 97.4569 23.2459ZM114.757 59.4706C114.98 61.0078 115.238 62.7475 115.648 64.8246C117.085 72.0176 120.558 78.5952 125.619 83.7059C124.66 84.2558 123.702 84.7807 122.743 85.2807C117.623 79.8267 114.108 72.957 112.615 65.4844C112.19 63.3323 111.924 61.5477 111.694 59.973C111.04 55.5338 110.566 52.3395 107.216 47.0905L107.18 47.038C102.938 40.7879 96.4936 36.5467 89.2592 35.2437C82.0248 33.9408 74.5903 35.6824 68.5846 40.0868C68.0023 40.5142 67.4488 40.9641 66.9025 41.4365C67.8561 39.3569 68.8578 37.3573 69.9073 35.4377C76.5392 31.7099 84.2499 30.6433 91.584 32.4391C98.9182 34.235 105.368 38.7692 109.718 45.1858L109.775 45.2683C113.455 50.9965 114.017 54.6551 114.715 59.2L114.757 59.4706ZM54.6317 92.6889C54.6317 92.9214 54.6317 93.1539 54.5742 93.3863L55.3505 93.4913C55.0846 93.2289 54.8402 92.9814 54.6317 92.6889ZM55.6761 84.3174C55.7727 84.4715 55.8695 84.6259 55.9735 84.7779C58.6287 88.7068 62.0086 92.0438 65.9153 94.5935C63.9457 94.451 61.9688 94.2786 59.9848 94.0611C58.148 92.4502 56.463 90.6599 54.9528 88.7146C55.1037 87.1249 55.2691 85.5502 55.4632 83.983C55.5357 84.0933 55.6056 84.2049 55.6757 84.3167L55.676 84.3171L55.6761 84.3174ZM104.761 88.2814L103.007 85.5295L100.39 87.4266C96.6974 90.1192 92.4302 91.8303 87.9593 92.411C83.4885 92.9916 78.9493 92.4244 74.7365 90.7585C70.5236 89.0927 66.7646 86.3786 63.7863 82.8523C60.8079 79.326 58.7003 75.0942 57.6468 70.5248C57.2155 72.6194 56.8249 74.7415 56.4751 76.8911C57.2858 78.7707 58.2654 80.5658 59.4008 82.2526C63.7341 88.6708 70.175 93.2068 77.5016 95.0001C83.7095 94.947 89.9065 94.4459 96.0481 93.5004C98.2031 92.5929 100.255 91.4386 102.166 90.0586C102.597 90.7385 103.043 91.4133 103.503 92.0832C104.61 91.8283 105.702 91.5658 106.781 91.2809C106.076 90.321 105.393 89.3237 104.761 88.2814ZM94.5537 57.207C94.5951 57.2742 94.6383 57.3442 94.6725 57.4096C94.7262 57.5056 94.7888 57.596 94.8594 57.6795C95.9763 59.7568 96.4954 62.126 96.3546 64.5032C96.3492 64.5679 96.3408 64.6325 96.3323 64.6972C96.3183 64.805 96.3043 64.9128 96.3043 65.0206C96.2106 65.9185 96.025 66.8034 95.7507 67.6601C95.6563 67.9625 95.5872 68.1396 95.4367 68.5254L95.4367 68.5255L95.4365 68.5261L95.4057 68.6049C95.2401 69.0155 95.048 69.4138 94.8306 69.7972L94.8305 69.7973L94.8304 69.7975C94.7802 69.8949 94.7299 69.9923 94.6725 70.0896L94.4999 70.3671L94.3202 70.652C94.2053 70.8318 94.0761 71.0115 93.9468 71.1913L93.9467 71.1915L93.9465 71.1917L93.9464 71.1919L93.817 71.3569C93.8019 71.3772 93.7868 71.3981 93.7715 71.4193C93.7358 71.4687 93.6991 71.5196 93.6589 71.5668L93.4145 71.8668L93.1557 72.1592C92.9281 72.4215 92.6882 72.6717 92.4368 72.9091C92.3577 72.9841 92.2787 73.0591 92.1924 73.1265L92.0271 73.2765L92.0269 73.2767L92.0267 73.2768L92.0265 73.2769C91.8254 73.4418 91.6243 73.6066 91.4089 73.7564C88.9496 75.5777 85.9079 76.3306 82.9264 75.856C82.7107 75.826 82.495 75.7885 82.2866 75.7435C81.3963 75.5544 80.5302 75.2574 79.7059 74.8587C79.4399 74.7462 79.2099 74.6263 78.987 74.4988C78.5407 74.2421 78.1087 73.9592 77.6931 73.6514C77.384 73.4115 77.0821 73.164 76.7945 72.9016C76.507 72.6316 76.2338 72.3542 75.975 72.0617C75.9517 72.0353 75.9341 72.0161 75.9176 71.998L75.9175 71.9979C75.8732 71.9493 75.8367 71.9093 75.7162 71.7618C75.5509 71.5593 75.3137 71.2444 75.2346 71.1394C75.1555 71.0344 75.0764 70.9295 75.0046 70.817C74.2651 69.7233 73.7041 68.5097 73.344 67.2252C73.2657 66.9793 73.2009 66.7289 73.1499 66.4753C73.0364 65.9513 72.9548 65.4204 72.9055 64.8856C72.8576 64.3447 72.8456 63.801 72.8696 63.2584C72.905 62.4547 73.0133 61.6563 73.193 60.8739C73.8698 57.9803 75.5268 55.4395 77.8584 53.7203C78.5682 53.1946 79.3326 52.7544 80.1372 52.408L80.6763 52.1981C80.8564 52.1243 81.0479 52.0625 81.2355 52.002L81.3017 51.9806C81.6971 51.8681 82.0422 51.7706 82.416 51.6957C82.7934 51.601 83.1784 51.5433 83.5661 51.5232C83.9532 51.4857 84.342 51.4707 84.7307 51.4782C85.1174 51.478 85.5038 51.5006 85.888 51.5457C86.1133 51.5757 86.3529 51.6132 86.6069 51.6582C87.2347 51.7734 87.8525 51.9415 88.4544 52.1606C88.706 52.2505 88.9432 52.3405 89.1732 52.4455L89.5254 52.603L89.8705 52.7754L90.2084 52.9629L90.539 53.1579L90.8625 53.3603C91.5072 53.7806 92.1093 54.268 92.6597 54.8151C92.7579 54.9021 92.8515 54.9947 92.94 55.0925C93.1197 55.28 93.2922 55.4674 93.4576 55.6699L93.5439 55.7674L93.7379 56.0223C93.8242 56.1273 93.9033 56.2323 93.9824 56.3448L94.198 56.6447L94.2363 56.703C94.3185 56.8278 94.4038 56.9575 94.4784 57.0871L94.5215 57.1546L94.5537 57.207ZM92.5159 67.3451C92.5087 67.3207 92.5087 67.2946 92.5159 67.2702L92.5375 67.2477C93.3226 65.3734 93.4722 63.2761 92.9616 61.3013C92.8035 60.6737 92.5818 60.0653 92.3002 59.4867L92.1708 59.2242L92.1514 59.1861L92.1514 59.186L92.1513 59.1859C92.1055 59.096 92.0734 59.0329 91.9911 58.8943C91.8977 58.7368 91.8042 58.5793 91.7036 58.4219L91.6461 58.3244C90.8708 57.198 89.8606 56.2699 88.6916 55.6099C88.5262 55.5199 88.3609 55.4299 88.1884 55.3474L87.6996 55.13H87.6708C87.5141 55.0614 87.3532 55.0037 87.1892 54.9575H87.0957L86.65 54.8301H86.4991L86.0965 54.7476H85.888L85.543 54.6951H83.8105C82.2915 54.8382 80.8354 55.3962 79.5888 56.3129C78.3422 57.2296 77.349 58.4726 76.7092 59.9168C76.0694 61.3611 75.8055 62.9556 75.9442 64.54C76.0828 66.1244 76.6191 67.6428 77.499 68.9423C78.3751 70.2395 79.5625 71.2738 80.9423 71.9418C81.3771 72.1539 81.8295 72.3245 82.2938 72.4517C82.3827 72.4846 82.474 72.5096 82.5669 72.5267C83.7586 72.8247 84.9975 72.8545 86.2011 72.614C87.4046 72.3735 88.5453 71.8682 89.547 71.1319H89.583L89.7483 71.0045L89.9568 70.832L90.2443 70.5845L90.3378 70.502L90.3805 70.4613L90.407 70.4362L90.4072 70.436C90.4795 70.3677 90.5529 70.2983 90.6181 70.2246L90.6972 70.1496L90.6973 70.1495C90.7907 70.052 90.8841 69.9546 90.9704 69.8497L91.0279 69.7822C91.416 69.3179 91.7602 68.8157 92.0558 68.2825L92.1205 68.17L92.293 67.8251L92.3505 67.7126L92.444 67.5101C92.4796 67.4615 92.5042 67.4051 92.5159 67.3451ZM143.217 47.5411C140.724 49.3868 139.014 52.1693 138.447 55.3033C137.88 58.4373 138.5 61.6785 140.177 64.3454L140.349 64.6078V64.6528L140.5 64.8628C140.68 65.1252 140.867 65.3727 141.068 65.6126C141.269 65.8526 141.348 65.9426 141.499 66.1L141.672 66.28L141.887 66.49C142.209 66.8047 142.55 67.0978 142.908 67.3673C143.483 66.55 144.044 65.7101 144.598 64.8478C142.947 63.5246 141.799 61.6337 141.359 59.5113C140.919 57.3888 141.214 55.1723 142.193 53.2557C143.172 51.3391 144.77 49.8465 146.704 49.0432C148.638 48.2399 150.783 48.1779 152.757 48.8683C152.936 48.4259 153.107 47.9802 153.278 47.5319L153.278 47.5317C153.469 47.0302 153.662 46.5256 153.871 46.0189C152.107 45.3708 150.22 45.1708 148.367 45.4355C146.515 45.7003 144.749 46.4221 143.217 47.5411ZM119.954 5.30815C120.273 4.59335 120.498 3.83657 120.622 3.05858C120.695 2.58242 120.731 2.10099 120.73 1.61886C121.751 1.45389 122.779 1.30392 123.821 1.16145C123.917 3.7464 123.217 6.29539 121.823 8.43505C121.462 8.98181 121.063 9.50057 120.63 9.98725C120.099 10.5712 119.514 11.0987 118.883 11.562L118.804 11.6219L118.545 11.8019L118.322 11.9594L118.049 12.1243L117.833 12.2518C117.747 12.3043 117.661 12.3568 117.567 12.4018L117.395 12.4993C117.129 12.6417 116.856 12.7692 116.582 12.8892L116.273 13.0167C116.179 13.0705 116.077 13.1085 115.971 13.1292L115.662 13.2416L115.044 13.4291L114.411 13.5791L114.11 13.6391C113.566 13.7402 113.016 13.8004 112.463 13.819H112.154C111.186 13.822 110.22 13.7037 109.279 13.4666L108.912 13.3691C107.714 13.0196 106.577 12.4755 105.541 11.7569L105.34 11.6219L104.923 11.307C104.657 11.0895 104.398 10.8721 104.153 10.6396L104.074 10.5646C104.054 10.5453 104.034 10.5265 104.013 10.5079C103.955 10.4539 103.898 10.4009 103.844 10.3397L103.722 10.2122L103.399 9.87478L103.075 9.48485L103.032 9.43236L102.788 9.11742L102.723 9.02744C102.623 8.89995 102.53 8.76731 102.443 8.63002C102.048 8.05357 101.704 7.44121 101.415 6.80037C101.883 6.63625 102.355 6.45616 102.83 6.27478C103.332 6.08324 103.838 5.89024 104.348 5.71307C104.526 6.07167 104.728 6.41737 104.951 6.74788L105.03 6.85286L105.375 7.31777L105.555 7.55772L105.836 7.86516L106.022 8.06762L106.547 8.55503C106.696 8.68512 106.854 8.80497 107.01 8.92305C107.043 8.9479 107.075 8.97267 107.108 8.99744H107.151C107.939 9.56645 108.811 9.99707 109.732 10.2722L109.998 10.3472H110.048L110.487 10.4447H110.623H110.911C111.556 10.5408 112.21 10.5584 112.859 10.4972C113.894 10.4044 114.905 10.1174 115.842 9.64982L116.259 9.43236L116.324 9.39487L116.676 9.17741L116.884 9.03494L117.078 8.89996C118.322 7.98607 119.313 6.74746 119.954 5.30815Z" fill="url(#paint10_linear_341_95)"/>
<defs>
<linearGradient id="paint0_linear_341_95" x1="258.852" y1="75.6568" x2="286.267" y2="70.9462" gradientUnits="userSpaceOnUse">
<stop stop-color="#6E97AE"/>
<stop offset="1" stop-color="#64A9A1"/>
</linearGradient>
<linearGradient id="paint1_linear_341_95" x1="191.291" y1="73.106" x2="226.37" y2="67.5854" gradientUnits="userSpaceOnUse">
<stop stop-color="#6E97AE"/>
<stop offset="1" stop-color="#64A9A1"/>
</linearGradient>
<linearGradient id="paint2_linear_341_95" x1="237.717" y1="73.5368" x2="257.541" y2="71.7168" gradientUnits="userSpaceOnUse">
<stop stop-color="#6E97AE"/>
<stop offset="1" stop-color="#64A9A1"/>
</linearGradient>
<linearGradient id="paint3_linear_341_95" x1="301.527" y1="75.8112" x2="310.138" y2="75.3454" gradientUnits="userSpaceOnUse">
<stop stop-color="#6E97AE"/>
<stop offset="1" stop-color="#64A9A1"/>
</linearGradient>
<linearGradient id="paint4_linear_341_95" x1="301.078" y1="54.7236" x2="310.421" y2="53.1816" gradientUnits="userSpaceOnUse">
<stop stop-color="#6E97AE"/>
<stop offset="1" stop-color="#64A9A1"/>
</linearGradient>
<linearGradient id="paint5_linear_341_95" x1="226.699" y1="75.8121" x2="235.293" y2="75.3482" gradientUnits="userSpaceOnUse">
<stop stop-color="#6E97AE"/>
<stop offset="1" stop-color="#64A9A1"/>
</linearGradient>
<linearGradient id="paint6_linear_341_95" x1="226.252" y1="54.7236" x2="235.595" y2="53.1815" gradientUnits="userSpaceOnUse">
<stop stop-color="#6E97AE"/>
<stop offset="1" stop-color="#64A9A1"/>
</linearGradient>
<linearGradient id="paint7_linear_341_95" x1="289.234" y1="72.8947" x2="297.854" y2="72.5757" gradientUnits="userSpaceOnUse">
<stop stop-color="#6E97AE"/>
<stop offset="1" stop-color="#64A9A1"/>
</linearGradient>
<linearGradient id="paint8_linear_341_95" x1="313.406" y1="75.4164" x2="338.365" y2="71.6498" gradientUnits="userSpaceOnUse">
<stop stop-color="#6E97AE"/>
<stop offset="1" stop-color="#64A9A1"/>
</linearGradient>
<linearGradient id="paint9_linear_341_95" x1="339.459" y1="75.4166" x2="364.43" y2="71.6464" gradientUnits="userSpaceOnUse">
<stop stop-color="#6E97AE"/>
<stop offset="1" stop-color="#64A9A1"/>
</linearGradient>
<linearGradient id="paint10_linear_341_95" x1="81.5572" y1="0" x2="81.5572" y2="95.0001" gradientUnits="userSpaceOnUse">
<stop stop-color="#AEC7CB"/>
<stop offset="1" stop-color="#89A6AA"/>
</linearGradient>
</defs>
</svg>
