<svg width="90" height="82" viewBox="0 0 90 82" fill="none" xmlns="http://www.w3.org/2000/svg">
<path d="M48.6656 78.3407C48.6213 78.3407 48.5769 78.3407 48.5557 78.365C48.5433 78.4193 48.5203 78.4703 48.4881 78.5149C48.4353 78.5995 48.3629 78.6689 48.2776 78.7167C48.1923 78.7645 48.0968 78.7891 48 78.7882C47.5351 78.7882 47.1124 78.0917 46.8018 76.7713L45.5592 71.7278C45.0056 69.4397 43.5179 68.2935 41.1427 68.2935C40.0055 68.2584 38.8847 68.5818 37.9264 69.2215V70.5749C38.3491 70.4691 38.9217 70.2421 39.5557 70.2421C40.532 70.2421 41.1533 70.8395 41.4428 72.1576L41.7872 73.5949C41.2385 73.3615 40.6488 73.2511 40.0565 73.2708C37.0389 73.2708 35.1074 74.8138 35.1074 77.1791C35.1074 79.4936 37.0389 81.1601 39.7226 81.1601C40.8997 81.1601 42.2986 80.739 42.9621 80.1902C43.1418 80.0667 43.2305 79.9697 43.2749 79.9411C43.3087 79.9186 43.3458 79.9022 43.3848 79.8926C43.4524 79.8926 43.4735 79.9168 43.5179 79.9675L43.7398 80.2144C44.3167 80.8382 45.0711 81.1358 46.0474 81.1358C47.7379 81.1358 48.9551 80.1902 48.9551 78.872C48.9551 78.4951 48.8664 78.3407 48.6656 78.3407ZM41.1659 79.2225C40.0121 79.2225 39.1457 78.2261 39.1457 76.9079C39.1457 75.689 39.9234 74.7918 40.9652 74.7918C41.4025 74.7871 41.83 74.9267 42.1866 75.1908L42.6853 77.3797C42.73 77.5589 42.7527 77.7433 42.7529 77.9285C42.7424 78.6692 42.0746 79.2225 41.1659 79.2225Z" fill="#FEFEFE"/>
<path d="M14.9445 63.2637L10.4497 76.181C10.3842 76.3816 10.2722 76.505 10.1623 76.505C10.0524 76.505 9.951 76.4058 9.89605 76.2559L5.47315 63.2637H0L6.67767 80.7858C6.76642 81.0856 6.85518 81.1583 7.16582 81.1583H10.7773C11.109 81.1583 11.1323 81.1341 11.2422 80.81L17.6367 63.2637H14.9445Z" fill="#FEFEFE"/>
<path d="M33.1763 68.3132C33.3094 68.3132 33.3981 68.3881 33.3981 68.463C33.3876 68.5468 33.3728 68.63 33.3538 68.7121L32.9649 69.8319C32.9351 69.9334 32.8725 70.021 32.7877 70.0797C32.7029 70.1383 32.6013 70.1645 32.5 70.1538H30.4925C30.2706 70.1538 30.203 70.2552 30.203 70.5285V77.7542C30.203 78.7748 30.5369 79.1981 31.2913 79.1981C31.8123 79.1756 32.3115 78.9741 32.7114 78.625C33.022 78.3759 33.2439 78.226 33.377 78.226C33.5299 78.2323 33.6741 78.3014 33.7782 78.4183C33.8824 78.5352 33.9379 78.6903 33.9328 78.8498C33.9317 78.8578 33.9317 78.866 33.9328 78.874C33.9328 80.0423 31.6083 81.1621 29.2077 81.1621C27.0776 81.1621 25.9661 80.4766 25.9661 79.2818V70.5285C25.9661 70.2794 25.8541 70.1538 25.6554 70.1538H24.6559C24.588 70.1635 24.5189 70.1576 24.4535 70.1364C24.388 70.1152 24.3279 70.0792 24.2773 70.0311C24.2266 69.9829 24.1868 69.9237 24.1606 69.8576C24.1343 69.7916 24.1224 69.7204 24.1255 69.649C24.1255 69.5233 24.1551 69.1728 24.7594 68.7672C26.524 67.7202 27.9017 66.1706 28.9457 64.6253C29.2119 64.2528 29.4106 64.1029 29.6557 64.1029C29.8127 64.1153 29.9587 64.1916 30.0623 64.3153C30.1659 64.439 30.2187 64.6002 30.2093 64.7642V68.2911L33.1763 68.3132Z" fill="#FEFEFE"/>
<path d="M61.5115 69.0145C61.4671 68.7389 61.4016 68.6397 61.2009 68.6397C61.1237 68.6329 61.0464 68.6506 60.979 68.6904L57.8219 69.9645C57.6638 70.0292 57.5281 70.142 57.4324 70.2882C57.3366 70.4345 57.2853 70.6074 57.2852 70.7845V81.1448H61.5221V78.4159C61.5221 78.2792 61.5115 78.1249 61.5115 77.9552V69.0145Z" fill="#FEFEFE"/>
<path d="M60.7311 63.5723C59.4864 63.3166 57.8085 64.454 57.202 65.9662C57.1535 66.0956 57.1153 66.2291 57.0879 66.3652C56.9231 67.2469 57.314 67.8949 58.1192 68.0603C58.8503 68.2102 59.9111 67.8222 60.6803 67.0727C61.191 66.6004 61.5527 65.978 61.7179 65.2872C61.8954 64.3857 61.4939 63.731 60.7311 63.5723Z" fill="#FEFEFE"/>
<path d="M22.6289 69.0147C22.5845 68.7392 22.519 68.64 22.3182 68.64C22.2446 68.6354 22.1712 68.653 22.1069 68.6907L18.9371 69.9648C18.7791 70.0294 18.6433 70.1422 18.5476 70.2885C18.4519 70.4348 18.4006 70.6077 18.4004 70.7848V81.1451H22.6268V69.0213L22.6289 69.0147Z" fill="#FEFEFE"/>
<path d="M21.8475 63.5723C20.6029 63.3166 18.9271 64.454 18.3185 65.9662C18.27 66.0956 18.2318 66.2291 18.2044 66.3652C18.0417 67.2469 18.4305 67.8949 19.2357 68.0603C19.9668 68.2102 21.0276 67.8222 21.7968 67.0727C22.3075 66.6004 22.6692 65.978 22.8344 65.2872C23.014 64.3857 22.6125 63.731 21.8475 63.5723Z" fill="#FEFEFE"/>
<path d="M55.1313 78.4622V63.2525C55.0869 62.9549 55.0426 62.8799 54.8418 62.8799C54.7601 62.8748 54.6781 62.8829 54.5988 62.9042L51.429 64.2069C51.2721 64.2721 51.1375 64.3849 51.0425 64.5306C50.9476 64.6764 50.8967 64.8485 50.8965 65.0247V81.1471H55.1229L55.1313 78.4622Z" fill="#FEFEFE"/>
<path d="M74.3503 73.6504C73.5915 73.1388 72.7589 72.7577 71.8842 72.5218L69.1941 71.7745C68.0635 71.4527 67.7846 71.2345 67.7529 70.6724C67.717 70.0728 68.2453 69.5922 69.0419 69.5415C70.4599 69.4512 72.3279 70.2227 73.6909 71.4747C73.9741 71.7723 74.2023 71.8627 74.3798 71.8517C74.4412 71.848 74.5013 71.8318 74.5566 71.8038C74.6119 71.7759 74.6614 71.7369 74.7023 71.689C74.7431 71.641 74.7745 71.5852 74.7946 71.5246C74.8147 71.464 74.8231 71.3999 74.8194 71.3359C74.8194 71.3359 74.8194 71.3116 74.8194 71.2984C74.7808 71.0922 74.6928 70.8996 74.5637 70.7385C73.1711 68.7039 69.7816 67.7605 67.6599 67.8971C65.0903 68.0602 63.3406 69.6958 63.4652 71.8142C63.535 72.9913 64.171 73.9744 65.3206 74.6357C65.9905 75.0766 66.6054 75.3147 67.7888 75.7643L69.3779 76.3198C71.0114 76.8974 71.5249 77.3118 71.5714 78.0965C71.6179 78.8812 71.0283 79.4698 70.0774 79.5315C69.1265 79.5932 67.3303 79.0113 65.8785 77.9554C65.5006 77.6665 65.1516 77.3386 64.8367 76.9767C64.4521 76.5028 64.2429 76.3595 63.9914 76.3749C63.704 76.3926 63.5202 76.6923 63.5413 77.0362C63.5587 77.2714 63.6312 77.4985 63.7526 77.6975L63.9154 77.9709C65.3671 80.1002 68.2241 80.799 68.2241 80.799C69.3462 81.0479 70.4922 81.1597 71.639 81.1318C74.2742 80.9643 76.119 79.0355 75.9753 76.602C75.947 76.0111 75.785 75.4356 75.5026 74.9226C75.2201 74.4096 74.8253 73.9736 74.3503 73.6504Z" fill="#FEFEFE"/>
<path d="M87.8872 73.6504C87.1284 73.1388 86.2958 72.7577 85.4211 72.5218L82.731 71.7745C81.6005 71.4527 81.3215 71.2345 81.2898 70.6724C81.2539 70.0728 81.7822 69.5922 82.5789 69.5415C83.9968 69.4512 85.8649 70.2227 87.2279 71.4747C87.511 71.7723 87.7393 71.8627 87.9168 71.8517C87.9781 71.848 88.0382 71.8318 88.0935 71.8038C88.1489 71.7759 88.1984 71.7369 88.2392 71.689C88.28 71.641 88.3114 71.5852 88.3315 71.5246C88.3516 71.464 88.36 71.3999 88.3563 71.3359C88.3563 71.3359 88.3563 71.3116 88.3563 71.2984C88.3177 71.0922 88.2298 70.8996 88.1006 70.7385C86.708 68.7039 83.3185 67.7605 81.1968 67.8971C78.6272 68.0602 76.8796 69.6958 77.0022 71.8142C77.0719 72.9913 77.708 73.9744 78.8575 74.6357C79.5274 75.0766 80.1424 75.3147 81.3257 75.7643L82.9149 76.3198C84.5484 76.8974 85.0619 77.3118 85.1083 78.0965C85.1548 78.8812 84.5653 79.4698 83.6143 79.5315C82.6634 79.5932 80.8672 79.0113 79.4154 77.9554C79.0375 77.6665 78.6885 77.3386 78.3736 76.9767C77.989 76.5028 77.7798 76.3595 77.5283 76.3749C77.2409 76.3926 77.0592 76.6924 77.0782 77.0362C77.0969 77.2711 77.1694 77.4979 77.2895 77.6975L77.4523 77.9709C78.904 80.1002 81.7611 80.799 81.7611 80.799C82.8852 81.0485 84.0334 81.1602 85.1823 81.1319C87.8175 80.9643 89.6623 79.0355 89.5186 76.602C89.4896 76.0105 89.3266 75.4347 89.043 74.9216C88.7595 74.4085 88.3634 73.9729 87.8872 73.6504Z" fill="#FEFEFE"/>
<path fill-rule="evenodd" clip-rule="evenodd" d="M65.3194 15.6569C67.5517 15.3157 69.6758 14.4321 71.5205 13.0773C73.5107 11.6101 75.1128 9.64182 76.1781 7.35543C77.2433 5.06905 77.737 2.53882 77.6133 0H79.2233C79.3421 2.80213 78.7846 5.59053 77.6019 8.10954C76.4193 10.6285 74.6494 12.7976 72.4544 14.4177C70.4038 15.9209 68.0427 16.8994 65.5622 17.274V17.3208L64.6956 17.3831L63.9485 17.4494V17.4221C60.9328 17.5139 59.2359 16.8353 57.329 16.0728L57.2244 16.031L57.1721 16.0115C56.4623 15.7231 55.6592 15.3997 54.6842 15.0607C51.01 13.8006 47.0475 13.787 43.3654 15.0217C43.8684 14.2658 44.3889 13.5449 44.9268 12.8591C48.3401 12.1158 51.8808 12.3241 55.1922 13.4631C56.1507 13.7914 56.9383 14.1092 57.6345 14.3902L57.7511 14.4372L57.8072 14.4606C59.6787 15.2205 61.158 15.8206 63.8924 15.7348H64.3706H64.5536H64.8226L65.3194 15.6569ZM69.5174 35.3191C68.1577 31.7196 68.1912 27.7099 69.6108 24.1356L69.7677 23.746L69.8237 23.6291V23.5628L69.876 23.442L70.1263 22.9627C71.4225 20.4455 72.659 19.4129 74.2354 18.1036L74.3744 17.9867L74.3746 17.9865L74.375 17.9862L74.3753 17.9859C74.9612 17.493 75.6219 16.9371 76.3722 16.241C78.5356 14.2289 80.2519 11.7485 81.401 8.97283C82.5501 6.19719 83.1045 3.19331 83.0253 0.17102C82.4836 0.13595 81.9532 0.112569 81.4115 0.0891893C81.5048 2.88727 81.007 5.67252 79.9535 8.24759C78.8999 10.8227 77.3164 13.1245 75.315 14.9901C74.538 15.711 73.8544 16.2838 73.2418 16.7943C71.6093 18.1581 70.1861 19.3544 68.7367 22.1639L68.6956 22.1444L68.3818 22.8848L68.1016 23.481H68.1315C66.8763 26.6637 66.5927 30.1728 67.3194 33.5298C68.0461 36.8868 69.7476 39.9283 72.1921 42.2397C72.6516 41.9162 73.0998 41.5811 73.5294 41.2343C71.7471 39.6358 70.3693 37.6043 69.5174 35.3191ZM5.63653 16.756L5.41613 16.9782C5.42083 16.9455 5.42487 16.9129 5.4288 16.8811C5.43425 16.837 5.4395 16.7945 5.44602 16.756H5.63653ZM14.0028 30.8964C13.8162 30.908 13.6291 30.908 13.4425 30.8964C10.8992 31.2523 8.50104 32.3398 6.51671 34.0371C6.41959 33.7292 6.3262 33.4136 6.24028 33.098C8.29458 31.4069 10.7452 30.3198 13.3379 29.9495H13.4724C13.6266 29.9612 13.7814 29.9612 13.9356 29.9495C14.8623 29.8615 15.7336 29.4506 16.4092 28.7831C17.0847 28.1155 17.5251 27.2302 17.6594 26.2697C17.7938 25.3092 17.6142 24.3295 17.1496 23.4884C16.6851 22.6474 15.9626 21.994 15.0987 21.6335C14.2347 21.273 13.2795 21.2264 12.3871 21.5012C11.4946 21.7761 10.7168 22.3563 10.1791 23.1485C9.64135 23.9407 9.37494 24.8986 9.42278 25.868C9.47062 26.8374 9.82993 27.7617 10.4428 28.4921L11.302 29.5091L10.0655 29.9767C9.71064 30.117 9.33708 30.2729 8.96352 30.4404L8.32474 30.7405L7.89888 30.1599C7.88494 30.1401 7.87073 30.1204 7.85647 30.1006L7.85644 30.1006C7.81722 30.0461 7.77759 29.991 7.74198 29.9339C6.96249 28.7854 6.5129 27.429 6.4459 26.0235C6.3789 24.6181 6.69727 23.2218 7.36369 21.9983C8.03012 20.7748 9.017 19.7748 10.2087 19.1153C11.4004 18.4559 12.7476 18.1644 14.0925 18.275C15.2132 18.5984 16.2927 18.9881 17.3275 19.3778C18.1346 19.9099 18.8287 20.6088 19.3671 21.4313C20.4529 23.0335 20.8846 25.0198 20.5673 26.9539C20.25 28.8879 19.2097 30.6114 17.6749 31.7458H17.6525C16.3787 32.6304 15.7025 32.7395 14.4698 32.9382C14.4037 32.9492 14.3353 32.9604 14.2647 32.9719L14.2633 32.9721C13.883 33.0343 13.4368 33.1072 12.927 33.2188C10.8274 33.6724 8.88851 34.7215 7.3236 36.2504C7.18538 35.9543 7.06584 35.6503 6.95004 35.3425C8.59008 33.8253 10.5825 32.7827 12.729 32.3186C13.3566 32.1823 13.8684 32.1004 14.3166 32.0303L14.3586 32.0235C15.5097 31.8374 16.0372 31.7521 17.1445 30.9821C18.1488 30.2407 18.92 29.2054 19.3605 28.007C19.801 26.8085 19.8911 25.5008 19.6193 24.249C19.3476 22.9973 18.7262 21.8576 17.8337 20.974C16.9413 20.0905 15.8177 19.5027 14.6051 19.285C13.3926 19.0673 12.1453 19.2294 11.021 19.7509C9.89672 20.2723 8.94584 21.1297 8.28852 22.2147C7.6312 23.2997 7.29694 24.5636 7.32799 25.8466C7.35904 27.1297 7.75399 28.3744 8.46295 29.4234L8.60491 29.6221C8.98594 29.4429 9.39685 29.2792 9.77041 29.1312C9.65233 28.9905 9.54136 28.8435 9.43794 28.6908C8.80206 27.7472 8.48234 26.6112 8.52833 25.4588C8.57433 24.3064 8.98347 23.202 9.69234 22.3168C10.4012 21.4316 11.3702 20.8151 12.4492 20.5627C13.5281 20.3104 14.6567 20.4364 15.66 20.9211C16.6633 21.4059 17.4853 22.2223 17.9986 23.2439C18.5119 24.2655 18.6877 25.4352 18.4989 26.5717C18.3101 27.7082 17.7672 28.7479 16.9543 29.5298C16.1415 30.3117 15.104 30.792 14.0028 30.8964ZM28.4772 31.0685H28.451L28.3651 31.1425L28.2605 31.2399L28.1671 31.3335L28.1335 31.3685L28.07 31.4387V31.4621C28.0065 31.5361 27.9467 31.6101 27.887 31.692L27.801 31.8167L27.7637 31.8751C27.5671 32.1821 27.4195 32.5203 27.3266 32.8766C27.3288 32.8959 27.3272 32.9155 27.3221 32.9342C27.317 32.9529 27.3083 32.9704 27.2967 32.9857C27.2321 33.2637 27.2008 33.549 27.2033 33.8351V33.9248C27.2103 34.0893 27.2265 34.2532 27.2519 34.4157C27.2433 34.4436 27.2433 34.4736 27.2519 34.5015C27.271 34.5637 27.2848 34.6276 27.293 34.6924C27.293 34.732 27.3066 34.7701 27.3203 34.8086C27.3282 34.8306 27.3361 34.8528 27.3416 34.8756C27.3495 34.9061 27.3594 34.9361 27.3714 34.9652L27.4125 35.0704L27.4462 35.16C27.4798 35.2418 27.5134 35.3237 27.5545 35.4016C27.5609 35.4197 27.5697 35.4367 27.5806 35.4523C27.5921 35.4795 27.6058 35.5056 27.6217 35.5302L27.6553 35.5964L27.7002 35.6783L27.745 35.7445C27.759 35.7707 27.7753 35.7955 27.7936 35.8186V35.8497C27.9194 36.0374 28.0633 36.211 28.2232 36.368C28.3574 36.4971 28.4997 36.6168 28.649 36.7265C28.8021 36.8313 28.9618 36.925 29.1272 37.007C29.595 37.2318 30.1066 37.3399 30.6214 37.3227C30.584 37.0148 30.5429 36.707 30.4981 36.4031C30.373 36.4024 30.2482 36.3919 30.1246 36.3719C29.479 36.2487 28.9066 35.8633 28.5332 35.3003L28.4996 35.2457L28.4585 35.1834L28.3838 35.0704C28.3614 35.0275 28.3427 34.9886 28.324 34.9457C28.1972 34.6688 28.1188 34.3706 28.0924 34.065C28.07 33.8722 28.07 33.6773 28.0924 33.4844V33.3597C28.0971 33.3148 28.1059 33.2705 28.1186 33.2273V33.1454C28.1927 32.8676 28.31 32.6043 28.466 32.3661C28.5033 32.3076 28.5444 32.2531 28.5855 32.1985C28.6107 32.1671 28.6375 32.1373 28.6649 32.107L28.686 32.0836L28.705 32.0621C28.7243 32.046 28.7418 32.0277 28.7573 32.0076L28.8433 31.9258L28.903 31.8712L29.03 31.7699C29.1198 31.7042 29.2134 31.6444 29.3102 31.5906C29.2168 31.2945 29.116 31.0061 29.0151 30.7178C28.8397 30.803 28.6722 30.9048 28.5145 31.0217L28.4772 31.0685ZM21.8095 35.164L21.7871 34.6808L21.7722 34.2327C21.732 32.9101 21.9879 31.596 22.5193 30.3945V30.3789C22.6725 29.9736 22.8406 29.5138 23.0199 28.9566C23.6833 26.8557 23.6899 24.5893 23.0386 22.4842C23.4121 22.7726 23.7857 23.0726 24.1592 23.3804C24.5584 25.3446 24.4527 27.3839 23.8529 29.2917C23.6661 29.8684 23.4943 30.3399 23.3374 30.753V30.7842C22.8568 31.8629 22.624 33.0437 22.6575 34.2327V34.6224V34.7588L22.6986 35.0432C22.9876 37.0688 23.9895 38.9094 25.5089 40.2062C27.0283 41.503 28.9563 42.1629 30.9169 42.0573V42.9769C28.7437 43.0803 26.6111 42.3383 24.9326 40.8948C23.254 39.4513 22.1491 37.4091 21.832 35.164H21.8095ZM25.0895 24.2057C25.3021 25.9903 25.1311 27.802 24.5889 29.5091C24.3984 30.1209 24.2154 30.608 24.051 31.0405C23.599 32.2524 23.3524 32.9226 23.4496 34.5163V34.5436C23.6207 36.4524 24.495 38.2176 25.8884 39.4676C27.2819 40.7177 29.0859 41.3551 30.9207 41.2459C30.9207 41.0134 30.908 40.7809 30.8953 40.55L30.8953 40.55C30.8911 40.4752 30.887 40.4006 30.8834 40.3263C29.2761 40.4234 27.6955 39.8659 26.4746 38.7711C25.2537 37.6764 24.4879 36.13 24.3386 34.4579C24.249 33.0673 24.4468 32.5372 24.8798 31.3769L24.8798 31.3769L24.8798 31.3769L24.8803 31.3756C24.9083 31.3024 24.9373 31.2274 24.967 31.1504L24.9673 31.1498C25.1163 30.7644 25.2844 30.3299 25.4369 29.8169C25.9023 28.3359 26.111 26.7802 26.0533 25.2227C25.7544 24.8837 25.4294 24.5486 25.0895 24.2057ZM18.5908 33.149C17.4441 33.9867 16.1074 34.4971 14.7132 34.6298C14.2874 34.6804 13.813 34.774 13.2638 34.9103C11.3033 35.3377 9.51035 36.3679 8.11618 37.8679C7.96676 37.5913 7.82481 37.3068 7.68659 37.0184C9.17434 35.4939 11.0505 34.4471 13.092 34.0024C13.6473 33.8828 14.1166 33.8063 14.5331 33.7383L14.5862 33.7296C15.8505 33.6128 17.0635 33.1534 18.1052 32.397C19.8109 31.1354 20.9676 29.22 21.3219 27.0704C21.6762 24.9208 21.1992 22.7124 19.9954 20.929C19.8936 20.7715 19.7803 20.626 19.6681 20.482L19.6218 20.4225C20.1933 20.7069 20.7387 21.007 21.2655 21.3187C22.2852 23.2881 22.5785 25.5789 22.0898 27.7585C21.6012 29.938 20.3645 31.8556 18.6132 33.149H18.5908ZM6.01608 32.2604C6.28131 32.0499 6.55401 31.8473 6.83044 31.6603L7.57756 31.142L7.05831 30.3627C5.8714 28.5783 5.40729 26.3776 5.7668 24.2384C6.12631 22.0992 7.2804 20.1944 8.9784 18.9376C9.79332 18.3368 10.7116 17.9055 11.683 17.6673C11.1077 17.5374 10.5249 17.4205 9.93472 17.3166C9.42009 17.5546 8.92954 17.8457 8.47036 18.1855C6.71992 19.4728 5.48468 21.3868 5 23.5629C5.00105 25.4051 5.12588 27.245 5.37356 29.069C5.61859 29.7116 5.93451 30.3223 6.31493 30.8887C6.2311 30.9464 6.14727 31.0073 6.06445 31.0674L6.0644 31.0674L6.06405 31.0677L6.06396 31.0678C5.96242 31.1415 5.86241 31.2141 5.7658 31.2784C5.82637 31.5101 5.88353 31.7364 5.93843 31.9538C5.96479 32.0582 5.99063 32.1605 6.01608 32.2604ZM7.78701 17.1645C6.71492 17.9537 5.80438 18.9578 5.1086 20.1182C5.15343 19.5337 5.20199 18.9453 5.25429 18.3569C5.69479 17.8112 6.18384 17.3101 6.7149 16.8606C7.14823 16.9073 7.57782 16.9541 8.00741 17.0126L7.78701 17.1645ZM20.5735 46.067L19.5687 45.202L19.154 46.484C19.1457 46.5119 19.1357 46.5392 19.1241 46.5658C19.4006 46.671 19.677 46.7723 19.9572 46.8698L19.9908 46.7801C20.0342 46.8182 20.0789 46.8534 20.1234 46.8884C20.1517 46.9106 20.1798 46.9328 20.2075 46.9555C20.7827 47.1542 21.3692 47.3452 21.9669 47.5049L22.0603 47.2672L21.4962 46.8386C21.1899 46.5931 20.8761 46.3359 20.5735 46.067ZM18.425 44.1306C18.6247 44.8291 18.6108 45.5752 18.3852 46.265L18.2418 46.2033C18.0288 46.1119 17.8185 46.0215 17.6231 45.926C17.7904 45.4038 17.7956 44.8398 17.638 44.3143C17.4804 43.7888 17.168 43.3285 16.7452 42.9988C16.3224 42.6691 15.8108 42.4869 15.283 42.4779C14.7552 42.469 14.2382 42.6338 13.8053 42.9489C13.5962 43.1016 13.412 43.2884 13.2599 43.5023C13.0246 43.3386 12.7967 43.1711 12.5726 42.9996C12.647 42.8939 12.7269 42.7925 12.8117 42.6957L12.8677 42.6333L12.92 42.5827C12.9609 42.5357 13.0045 42.4914 13.0507 42.4502C13.1143 42.3917 13.1815 42.3372 13.2487 42.2826L13.3048 42.2397L13.3757 42.1891C13.9623 41.7929 14.6526 41.5972 15.3507 41.6292C16.0488 41.6611 16.72 41.9192 17.2709 42.3675C17.8219 42.8158 18.2253 43.4321 18.425 44.1306ZM30.6035 48.1362C28.4923 48.1379 26.4086 47.6368 24.5111 46.6711C22.6137 45.7055 20.9526 44.3007 19.6545 42.5639C19.5574 42.3847 19.4602 42.2171 19.3556 42.0613C18.9017 41.3868 18.3014 40.8338 17.6036 40.4473C16.9058 40.0609 16.1304 39.8519 15.3405 39.8375C14.5506 39.823 13.7686 40.0035 13.0583 40.3643C12.348 40.725 11.7295 41.2557 11.2531 41.9132C11.3984 42.049 11.5487 42.1779 11.7018 42.3091L11.7019 42.3092C11.7771 42.3737 11.853 42.4387 11.9293 42.5055C12.1887 42.1375 12.5042 41.8163 12.8632 41.5547C13.7611 40.8963 14.8725 40.6357 15.9541 40.83C17.0357 41.0242 17.9996 41.6575 18.6347 42.5912C18.7247 42.725 18.807 42.8642 18.8812 43.0082L18.9148 43.0705L18.9559 43.125C20.9852 45.8297 23.8225 47.7498 27.0173 48.5804C28.1567 48.7558 29.3147 48.8883 30.4989 48.9701C30.534 48.7252 30.5657 48.4562 30.5973 48.189L30.6035 48.1362ZM25.9648 31.6371C26.0435 31.4592 26.1321 31.2861 26.23 31.1189C26.7712 29.7421 27.1014 28.2851 27.2087 26.8013C27.4795 27.2118 27.7289 27.6371 27.9559 28.0755C27.7839 29.2397 27.4817 30.3788 27.0556 31.4696L27.0294 31.5358L26.9958 31.5981C26.915 31.7355 26.8415 31.8773 26.7754 32.0229C26.4824 32.6945 26.3592 33.4333 26.4178 34.1688C26.4764 34.9042 26.7146 35.6117 27.1099 36.2237C27.5052 36.8357 28.0442 37.3318 28.6756 37.6647C29.307 37.9976 30.0096 38.1561 30.7165 38.1251C30.7463 38.4329 30.7725 38.7369 30.7986 39.0486C29.9803 39.0985 29.1629 38.9365 28.4191 38.5771C27.2125 37.995 26.2766 36.9374 25.8165 35.6364C25.3564 34.3354 25.4097 32.8972 25.9648 31.6371ZM28.7474 29.8022L28.5345 29.3191L28.4374 29.8646L28.7474 29.8022ZM20.1217 41.2064C19.3791 40.242 19.0377 39.7985 17.8383 39.1808C16.5765 38.5931 15.1633 38.459 13.8206 38.7996C12.4779 39.1403 11.2816 39.9363 10.4194 41.0629C10.1968 40.8458 10.0169 40.625 9.83102 40.3969L9.831 40.3969L9.818 40.3809C10.8129 39.1225 12.1784 38.2421 13.7024 37.8764C15.2263 37.5106 16.8234 37.6802 18.2455 38.3586C19.2858 38.8675 20.1779 39.6555 20.8305 40.642L20.8807 40.707C21.1483 41.0532 21.4489 41.4422 21.8354 41.8967C22.9598 43.2096 24.3433 44.253 25.8909 44.9552C27.4385 45.6575 29.1135 46.0019 30.8008 45.9649C30.7829 46.2602 30.7581 46.5519 30.733 46.8469L30.7298 46.8845C28.9275 46.9117 27.1407 46.5347 25.4901 45.779C23.8396 45.0234 22.3639 43.9067 21.163 42.5046C20.7371 41.9942 20.4159 41.6045 20.1282 41.2148L20.1217 41.2064ZM12.3857 37.4078C14.2767 36.6282 16.3844 36.6478 18.2618 37.4623L18.4673 37.548L18.5308 37.5831H18.5495L18.613 37.6104L18.867 37.7546C19.8813 38.3147 20.7552 39.1155 21.4184 40.0926C21.4685 40.1577 21.5199 40.2253 21.5728 40.2948L21.5728 40.2949C21.8079 40.6039 22.0739 40.9536 22.3971 41.3161C23.4547 42.5516 24.7581 43.5313 26.2163 44.1869C27.6745 44.8424 29.2523 45.158 30.8395 45.1115C30.8595 44.8024 30.8744 44.4945 30.8844 44.188C29.4117 44.2444 27.9452 43.9614 26.5893 43.3593C25.2334 42.7572 24.0214 41.8507 23.0396 40.7044C22.7857 40.3997 22.5628 40.1221 22.3617 39.8715L22.3615 39.8714L22.3606 39.8702L22.3586 39.8677L22.3573 39.8661C22.2641 39.75 22.1756 39.6398 22.0908 39.5354C21.3542 38.4608 20.3888 37.5792 19.2704 36.9596V36.9363L18.8969 36.757L18.5831 36.6284C16.9102 35.9161 15.0677 35.7584 13.3059 36.1767C11.5441 36.595 9.94856 37.5691 8.73606 38.9664C8.90789 39.2275 9.08347 39.4847 9.26651 39.7458C10.1045 38.7089 11.1763 37.9054 12.3857 37.4078ZM16.7043 24.4825C16.7342 24.5409 16.7544 24.6042 16.7641 24.6696C16.789 24.7823 16.8052 24.897 16.8126 25.0125C16.8425 25.1268 16.8575 25.2398 16.8575 25.3515V25.6983V26.0373C16.8436 26.112 16.8336 26.1875 16.8276 26.2633C16.7947 26.4485 16.7485 26.6309 16.6894 26.8089C16.6671 26.8818 16.6409 26.9533 16.6109 27.0232L16.5661 27.1245L16.5213 27.2258L16.469 27.3271L16.4167 27.4245L16.3606 27.5219C16.2458 27.7131 16.1132 27.8919 15.9647 28.0558L15.8862 28.1376C15.8367 28.1925 15.7843 28.2445 15.7293 28.2935L15.7032 28.3169L15.6359 28.3753L15.5463 28.4494L15.4641 28.5117L15.3408 28.5974L15.2698 28.6442L15.1951 28.6871C14.6263 29.0191 13.9779 29.1733 13.3273 29.1313H13.1854C12.9401 29.1041 12.6983 29.0493 12.4644 28.9676L12.2104 28.8663C12.0983 28.8118 11.99 28.7572 11.8817 28.6949L11.8032 28.6442C11.7769 28.6296 11.7519 28.6127 11.7285 28.5935L11.6501 28.5429C11.6015 28.5078 11.5492 28.4688 11.5044 28.4299L11.4558 28.3948L11.3998 28.3442L11.3176 28.2701L11.2391 28.1961C11.166 28.1269 11.0973 28.0527 11.0337 27.974L10.9702 27.8999L10.9328 27.8493C10.8973 27.8065 10.8657 27.7616 10.8338 27.7162L10.8336 27.7159L10.8334 27.7156L10.8332 27.7153C10.8217 27.699 10.8101 27.6825 10.7983 27.6661C10.4648 27.1651 10.2615 26.5824 10.2081 25.975C10.185 25.6982 10.1938 25.4196 10.2343 25.145C10.2481 25.0821 10.2581 25.0183 10.2641 24.954C10.3133 24.6846 10.3949 24.4228 10.507 24.1747C10.5368 24.1046 10.5705 24.0344 10.6041 23.9682C10.6751 23.8357 10.7684 23.672 10.8357 23.5785C10.9029 23.485 10.9702 23.3954 11.0411 23.3096C11.1121 23.2278 11.1906 23.146 11.269 23.068C11.2946 23.0401 11.3221 23.014 11.3512 22.9901L11.5305 22.8537L11.6202 22.7875C11.9167 22.565 12.2478 22.3975 12.5989 22.2926C12.6711 22.2692 12.7421 22.2497 12.8118 22.2341C12.9543 22.1991 13.0992 22.1756 13.2452 22.164C13.3931 22.1523 13.5417 22.1523 13.6897 22.164C13.909 22.1729 14.1268 22.2056 14.3397 22.2614C15.123 22.4652 15.8098 22.9562 16.2747 23.6447C16.4235 23.8552 16.5489 24.0827 16.6483 24.3228L16.7043 24.4825ZM16.017 25.8581C16.0207 25.7958 16.0207 25.7333 16.017 25.671L15.9983 25.636V25.4645C15.9605 25.0141 15.8083 24.5824 15.5575 24.2137C15.3077 23.844 14.9692 23.5493 14.5758 23.3592C14.1824 23.1691 13.748 23.0901 13.3161 23.1304C12.8855 23.1699 12.4729 23.3287 12.1207 23.5902C11.7672 23.8506 11.4861 24.2043 11.3064 24.615C11.2493 24.7404 11.2031 24.8708 11.1682 25.0047L11.1457 25.0826C11.0852 25.3545 11.0651 25.6344 11.086 25.9126C11.1192 26.3857 11.274 26.8407 11.5342 27.2297L11.5716 27.2765L11.6276 27.3232L11.6949 27.4089L11.7173 27.4362L11.792 27.5219L11.8144 27.5453L11.8966 27.6272H11.9153C12.0378 27.743 12.1718 27.8449 12.315 27.9311H12.3486L12.4383 27.9818H12.4719L12.5167 28.0168L12.5615 28.0363H12.5802C13.1015 28.2589 13.6801 28.2891 14.2201 28.122C14.3918 28.0752 14.5583 28.0099 14.717 27.9272L14.788 27.8882L14.8776 27.8337L15.0084 27.748H15.0345C15.3436 27.5181 15.599 27.2184 15.7816 26.8712L15.8526 26.7231C15.8619 26.6978 15.8722 26.6735 15.8825 26.6491C15.8928 26.6247 15.903 26.6004 15.9124 26.5751C15.9371 26.532 15.9536 26.4844 15.9609 26.4348V26.4036L15.9945 26.2711V26.2282L16.017 26.1075V25.8581ZM56.2866 4.74978L56.1783 4.18086C55.8944 4.30945 55.6142 4.43804 55.3378 4.57053L56.2866 4.74978ZM75.1455 19.2734C75.7805 18.7434 76.4978 18.1394 77.3383 17.3601C79.6369 15.2192 81.4636 12.5843 82.6927 9.63661C83.9218 6.68895 84.5241 3.49852 84.4583 0.284822L86.0609 0.409516C86.1105 3.83865 85.4531 7.23886 84.1332 10.3799C82.8132 13.5209 80.8616 16.3293 78.4104 18.6148C77.5549 19.4137 76.819 20.041 76.169 20.5827L76.1187 20.6251C74.4648 22.0181 73.6852 22.6747 72.6127 24.9392C71.5661 27.3446 71.3189 30.0456 71.9103 32.6142C72.5017 35.1827 73.8979 37.472 75.8777 39.1192C75.4867 39.5323 75.087 39.9219 74.6785 40.2882C72.4832 38.3885 70.9483 35.7879 70.311 32.8877C69.6737 29.9875 69.9692 26.9491 71.1521 24.2417V24.1949C72.3919 21.5773 73.3703 20.7586 75.1435 19.275L75.1455 19.2734ZM70.1079 4.1028C69.2672 5.99976 67.7391 7.47111 65.8592 8.19369C63.9793 8.91627 61.9013 8.831 60.0816 7.95662C59.8257 7.83158 59.5763 7.6924 59.3345 7.53967L59.2299 7.47343L59.1141 7.42277C57.2098 6.61227 55.2215 6.03559 53.1895 5.70433C52.4125 6.14856 51.6653 6.61876 50.9481 7.11493C53.5409 7.31292 56.0874 7.93626 58.494 8.96196C58.7869 9.14559 59.0886 9.31337 59.398 9.46464C61.6055 10.5257 64.1266 10.6292 66.4073 9.75239C68.6879 8.8756 70.5416 7.09026 71.5611 4.78861C72.184 3.37426 72.4662 1.82252 72.3829 0.268456C71.845 0.315216 71.3108 0.365873 70.7803 0.424324C70.8421 1.68898 70.6115 2.95059 70.1079 4.1028ZM50.8562 21.4484C47.8947 20.9198 44.8531 21.6353 42.3957 23.4385L42.4032 23.4229L42.1193 23.6334C39.7185 25.4966 38.12 28.2733 37.6716 31.3595C37.2232 34.4457 37.961 37.5917 39.7246 40.1134C41.4882 42.6351 44.1349 44.3285 47.0892 44.8253C50.0434 45.322 53.0662 44.582 55.5001 42.7661C55.6159 42.6804 55.7318 42.5946 55.8476 42.5011C55.5338 41.7763 55.2461 41.0321 54.9884 40.28C54.7418 40.506 54.4841 40.7164 54.2188 40.9152C52.5321 42.1522 50.4948 42.7599 48.4361 42.6401C46.3774 42.5204 44.4175 41.6801 42.8731 40.2552C41.3287 38.8302 40.2898 36.9037 39.9245 34.787C39.5591 32.6702 39.8885 30.4868 40.8595 28.5894C41.8305 26.692 43.3863 25.1914 45.2757 24.3302C47.165 23.4689 49.2776 23.2972 51.272 23.8428C53.2665 24.3884 55.0263 25.6195 56.2673 27.3371C57.5083 29.0547 58.158 31.1586 58.1113 33.3088C58.7505 38.1525 60.673 42.7138 63.6624 46.4796C63.132 46.6667 62.5716 46.8459 62.0113 47.0135C59.0631 43.1088 57.1663 38.4548 56.5162 33.5309V33.2777C56.52 32.9698 56.5088 32.6737 56.4863 32.3892C56.3351 30.6609 55.6417 29.0329 54.5135 27.7575C53.3852 26.482 51.8852 25.6304 50.2458 25.3345C48.6064 25.0386 46.9193 25.3151 45.4458 26.121C43.9724 26.9268 42.7949 28.2172 42.0958 29.792C41.3967 31.3668 41.2151 33.1382 41.5792 34.8316C41.9432 36.525 42.8325 38.0459 44.1093 39.1586C45.3861 40.2713 46.979 40.9136 48.6413 40.986C50.3036 41.0584 51.9423 40.5569 53.3036 39.5591C53.523 39.3971 53.7337 39.2228 53.9349 39.037L55.7131 37.4081L56.5125 39.7462C56.7553 40.4554 57.028 41.1646 57.3269 41.8504L57.8498 43.0622L56.8337 43.8689C56.703 43.9741 56.5685 44.0754 56.4378 44.1728C54.4293 45.6552 52.0575 46.5102 49.6001 46.6376C47.1427 46.765 44.7013 46.1595 42.5618 44.8922C40.4223 43.6248 38.6731 41.7479 37.519 39.4812C36.3649 37.2145 35.8537 34.6518 36.0452 32.0931C36.613 29.9616 37.2593 27.8846 37.9802 25.9363C39.1119 24.0535 40.6713 22.4909 42.5204 21.3871C44.3694 20.2833 46.4509 19.6723 48.5804 19.6083C50.7099 19.5444 52.8217 20.0294 54.7286 21.0203C56.6355 22.0113 58.2785 23.4777 59.5122 25.2895L59.5421 25.3284C61.0876 27.7505 61.2789 29.0519 61.6221 31.387L61.6228 31.3917C61.7423 32.2256 61.888 33.1569 62.1159 34.3259C62.9114 38.3163 64.7454 42.001 67.4167 44.9755C66.9012 45.2132 66.3744 45.4392 65.8365 45.6613C63.1808 42.5411 61.3546 38.7499 60.5395 34.6649C60.3152 33.5289 60.1758 32.5909 60.0533 31.7668L60.0533 31.7667L60.0532 31.7666L60.0352 31.645L60.0224 31.5606C59.6914 29.3744 59.5362 28.3489 58.201 26.2597C56.4582 23.7068 53.8177 21.977 50.8562 21.4484ZM78.5085 21.4902C78.2055 21.6618 77.9124 21.8518 77.6306 22.0591C75.6454 23.5226 74.2987 25.7488 73.8868 28.248C73.4749 30.7472 74.0314 33.3147 75.4341 35.3858C75.9717 36.1834 76.6244 36.8893 77.3692 37.4783C77.7203 37.0614 78.0677 36.6288 78.4039 36.1846C77.4437 35.4439 76.666 34.4757 76.135 33.3598C75.604 32.244 75.3349 31.0124 75.3498 29.7668C75.3648 28.5211 75.6634 27.297 76.221 26.1954C76.7787 25.0937 77.5794 24.1461 78.5571 23.4308C78.7891 23.2581 79.0311 23.1007 79.2818 22.9593L79.3901 22.8969L79.491 22.8151C84.2148 18.9833 87.5787 13.6177 89.0503 7.56734C89.3641 5.3735 89.6032 3.12901 89.7638 0.849445L88.2696 0.650714C88.2708 4.67025 87.3921 8.63701 85.7005 12.2485C84.0089 15.86 81.549 19.0209 78.5085 21.4902ZM84.6399 19.7365C85.1032 19.1637 85.5514 18.5636 85.9735 17.9557L86.7207 16.8646L87.1391 17.0478C86.8365 18.1934 86.5152 19.3196 86.1715 20.4184L85.8689 20.8081L86.0258 20.8704C85.9033 21.2875 85.7579 21.7021 85.6147 22.1107C85.5746 22.2251 85.5346 22.3391 85.4954 22.4525L85.3534 22.3979L83.1121 21.6186L84.6399 19.7365ZM55.644 12.0799C56.7123 12.4696 57.5641 12.7969 58.3261 13.1048C60.4442 13.9659 61.6097 14.4374 64.4002 14.2504H64.4487C66.697 14.0323 68.8509 13.2018 70.6946 11.8422C72.4862 10.5203 73.9279 8.74687 74.8854 6.68719C75.843 4.62751 76.2852 2.34854 76.171 0.0625467C75.7567 0.0625467 75.3447 0.0856607 74.9331 0.108746C74.8103 0.115635 74.6875 0.122522 74.5647 0.12879C74.6696 2.13681 74.2846 4.13979 73.4458 5.95045C72.607 7.7611 71.3417 9.32031 69.7682 10.4823C68.1515 11.6702 66.2647 12.3957 64.2956 12.5865C61.8642 12.754 60.934 12.3762 58.9102 11.5544L58.9089 11.5539C58.1356 11.2382 57.2577 10.8836 56.1483 10.4979C53.5845 9.62009 50.8917 9.22428 48.1952 9.32887C47.5682 9.90594 46.9697 10.5159 46.4021 11.1564C49.5103 10.7475 52.6667 11.0629 55.644 12.0799ZM64.6342 30.9044C64.75 31.7032 64.8844 32.6073 65.0974 33.6866C65.8439 37.4246 67.6489 40.8427 70.2786 43.4985C69.7805 43.7843 69.2825 44.057 68.7844 44.3168C66.1238 41.4826 64.2973 37.9127 63.5209 34.0296C63.3005 32.9112 63.1623 31.9838 63.0428 31.1655C62.7029 28.8586 62.4563 27.1987 60.7155 24.471L60.6968 24.4437C58.4924 21.1958 55.1436 18.9918 51.3842 18.3147C47.6248 17.6377 43.7614 18.5427 40.6405 20.8315C40.3379 21.0536 40.0502 21.2874 39.7663 21.5329C40.2619 20.4522 40.7824 19.4131 41.3278 18.4155C44.7741 16.4783 48.781 15.9241 52.5923 16.8573C56.4035 17.7905 59.7555 20.1467 62.0155 23.4812L62.0454 23.5241C63.9576 26.5008 64.2497 28.402 64.6125 30.7638L64.6342 30.9044ZM33.3898 48.1665C33.3898 48.2873 33.3898 48.4081 33.3599 48.5289L33.7634 48.5835C33.6252 48.4471 33.4981 48.3185 33.3898 48.1665ZM33.9326 43.816L33.9327 43.8161C33.9829 43.8962 34.0332 43.9764 34.0873 44.0554C35.4671 46.0971 37.2234 47.8312 39.2536 49.1562C38.23 49.0822 37.2028 48.9925 36.1717 48.8795C35.2172 48.0424 34.3416 47.1121 33.5568 46.1012C33.6353 45.2751 33.7212 44.4568 33.822 43.6424C33.8598 43.6998 33.8962 43.7578 33.9326 43.816ZM59.4394 45.8762L58.5279 44.4461L57.1682 45.4319C55.2493 46.8312 53.0318 47.7204 50.7085 48.0221C48.3852 48.3239 46.0264 48.0291 43.8371 47.1634C41.6479 46.2977 39.6945 44.8873 38.1468 43.0549C36.5991 41.2224 35.5038 39.0233 34.9564 36.6488C34.7322 37.7373 34.5293 38.84 34.3475 39.9571C34.7688 40.9338 35.2778 41.8667 35.8679 42.7432C38.1197 46.0785 41.4667 48.4357 45.2741 49.3676C48.5001 49.34 51.7204 49.0796 54.9119 48.5883C56.0318 48.1167 57.098 47.5168 58.0909 46.7997C58.315 47.153 58.5466 47.5037 58.7857 47.8518C59.361 47.7193 59.9288 47.5829 60.4891 47.4348C60.123 46.9361 59.7682 46.4178 59.4394 45.8762ZM54.1354 29.728C54.157 29.763 54.1794 29.7994 54.1972 29.8333C54.2251 29.8832 54.2577 29.9302 54.2943 29.9736C54.8747 31.0531 55.1445 32.2842 55.0713 33.5196C55.0685 33.5532 55.0641 33.5868 55.0598 33.6204C55.0525 33.6764 55.0452 33.7324 55.0452 33.7885C54.9965 34.2551 54.9001 34.7149 54.7575 35.1601C54.7085 35.3173 54.6726 35.4093 54.5942 35.61L54.5782 35.6511C54.4922 35.8644 54.3923 36.0714 54.2794 36.2706C54.2532 36.3213 54.2271 36.372 54.1972 36.4226L54.1075 36.5668L54.0142 36.7149C53.9544 36.8084 53.8871 36.9019 53.8199 36.9954L53.7527 37.0812C53.7448 37.0917 53.737 37.1026 53.729 37.1136L53.7289 37.1137C53.7104 37.1394 53.6913 37.1658 53.6705 37.1903L53.5435 37.3461L53.409 37.4981C53.2907 37.6344 53.1661 37.7644 53.0354 37.8878C52.9943 37.9267 52.9532 37.9657 52.9084 38.0008L52.8225 38.0787L52.8224 38.0788C52.7179 38.1645 52.6133 38.2502 52.5012 38.3281C51.2232 39.2746 49.6426 39.6658 48.0932 39.4192C47.9812 39.4036 47.8691 39.3841 47.7608 39.3607C47.2981 39.2624 46.848 39.1081 46.4197 38.9009C46.2815 38.8425 46.1619 38.7801 46.0461 38.7139C45.8142 38.5805 45.5897 38.4335 45.3737 38.2735C45.2131 38.1488 45.0562 38.0203 44.9068 37.8839C44.7574 37.7436 44.6154 37.5994 44.4809 37.4474C44.4688 37.4337 44.4597 37.4237 44.4511 37.4143L44.451 37.4143C44.428 37.389 44.409 37.3682 44.3464 37.2916C44.2605 37.1864 44.1373 37.0228 44.0962 36.9682L44.0962 36.9682L44.0961 36.9681L44.0961 36.968C44.055 36.9135 44.0139 36.859 43.9766 36.8006C43.5924 36.2323 43.3008 35.6016 43.1137 34.9341C43.073 34.8063 43.0393 34.6762 43.0128 34.5444C42.9539 34.2721 42.9114 33.9962 42.8858 33.7183C42.8609 33.4372 42.8547 33.1547 42.8671 32.8727C42.8856 32.4551 42.9419 32.0402 43.0352 31.6336C43.3869 30.1299 44.248 28.8096 45.4596 27.9161C45.8285 27.643 46.2257 27.4142 46.6438 27.2342L46.924 27.1251C47.0176 27.0868 47.1171 27.0547 47.2146 27.0232L47.249 27.0121C47.4545 26.9537 47.6338 26.903 47.828 26.864C48.0241 26.8149 48.2242 26.7849 48.4257 26.7744C48.6269 26.755 48.8289 26.7472 49.0309 26.751C49.2318 26.751 49.4326 26.7627 49.6323 26.7861C49.7494 26.8017 49.8739 26.8212 50.0059 26.8446C50.3321 26.9045 50.6532 26.9918 50.9659 27.1056C51.0967 27.1524 51.2199 27.1992 51.3395 27.2537L51.5225 27.3355L51.7018 27.4252L51.8774 27.5226L52.0492 27.6239L52.2173 27.7291C52.5523 27.9475 52.8652 28.2008 53.1512 28.4851C53.2023 28.5303 53.2509 28.5784 53.2969 28.6292C53.3903 28.7267 53.48 28.8241 53.5659 28.9293L53.6107 28.9799L53.7116 29.1124C53.7564 29.167 53.7975 29.2215 53.8386 29.28L53.9506 29.4359L53.9706 29.4663L53.9707 29.4663C54.0133 29.5311 54.0576 29.5984 54.0963 29.6658L54.1187 29.7008L54.1354 29.728ZM53.0765 34.9964C53.0728 34.9837 53.0728 34.9702 53.0765 34.9575L53.0877 34.9458C53.4957 33.9718 53.5735 32.8819 53.3081 31.8557C53.226 31.5295 53.1108 31.2134 52.9644 30.9127L52.8972 30.7763L52.8871 30.7565L52.8871 30.7564C52.8633 30.7097 52.8466 30.6769 52.8038 30.6049C52.7553 30.523 52.7067 30.4412 52.6544 30.3594L52.6245 30.3087C52.2216 29.7234 51.6967 29.2411 51.0892 28.8981L51.0891 28.8981C51.0032 28.8513 50.9173 28.8046 50.8277 28.7617L50.5737 28.6487H50.5587C50.4773 28.6131 50.3937 28.5831 50.3084 28.5591H50.2599L50.0283 28.4929H49.9498L49.7406 28.45H49.6323L49.453 28.4227H48.5527C47.7633 28.4971 47.0067 28.7871 46.3588 29.2634C45.711 29.7398 45.1949 30.3857 44.8624 31.1362C44.53 31.8867 44.3928 32.7154 44.4649 33.5387C44.5369 34.3621 44.8156 35.1511 45.2729 35.8264C45.7281 36.5005 46.3452 37.038 47.0622 37.3851C47.2882 37.4953 47.5232 37.584 47.7645 37.6501C47.8107 37.6672 47.8582 37.6802 47.9065 37.689C48.5257 37.8439 49.1695 37.8594 49.795 37.7344C50.4204 37.6094 51.0132 37.3469 51.5337 36.9643H51.5524L51.6383 36.898L51.7466 36.8084L51.8961 36.6798L51.9446 36.6369C51.9565 36.6255 51.9685 36.6141 51.9806 36.6027C52.0182 36.5672 52.0564 36.5311 52.0903 36.4928L52.1314 36.4538L52.1315 36.4537C52.18 36.4031 52.2286 36.3525 52.2734 36.2979L52.3032 36.2629C52.5049 36.0216 52.6838 35.7606 52.8374 35.4835L52.8711 35.4251L52.9607 35.2458L52.9906 35.1874L53.0392 35.0822C53.0577 35.0569 53.0704 35.0276 53.0765 34.9964ZM79.4242 24.7051C78.1285 25.6643 77.2398 27.1102 76.9452 28.7388C76.6505 30.3674 76.9727 32.0517 77.8441 33.4376L77.9337 33.574V33.5973L78.0122 33.7064C78.1056 33.8428 78.2027 33.9714 78.3073 34.0961C78.4119 34.2208 78.453 34.2676 78.5314 34.3494L78.6211 34.4429L78.7332 34.552C78.9005 34.7156 79.0777 34.8679 79.2636 35.0079C79.5625 34.5832 79.8538 34.1468 80.1415 33.6987C79.2837 33.011 78.6875 32.0284 78.4587 30.9255C78.2299 29.8226 78.3835 28.6707 78.892 27.6747C79.4006 26.6787 80.2312 25.9031 81.2362 25.4857C82.2413 25.0682 83.3557 25.036 84.3814 25.3948C84.4748 25.165 84.5632 24.9335 84.6521 24.7007L84.6523 24.7001C84.7518 24.4396 84.8519 24.1774 84.9604 23.9141C84.0438 23.5773 83.0634 23.4734 82.1006 23.6109C81.1378 23.7485 80.2203 24.1236 79.4242 24.7051ZM67.3347 2.75839C67.5007 2.38693 67.6176 1.99367 67.6821 1.58938C67.7198 1.34194 67.7385 1.09176 67.7381 0.841217C68.2686 0.755489 68.8028 0.677556 69.3444 0.603519C69.3942 1.94681 69.0302 3.27142 68.3059 4.3833C68.1182 4.66743 67.9109 4.93701 67.6858 5.18992C67.41 5.49336 67.1059 5.76747 66.7781 6.00822L66.737 6.0394L66.6025 6.13292L66.4867 6.21475L66.3448 6.30047L66.2327 6.36672C66.1879 6.394 66.143 6.42127 66.0945 6.44465L66.0048 6.49531C65.8666 6.56935 65.7246 6.63559 65.5827 6.69794L65.4221 6.76418C65.373 6.79216 65.3201 6.81189 65.2652 6.82263L65.1045 6.88108L64.7833 6.9785L64.4546 7.05643L64.2977 7.08761C64.015 7.14017 63.7291 7.17142 63.4422 7.18113H63.2816C62.7783 7.18269 62.2766 7.1212 61.7873 6.99798L61.5968 6.94732C60.9743 6.76568 60.3831 6.48296 59.8448 6.10954L59.7402 6.0394L59.5236 5.87574C59.3854 5.76273 59.2509 5.64973 59.1239 5.52893L59.0828 5.48996C59.0722 5.47994 59.0616 5.47017 59.0511 5.46047C59.0208 5.43244 58.991 5.4049 58.9632 5.37306L58.8997 5.30682L58.7316 5.13147L58.5635 4.92884L58.5411 4.90156L58.4141 4.7379L58.3805 4.69114C58.3286 4.62489 58.28 4.55596 58.2348 4.48462C58.0297 4.18506 57.8509 3.86685 57.7006 3.53383C57.9441 3.44854 58.1893 3.35496 58.4363 3.2607C58.6971 3.16116 58.96 3.06087 59.2247 2.96881C59.3177 3.15515 59.4225 3.3348 59.5385 3.50655L59.5796 3.5611L59.7589 3.8027L59.8523 3.92739L59.998 4.08716L60.0951 4.19237L60.3678 4.44565C60.445 4.51327 60.5273 4.57556 60.6083 4.63693C60.6253 4.64983 60.6423 4.6627 60.6592 4.67556H60.6816C61.091 4.97125 61.544 5.19502 62.0227 5.33799L62.1609 5.37696H62.187L62.4149 5.42762H62.4859H62.6353C62.9706 5.47756 63.3103 5.48671 63.6477 5.45489C64.1856 5.40671 64.7108 5.25754 65.1979 5.01457L65.4146 4.90156L65.4482 4.88208L65.6313 4.76908L65.7396 4.69504L65.8405 4.6249C66.4867 4.14999 67.0019 3.50634 67.3347 2.75839Z" fill="#FEFEFE"/>
</svg>
