<svg width="40" height="40" viewBox="0 0 40 40" fill="none" xmlns="http://www.w3.org/2000/svg">
<path fill-rule="evenodd" clip-rule="evenodd" d="M1 1H39V39H1V1ZM0 40V0H40V40H0ZM13.3341 12.6325C13.7972 9.70036 16.147 7.438 19.1524 7.03051C19.6137 6.96796 20.8126 7.00681 21.2809 7.09952C24.0782 7.65316 26.2052 9.82419 26.6526 12.5826C26.7542 13.2088 26.725 14.3833 26.5936 14.9604C26.1527 16.8957 24.8939 18.488 23.0829 19.4013C20.1497 20.8806 16.6195 20.098 14.6344 17.5285C14.0421 16.762 13.6889 16.0324 13.44 15.0621C13.2994 14.5139 13.2426 13.2115 13.3341 12.6325ZM23.1369 12.5703C22.8209 11.6066 22.0413 10.8437 21.0357 10.5141C20.5907 10.3683 19.8838 10.3086 19.4716 10.3819C18.1342 10.62 17.1338 11.5334 16.7972 12.8236C16.6692 13.3146 16.7144 14.1511 16.8962 14.6541C17.1739 15.422 17.754 16.06 18.5144 16.4335C20.1652 17.2446 22.1505 16.604 22.9396 15.0056C23.0692 14.743 23.2033 14.3848 23.2376 14.2096C23.3221 13.7782 23.2734 12.9869 23.1369 12.5703ZM12.0806 21.3332C12.2525 20.787 12.6652 20.3348 13.1556 20.1552C13.3816 20.0724 14.0487 20.1191 14.3275 20.2373C14.4564 20.2919 14.8197 20.4925 15.1348 20.6831C17.1446 21.8988 19.3952 22.3278 21.6616 21.9274C22.814 21.7238 23.8657 21.3098 25.0028 20.6121C25.3311 20.4106 25.7279 20.2095 25.8845 20.165C26.2846 20.0514 26.7399 20.0944 27.086 20.2783C27.8248 20.6708 28.2162 21.6905 27.8761 22.3367C27.7171 22.6387 27.3203 23.0306 26.7498 23.4491C25.7608 24.1746 24.7033 24.6504 23.3643 24.9726C22.901 25.0841 21.727 25.2837 21.5348 25.2837C21.4668 25.2837 21.4111 25.3104 21.4111 25.3431C21.4111 25.3758 22.5673 26.5372 23.9805 27.9239C26.3393 30.2385 26.7208 30.6065 26.7828 31.0221C26.7958 31.1097 26.7947 31.1994 26.7949 31.3098C26.7954 31.5921 26.7666 31.7244 26.656 31.9491C26.3302 32.6112 25.5432 33.0795 24.9087 32.9887C24.3716 32.912 24.3008 32.8549 22.1923 30.8026C21.0894 29.7291 20.1519 28.8464 20.1089 28.841C20.066 28.8357 19.9928 28.834 19.9463 28.8374C19.8998 28.8407 18.9623 29.7214 17.8629 30.7944C15.6264 32.9774 15.6114 32.9887 14.9786 32.9868C13.7611 32.983 12.874 31.6606 13.416 30.6574C13.5381 30.4314 14.1274 29.819 16.1114 27.8559C17.508 26.4741 18.6506 25.3331 18.6506 25.3202C18.6506 25.3073 18.4807 25.2811 18.273 25.2619C17.2725 25.1697 15.8362 24.8013 14.9054 24.3982C13.7058 23.8789 12.4598 22.9518 12.1654 22.3596C11.973 21.9727 11.9535 21.7367 12.0806 21.3332Z" fill="#FEFEFE"/>
</svg>
