<svg width="41" height="41" viewBox="0 0 41 41" fill="none" xmlns="http://www.w3.org/2000/svg">
<path fill-rule="evenodd" clip-rule="evenodd" d="M28.9501 0.123C31.1333 0.2255 32.6196 0.56785 33.9275 1.07625C35.2805 1.59695 36.4203 2.30215 37.5601 3.4399C38.6025 4.46469 39.4091 5.70431 39.9237 7.0725C40.4301 8.37835 40.7745 9.86665 40.877 12.0499C40.9734 14.2352 41 14.9302 41 20.5C41 26.0699 40.9795 26.7648 40.877 28.9501C40.7745 31.1333 40.4301 32.6196 39.9237 33.9275C39.4106 35.2964 38.6038 36.5364 37.5601 37.5601C36.535 38.6022 35.2955 39.4087 33.9275 39.9237C32.6216 40.4301 31.1333 40.7745 28.9501 40.877C26.7648 40.9734 26.0699 41 20.5 41C14.9302 41 14.2352 40.9795 12.0499 40.877C9.86665 40.7745 8.3804 40.4301 7.0725 39.9237C5.70377 39.4102 4.46393 38.6034 3.4399 37.5601C2.39728 36.5355 1.59066 35.2958 1.07625 33.9275C0.56785 32.6216 0.2255 31.1333 0.123 28.9501C0.0266499 26.7648 0 26.0699 0 20.5C0 14.9302 0.0204999 14.2352 0.123 12.0499C0.2255 9.8646 0.56785 8.3804 1.07625 7.0725C1.58923 5.70347 2.39605 4.46351 3.4399 3.4399C4.46423 2.39692 5.70398 1.59025 7.0725 1.07625C8.3804 0.56785 9.8646 0.2255 12.0499 0.123C14.2352 0.0266499 14.9302 0 20.5 0C26.0699 0 26.7648 0.0204999 28.9501 0.123ZM38.9914 7.43403C39.4537 8.62639 39.7798 10.0063 39.878 12.0954C39.9734 14.2583 40 14.9375 40 20.5C40 26.0663 39.9795 26.7422 39.8781 28.9032C39.78 30.9928 39.4539 32.3713 38.9912 33.5665L38.9911 33.5664L38.9874 33.5765C38.5255 34.8087 37.7993 35.9247 36.8599 36.8462L36.8535 36.8525L36.8472 36.8588C35.9239 37.7975 34.8074 38.5239 33.5751 38.9879L33.5751 38.9878L33.566 38.9914C32.3736 39.4537 30.9937 39.7798 28.9046 39.878C26.7417 39.9734 26.0625 40 20.5 40C14.9337 40 14.2578 39.9795 12.0968 39.8781C10.0072 39.78 8.62875 39.4539 7.43354 38.9912L7.43355 38.9911L7.42381 38.9875C6.19161 38.5251 5.07546 37.7989 4.15358 36.8596L4.14726 36.8532L4.14082 36.8469C3.20192 35.9242 2.47553 34.8078 2.01229 33.5756L2.01235 33.5756L2.00812 33.5647C1.54449 32.3739 1.22021 30.9947 1.12197 28.9046C1.0266 26.7417 1 26.0625 1 20.5C1 14.9337 1.02054 14.2578 1.1219 12.0968C1.22005 10.0043 1.54428 8.62857 2.00831 7.4348L2.00838 7.43483L2.01267 7.42338C2.47438 6.1912 3.20054 5.07518 4.14005 4.1539L4.14677 4.14731L4.15336 4.1406C5.07565 3.20152 6.1919 2.47519 7.4241 2.0124L7.42413 2.01246L7.4348 2.00831C8.6283 1.54438 10.0037 1.22019 12.0954 1.12197C14.2583 1.0266 14.9375 1 20.5 1C26.0663 1 26.7421 1.02054 28.9032 1.1219C30.9937 1.22005 32.3715 1.54431 33.5652 2.00831L33.5683 2.00952C34.7968 2.48231 35.8169 3.11274 36.8536 4.14766L36.859 4.15301C37.7979 5.07594 38.5243 6.19236 38.9878 7.42457L38.9877 7.42458L38.9914 7.43403ZM13.0022 13.0772C14.9244 11.1549 17.5315 10.075 20.25 10.075C22.9685 10.075 25.5756 11.1549 27.4978 13.0772C29.4201 14.9994 30.5 17.6065 30.5 20.325C30.5 23.0435 29.4201 25.6506 27.4978 27.5728C25.5756 29.4951 22.9685 30.575 20.25 30.575C17.5315 30.575 14.9244 29.4951 13.0022 27.5728C11.0799 25.6506 10 23.0435 10 20.325C10 17.6065 11.0799 14.9994 13.0022 13.0772ZM32.8245 7.75054C33.305 8.2311 33.575 8.88288 33.575 9.5625C33.575 10.2421 33.305 10.8939 32.8245 11.3745C32.3439 11.855 31.6921 12.125 31.0125 12.125C30.3329 12.125 29.6811 11.855 29.2005 11.3745C28.72 10.8939 28.45 10.2421 28.45 9.5625C28.45 8.88288 28.72 8.2311 29.2005 7.75054C29.6811 7.26998 30.3329 7 31.0125 7C31.6921 7 32.3439 7.26998 32.8245 7.75054ZM24.5987 15.9763C23.4454 14.8229 21.8811 14.175 20.25 14.175C18.6189 14.175 17.0546 14.8229 15.9013 15.9763C14.7479 17.1296 14.1 18.6939 14.1 20.325C14.1 21.9561 14.7479 23.5204 15.9013 24.6737C17.0546 25.8271 18.6189 26.475 20.25 26.475C21.8811 26.475 23.4454 25.8271 24.5987 24.6737C25.7521 23.5204 26.4 21.9561 26.4 20.325C26.4 18.6939 25.7521 17.1296 24.5987 15.9763Z" fill="#FEFEFE"/>
</svg>
