<svg width="40" height="40" viewBox="0 0 40 40" fill="none" xmlns="http://www.w3.org/2000/svg">
<path fill-rule="evenodd" clip-rule="evenodd" d="M1 1H39V39H1V1ZM0 40V0H40V40H0ZM30.6009 13C31.4268 13 31.6015 13.4298 31.4268 14.0158C31.08 15.6277 27.7476 20.3689 27.7464 20.3677C27.4582 20.8365 27.3409 21.0697 27.7464 21.5977C27.8897 21.7996 28.1942 22.101 28.5427 22.4459C28.9012 22.8008 29.3063 23.2017 29.6303 23.5877C30.8055 24.9224 31.6913 26.0503 31.9371 26.8254C32.1616 27.6043 31.7711 27.9987 30.9901 27.9987H28.2554C27.5236 27.9987 27.1545 27.584 26.357 26.6881C26.0192 26.3085 25.6045 25.8426 25.0528 25.2853C23.4297 23.7062 22.7335 23.4995 22.3293 23.4995C21.7791 23.4995 21.6132 23.6583 21.6132 24.4472V26.925C21.6132 27.6055 21.3986 28 19.6607 28C16.7612 28 13.5786 26.223 11.318 22.945C7.92697 18.1445 7 14.5149 7 13.7814C7 13.373 7.15595 13.0013 7.9382 13.0013H10.6729C11.3716 13.0013 11.6348 13.31 11.8956 14.075C13.2343 18.0122 15.4899 21.4515 16.4169 21.4515C16.7662 21.4515 16.9247 21.2889 16.9247 20.3979V16.3297C16.8622 15.1698 16.4613 14.6685 16.1645 14.2974C15.9815 14.0684 15.838 13.8891 15.838 13.6352C15.838 13.3252 16.1 13 16.5342 13H20.8334C21.4135 13 21.6144 13.3126 21.6144 14.0158V19.4892C21.6144 20.0753 21.8664 20.2794 22.0398 20.2794C22.3867 20.2794 22.6774 20.0753 23.3136 19.4288C25.2849 17.2069 26.6759 13.7801 26.6759 13.7801C26.8506 13.3718 27.1687 13 27.8649 13H30.6009Z" fill="#FEFEFE"/>
</svg>
