<svg version="1.1" id="Layer_1" xmlns="http://www.w3.org/2000/svg" xmlns:xlink="http://www.w3.org/1999/xlink" x="0px" y="0px" width="24px" height="24px" viewBox="0 0 24 24" enable-background="new 0 0 24 24" xml:space="preserve">
  <g id="icon">
    <circle cx="12" cy="12" r="11" fill="#97b376"/>
    <path d="M13.4152,15.0365c0.7046,-0.1605,1.3831,-0.4395,2.0075,-0.8319c0.4727,-0.2982,0.6157,-0.9226,0.3174,-1.397c-0.2982,-0.4744,-0.9226,-0.6174,-1.397,-0.3192c-1.4162,0.8912,-3.2388,0.8895,-4.6551,0c-0.4744,-0.2982,-1.0988,-0.1552,-1.397,0.3192c-0.2982,0.4727,-0.1552,1.0988,0.3174,1.397c0.6244,0.3924,1.3029,0.6715,2.0075,0.8319L8.6852,16.969c-0.3959,0.3959,-0.3959,1.036,0,1.4319c0.1988,0.1971,0.457,0.2965,0.7151,0.2965c0.2599,0,0.518,-0.0994,0.7169,-0.2965l1.8993,-1.8994l1.8994,1.8994c0.3959,0.3959,1.036,0.3959,1.4319,0c0.3959,-0.3959,0.3959,-1.0378,0,-1.4319L13.4152,15.0365M12.0164,7.3292c0.7901,0,1.4319,0.6418,1.4319,1.4319c0,0.7883,-0.6418,1.4302,-1.4319,1.4302c-0.7883,0,-1.4319,-0.6418,-1.4319,-1.4302C10.5845,7.971,11.2281,7.3292,12.0164,7.3292L12.0164,7.3292zM12.0164,12.2162c1.9064,0,3.4569,-1.5505,3.4569,-3.4551c0,-1.9081,-1.5505,-3.4586,-3.4569,-3.4586c-1.9063,0,-3.4568,1.5505,-3.4568,3.4569S10.1101,12.2162,12.0164,12.2162z" fill="#FFFFFF"/>
    <!-- <path d="M4.2218,19.7782C6.2124,21.7688,8.9624,23,12,23c6.0751,0,11,-4.9249,11,-11c0,-3.0376,-1.2312,-5.7876,-3.2218,-7.7782L4.2218,19.7782z" fill="#231F20" opacity="0.1"/> -->
  </g>
</svg>
