<svg xmlns="http://www.w3.org/2000/svg" xmlns:xlink="http://www.w3.org/1999/xlink" width="29px" height="16px"><path fill-rule="evenodd" fill="#b6b3bd" d="M24.809,10.121 C25.757,11.032 26.759,11.889 27.610,12.892 C27.986,13.337 28.342,13.797 28.614,14.314 C29.000,15.050 28.650,15.859 27.980,15.903 L23.813,15.901 C22.738,15.988 21.880,15.563 21.159,14.841 C20.582,14.263 20.048,13.647 19.493,13.050 C19.266,12.807 19.028,12.577 18.743,12.395 C18.174,12.031 17.681,12.142 17.356,12.727 C17.024,13.319 16.949,13.977 16.917,14.638 C16.872,15.604 16.576,15.857 15.590,15.901 C13.483,15.998 11.484,15.685 9.627,14.640 C7.989,13.720 6.719,12.418 5.614,10.946 C3.462,8.078 1.814,4.928 0.333,1.689 C-0.000,0.961 0.244,0.568 1.062,0.554 C2.422,0.529 3.781,0.531 5.143,0.552 C5.695,0.560 6.061,0.872 6.274,1.385 C7.010,3.164 7.910,4.855 9.040,6.424 C9.340,6.843 9.647,7.260 10.084,7.553 C10.567,7.879 10.935,7.772 11.163,7.242 C11.307,6.907 11.370,6.544 11.403,6.185 C11.510,4.948 11.525,3.714 11.336,2.481 C11.219,1.712 10.779,1.213 9.998,1.069 C9.600,0.993 9.659,0.847 9.852,0.624 C10.187,0.238 10.502,-0.001 11.130,-0.001 L15.840,-0.001 C16.582,0.142 16.746,0.470 16.848,1.204 L16.852,6.348 C16.844,6.632 16.996,7.476 17.516,7.664 C17.933,7.797 18.207,7.470 18.457,7.211 C19.585,6.034 20.389,4.642 21.108,3.202 C21.428,2.569 21.702,1.911 21.968,1.254 C22.165,0.766 22.474,0.526 23.033,0.537 L27.565,0.541 C27.700,0.541 27.836,0.542 27.966,0.565 C28.730,0.693 28.939,1.015 28.703,1.749 C28.331,2.900 27.608,3.858 26.901,4.822 C26.145,5.852 25.337,6.844 24.587,7.879 C23.898,8.824 23.953,9.300 24.809,10.121 L24.809,10.121 Z" class="vk"></path></svg>